<?xml version="1.0" encoding="utf-8" standalone="no"?>
<!DOCTYPE svg PUBLIC "-//W3C//DTD SVG 1.1//EN"
  "http://www.w3.org/Graphics/SVG/1.1/DTD/svg11.dtd">
<svg xmlns:xlink="http://www.w3.org/1999/xlink" width="1152pt" height="648pt" viewBox="0 0 1152 648" xmlns="http://www.w3.org/2000/svg" version="1.1">
 <metadata>
  <rdf:RDF xmlns:dc="http://purl.org/dc/elements/1.1/" xmlns:cc="http://creativecommons.org/ns#" xmlns:rdf="http://www.w3.org/1999/02/22-rdf-syntax-ns#">
   <cc:Work>
    <dc:type rdf:resource="http://purl.org/dc/dcmitype/StillImage"/>
    <dc:date>2024-05-04T16:39:31.207670</dc:date>
    <dc:format>image/svg+xml</dc:format>
    <dc:creator>
     <cc:Agent>
      <dc:title>Matplotlib v3.8.1, https://matplotlib.org/</dc:title>
     </cc:Agent>
    </dc:creator>
   </cc:Work>
  </rdf:RDF>
 </metadata>
 <defs>
  <style type="text/css">*{stroke-linejoin: round; stroke-linecap: butt}</style>
 </defs>
 <g id="figure_1">
  <g id="patch_1">
   <path d="M 0 648 
L 1152 648 
L 1152 0 
L 0 0 
z
" style="fill: #ffffff"/>
  </g>
  <g id="axes_1">
   <g id="patch_2">
    <path d="M 91.526016 581.01 
L 1118.394492 581.01 
L 1118.394492 58.32 
L 91.526016 58.32 
z
" style="fill: #eaeaf2"/>
   </g>
   <g id="matplotlib.axis_1">
    <g id="xtick_1">
     <g id="line2d_1">
      <path d="M 128.641744 581.01 
L 128.641744 58.32 
" clip-path="url(#pad4835094b)" style="fill: none; stroke: #ffffff; stroke-width: 1.5; stroke-linecap: round"/>
     </g>
     <g id="text_1">
      <!-- 20 -->
      <g style="fill: #262626" transform="translate(118.057252 605.06) scale(0.165 -0.165)">
       <defs>
        <path id="Actay-Regular-32" d="M 1971 4576 
Q 2637 4576 3033 4211 
Q 3430 3846 3430 3200 
Q 3430 2867 3299 2633 
Q 3168 2400 2957 2262 
Q 2746 2125 2486 2019 
Q 2227 1914 1968 1802 
Q 1709 1690 1491 1542 
Q 1274 1395 1130 1132 
Q 986 870 973 512 
L 3488 512 
L 3488 0 
L 429 0 
L 429 339 
Q 429 806 566 1145 
Q 704 1485 925 1670 
Q 1146 1856 1411 1990 
Q 1677 2125 1939 2224 
Q 2202 2323 2422 2435 
Q 2643 2547 2780 2745 
Q 2918 2944 2918 3226 
Q 2918 3629 2659 3859 
Q 2400 4090 1971 4090 
Q 1485 4090 1213 3776 
Q 941 3462 941 2874 
L 429 2874 
Q 429 3667 848 4121 
Q 1267 4576 1971 4576 
z
" transform="scale(0.015625)"/>
        <path id="Actay-Regular-30" d="M 275 2234 
Q 275 3245 803 3910 
Q 1331 4576 2144 4576 
Q 2963 4576 3494 3923 
Q 4026 3270 4026 2234 
Q 4026 1210 3494 557 
Q 2963 -96 2144 -96 
Q 1338 -96 806 569 
Q 275 1235 275 2234 
z
M 787 2240 
Q 787 1440 1171 915 
Q 1555 390 2150 390 
Q 2746 390 3130 912 
Q 3514 1434 3514 2240 
Q 3514 3053 3133 3571 
Q 2752 4090 2150 4090 
Q 1549 4090 1168 3568 
Q 787 3046 787 2240 
z
" transform="scale(0.015625)"/>
       </defs>
       <use xlink:href="#Actay-Regular-32"/>
       <use xlink:href="#Actay-Regular-30" x="61.299988"/>
      </g>
     </g>
    </g>
    <g id="xtick_2">
     <g id="line2d_2">
      <path d="M 252.360837 581.01 
L 252.360837 58.32 
" clip-path="url(#pad4835094b)" style="fill: none; stroke: #ffffff; stroke-width: 1.5; stroke-linecap: round"/>
     </g>
     <g id="text_2">
      <!-- 30 -->
      <g style="fill: #262626" transform="translate(241.669353 605.06) scale(0.165 -0.165)">
       <defs>
        <path id="Actay-Regular-33" d="M 2739 3968 
L 672 3968 
L 672 4480 
L 3450 4480 
L 3450 4051 
L 2157 2656 
L 2208 2656 
Q 2822 2656 3228 2317 
Q 3635 1978 3635 1325 
Q 3635 717 3200 310 
Q 2765 -96 2106 -96 
Q 1402 -96 915 413 
Q 429 922 429 1664 
L 941 1664 
Q 941 1120 1270 755 
Q 1600 390 2093 390 
Q 2534 390 2828 656 
Q 3123 922 3123 1318 
Q 3123 1734 2844 1993 
Q 2566 2253 2106 2253 
L 1779 2253 
L 1504 2566 
L 2739 3968 
z
" transform="scale(0.015625)"/>
       </defs>
       <use xlink:href="#Actay-Regular-33"/>
       <use xlink:href="#Actay-Regular-30" x="62.599991"/>
      </g>
     </g>
    </g>
    <g id="xtick_3">
     <g id="line2d_3">
      <path d="M 376.079931 581.01 
L 376.079931 58.32 
" clip-path="url(#pad4835094b)" style="fill: none; stroke: #ffffff; stroke-width: 1.5; stroke-linecap: round"/>
     </g>
     <g id="text_3">
      <!-- 40 -->
      <g style="fill: #262626" transform="translate(364.991415 605.06) scale(0.165 -0.165)">
       <defs>
        <path id="Actay-Regular-34" d="M 429 998 
L 429 1421 
L 2784 4480 
L 2835 4474 
L 2835 4480 
L 3347 4480 
L 3347 1510 
L 3968 1510 
L 3968 998 
L 3347 998 
L 3347 0 
L 2835 0 
L 2835 998 
L 429 998 
z
M 1069 1510 
L 2835 1510 
L 2835 3885 
L 1069 1510 
z
" transform="scale(0.015625)"/>
       </defs>
       <use xlink:href="#Actay-Regular-34"/>
       <use xlink:href="#Actay-Regular-30" x="67.399994"/>
      </g>
     </g>
    </g>
    <g id="xtick_4">
     <g id="line2d_4">
      <path d="M 499.799024 581.01 
L 499.799024 58.32 
" clip-path="url(#pad4835094b)" style="fill: none; stroke: #ffffff; stroke-width: 1.5; stroke-linecap: round"/>
     </g>
     <g id="text_4">
      <!-- 50 -->
      <g style="fill: #262626" transform="translate(489.040509 605.06) scale(0.165 -0.165)">
       <defs>
        <path id="Actay-Regular-35" d="M 2086 -96 
Q 1395 -96 912 406 
Q 429 909 429 1638 
L 941 1638 
Q 941 1094 1267 742 
Q 1594 390 2086 390 
Q 2541 390 2825 662 
Q 3110 934 3110 1370 
Q 3110 1818 2803 2077 
Q 2496 2336 1971 2336 
L 870 2336 
L 634 2605 
L 736 4480 
L 3277 4480 
L 3277 3968 
L 1184 3968 
L 1120 2746 
L 2022 2746 
Q 2758 2746 3190 2371 
Q 3622 1997 3622 1370 
Q 3622 736 3187 320 
Q 2752 -96 2086 -96 
z
" transform="scale(0.015625)"/>
       </defs>
       <use xlink:href="#Actay-Regular-35"/>
       <use xlink:href="#Actay-Regular-30" x="63.399994"/>
      </g>
     </g>
    </g>
    <g id="xtick_5">
     <g id="line2d_5">
      <path d="M 623.518118 581.01 
L 623.518118 58.32 
" clip-path="url(#pad4835094b)" style="fill: none; stroke: #ffffff; stroke-width: 1.5; stroke-linecap: round"/>
     </g>
     <g id="text_5">
      <!-- 60 -->
      <g style="fill: #262626" transform="translate(612.950384 605.06) scale(0.165 -0.165)">
       <defs>
        <path id="Actay-Regular-36" d="M 275 1517 
Q 275 2042 634 2554 
L 2010 4480 
L 2618 4480 
L 1651 3110 
Q 1779 3136 1958 3136 
Q 2688 3136 3161 2681 
Q 3635 2227 3635 1516 
Q 3635 806 3161 355 
Q 2688 -96 1958 -96 
Q 1229 -96 752 361 
Q 275 819 275 1517 
z
M 787 1517 
Q 787 1030 1120 710 
Q 1453 390 1958 390 
Q 2477 390 2800 704 
Q 3123 1018 3123 1517 
Q 3123 2016 2796 2333 
Q 2470 2650 1958 2650 
Q 1453 2650 1120 2330 
Q 787 2010 787 1517 
z
" transform="scale(0.015625)"/>
       </defs>
       <use xlink:href="#Actay-Regular-36"/>
       <use xlink:href="#Actay-Regular-30" x="61.099991"/>
      </g>
     </g>
    </g>
    <g id="xtick_6">
     <g id="line2d_6">
      <path d="M 747.237212 581.01 
L 747.237212 58.32 
" clip-path="url(#pad4835094b)" style="fill: none; stroke: #ffffff; stroke-width: 1.5; stroke-linecap: round"/>
     </g>
     <g id="text_6">
      <!-- 70 -->
      <g style="fill: #262626" transform="translate(737.155454 605.06) scale(0.165 -0.165)">
       <defs>
        <path id="Actay-Regular-37" d="M 2637 3968 
L 320 3968 
L 320 4480 
L 3213 4480 
L 3213 4051 
L 1530 0 
L 986 0 
L 2637 3968 
z
" transform="scale(0.015625)"/>
       </defs>
       <use xlink:href="#Actay-Regular-37"/>
       <use xlink:href="#Actay-Regular-30" x="55.199997"/>
      </g>
     </g>
    </g>
    <g id="xtick_7">
     <g id="line2d_7">
      <path d="M 870.956305 581.01 
L 870.956305 58.32 
" clip-path="url(#pad4835094b)" style="fill: none; stroke: #ffffff; stroke-width: 1.5; stroke-linecap: round"/>
     </g>
     <g id="text_7">
      <!-- 80 -->
      <g style="fill: #262626" transform="translate(860.462047 605.06) scale(0.165 -0.165)">
       <defs>
        <path id="Actay-Regular-38" d="M 275 1184 
Q 275 1530 515 1821 
Q 755 2112 1133 2285 
Q 826 2464 643 2739 
Q 461 3014 461 3334 
Q 461 3866 877 4221 
Q 1293 4576 1926 4576 
Q 2566 4576 2985 4230 
Q 3405 3885 3405 3334 
Q 3405 3002 3229 2730 
Q 3053 2458 2752 2285 
Q 3130 2118 3360 1830 
Q 3590 1542 3590 1184 
Q 3590 621 3120 262 
Q 2650 -96 1926 -96 
Q 1216 -96 745 269 
Q 275 634 275 1184 
z
M 928 3296 
Q 928 2963 1225 2713 
Q 1523 2464 1920 2464 
Q 2342 2464 2636 2704 
Q 2931 2944 2931 3296 
Q 2931 3654 2649 3884 
Q 2368 4115 1920 4115 
Q 1491 4115 1209 3881 
Q 928 3648 928 3296 
z
M 787 1216 
Q 787 845 1110 608 
Q 1434 371 1926 371 
Q 2438 371 2758 608 
Q 3078 845 3078 1216 
Q 3078 1568 2739 1821 
Q 2400 2074 1926 2074 
Q 1472 2074 1129 1814 
Q 787 1555 787 1216 
z
" transform="scale(0.015625)"/>
       </defs>
       <use xlink:href="#Actay-Regular-38"/>
       <use xlink:href="#Actay-Regular-30" x="60.199997"/>
      </g>
     </g>
    </g>
    <g id="xtick_8">
     <g id="line2d_8">
      <path d="M 994.675399 581.01 
L 994.675399 58.32 
" clip-path="url(#pad4835094b)" style="fill: none; stroke: #ffffff; stroke-width: 1.5; stroke-linecap: round"/>
     </g>
     <g id="text_8">
      <!-- 90 -->
      <g style="fill: #262626" transform="translate(984.107664 605.06) scale(0.165 -0.165)">
       <defs>
        <path id="Actay-Regular-39" d="M 3635 2970 
Q 3635 2458 3226 1882 
L 1888 0 
L 1286 0 
L 2253 1376 
Q 2125 1350 1952 1350 
Q 1222 1350 748 1804 
Q 275 2259 275 2969 
Q 275 3680 745 4128 
Q 1216 4576 1952 4576 
Q 2675 4576 3155 4118 
Q 3635 3661 3635 2970 
z
M 3123 2970 
Q 3123 3456 2787 3776 
Q 2451 4096 1952 4096 
Q 1434 4096 1110 3785 
Q 787 3475 787 2970 
Q 787 2470 1110 2150 
Q 1434 1830 1952 1830 
Q 2451 1830 2787 2153 
Q 3123 2477 3123 2970 
z
" transform="scale(0.015625)"/>
       </defs>
       <use xlink:href="#Actay-Regular-39"/>
       <use xlink:href="#Actay-Regular-30" x="61.099991"/>
      </g>
     </g>
    </g>
    <g id="xtick_9">
     <g id="line2d_9">
      <path d="M 1118.394492 581.01 
L 1118.394492 58.32 
" clip-path="url(#pad4835094b)" style="fill: none; stroke: #ffffff; stroke-width: 1.5; stroke-linecap: round"/>
     </g>
     <g id="text_9">
      <!-- 100 -->
      <g style="fill: #262626" transform="translate(1104.228984 605.06) scale(0.165 -0.165)">
       <defs>
        <path id="Actay-Regular-31" d="M 230 3539 
L 230 4038 
Q 941 4058 1491 4480 
L 1914 4480 
L 1914 0 
L 1402 0 
L 1402 3821 
Q 928 3558 230 3539 
z
" transform="scale(0.015625)"/>
       </defs>
       <use xlink:href="#Actay-Regular-31"/>
       <use xlink:href="#Actay-Regular-30" x="37.699997"/>
       <use xlink:href="#Actay-Regular-30" x="104.699982"/>
      </g>
     </g>
    </g>
    <g id="text_10">
     <!-- Возраст -->
     <g style="fill: #262626" transform="translate(566.575254 624.96) scale(0.18 -0.18)">
      <defs>
       <path id="Actay-Regular-412" d="M 493 0 
L 493 4480 
L 2330 4480 
Q 3027 4480 3456 4163 
Q 3885 3846 3885 3322 
Q 3885 2970 3654 2698 
Q 3424 2426 3034 2285 
Q 3533 2170 3811 1888 
Q 4090 1606 4090 1203 
Q 4090 672 3594 336 
Q 3098 0 2330 0 
L 493 0 
z
M 3392 3264 
Q 3392 3603 3097 3820 
Q 2803 4038 2330 4038 
L 1005 4038 
L 1005 2483 
L 2330 2483 
Q 2771 2483 3081 2710 
Q 3392 2938 3392 3264 
z
M 3225 672 
Q 3571 896 3571 1261 
Q 3571 1626 3238 1837 
Q 2906 2048 2330 2048 
L 1005 2048 
L 1005 448 
L 2330 448 
Q 2880 448 3225 672 
z
" transform="scale(0.015625)"/>
       <path id="Actay-Regular-43e" d="M 275 1594 
Q 275 2330 755 2813 
Q 1235 3296 1958 3296 
Q 2701 3296 3181 2822 
Q 3661 2349 3661 1594 
Q 3661 851 3181 377 
Q 2701 -96 1958 -96 
Q 1235 -96 755 387 
Q 275 870 275 1594 
z
M 787 1600 
Q 787 1082 1123 736 
Q 1459 390 1958 390 
Q 2490 390 2819 723 
Q 3149 1056 3149 1600 
Q 3149 2144 2819 2480 
Q 2490 2816 1958 2816 
Q 1453 2816 1120 2470 
Q 787 2125 787 1600 
z
" transform="scale(0.015625)"/>
       <path id="Actay-Regular-437" d="M 1830 -96 
Q 1229 -96 829 230 
Q 429 557 429 1075 
L 902 1075 
Q 902 723 1168 508 
Q 1434 294 1830 294 
Q 2240 294 2493 457 
Q 2746 621 2746 889 
Q 2746 1158 2483 1321 
Q 2221 1485 1786 1485 
L 1453 1485 
L 1453 1805 
L 1786 1805 
Q 2234 1805 2445 1936 
Q 2656 2067 2656 2355 
Q 2656 2611 2432 2755 
Q 2208 2899 1818 2899 
Q 1466 2899 1229 2697 
Q 992 2496 992 2202 
L 518 2202 
Q 518 2656 892 2966 
Q 1267 3277 1811 3277 
Q 2419 3277 2784 3037 
Q 3149 2797 3149 2406 
Q 3149 1843 2579 1651 
Q 3238 1421 3238 838 
Q 3238 422 2848 163 
Q 2458 -96 1830 -96 
z
" transform="scale(0.015625)"/>
       <path id="Actay-Regular-440" d="M 499 3200 
L 941 3200 
L 1005 2566 
Q 1210 2912 1539 3104 
Q 1869 3296 2266 3296 
Q 2918 3296 3353 2813 
Q 3789 2330 3789 1606 
Q 3789 870 3357 387 
Q 2925 -96 2266 -96 
Q 1869 -96 1539 96 
Q 1210 288 1011 634 
L 1011 -1280 
L 499 -1280 
L 499 3200 
z
M 2950 716 
Q 3277 1062 3277 1600 
Q 3277 2138 2950 2486 
Q 2624 2835 2131 2835 
Q 1632 2835 1321 2492 
Q 1011 2150 1011 1600 
Q 1011 1056 1324 713 
Q 1638 371 2131 371 
Q 2624 371 2950 716 
z
" transform="scale(0.015625)"/>
       <path id="Actay-Regular-430" d="M 3578 0 
L 3136 0 
L 3072 659 
Q 2880 301 2547 102 
Q 2214 -96 1811 -96 
Q 1152 -96 710 387 
Q 269 870 269 1594 
Q 269 2323 710 2809 
Q 1152 3296 1811 3296 
Q 2214 3296 2544 3097 
Q 2874 2899 3066 2541 
L 3136 3200 
L 3578 3200 
L 3578 0 
z
M 781 1600 
Q 781 1069 1110 720 
Q 1440 371 1946 371 
Q 2438 371 2752 713 
Q 3066 1056 3066 1600 
Q 3066 2144 2752 2489 
Q 2438 2835 1946 2835 
Q 1434 2835 1107 2489 
Q 781 2144 781 1600 
z
" transform="scale(0.015625)"/>
       <path id="Actay-Regular-441" d="M 1116 2483 
Q 787 2131 787 1600 
Q 787 1069 1116 720 
Q 1446 371 1952 371 
Q 2349 371 2646 576 
Q 2944 781 3072 1126 
L 3603 1126 
Q 3443 570 3001 237 
Q 2560 -96 1952 -96 
Q 1235 -96 755 387 
Q 275 870 275 1594 
Q 275 2330 752 2813 
Q 1229 3296 1952 3296 
Q 2554 3296 2995 2966 
Q 3437 2637 3597 2080 
L 3066 2080 
Q 2931 2419 2633 2627 
Q 2336 2835 1952 2835 
Q 1446 2835 1116 2483 
z
" transform="scale(0.015625)"/>
       <path id="Actay-Regular-442" d="M 1485 0 
L 1485 2720 
L 166 2720 
L 166 3200 
L 3322 3200 
L 3322 2720 
L 1997 2720 
L 1997 0 
L 1485 0 
z
" transform="scale(0.015625)"/>
      </defs>
      <use xlink:href="#Actay-Regular-412"/>
      <use xlink:href="#Actay-Regular-43e" x="67.999985"/>
      <use xlink:href="#Actay-Regular-437" x="129.099976"/>
      <use xlink:href="#Actay-Regular-440" x="184.799973"/>
      <use xlink:href="#Actay-Regular-430" x="248.299957"/>
      <use xlink:href="#Actay-Regular-441" x="311.799942"/>
      <use xlink:href="#Actay-Regular-442" x="372.09993"/>
     </g>
    </g>
   </g>
   <g id="matplotlib.axis_2">
    <g id="ytick_1">
     <g id="line2d_10">
      <path d="M 91.526016 581.01 
L 1118.394492 581.01 
" clip-path="url(#pad4835094b)" style="fill: none; stroke: #ffffff; stroke-width: 1.5; stroke-linecap: round"/>
     </g>
     <g id="text_11">
      <!-- 0 -->
      <g style="fill: #262626" transform="translate(67.971016 586.785) scale(0.165 -0.165)">
       <use xlink:href="#Actay-Regular-30"/>
      </g>
     </g>
    </g>
    <g id="ytick_2">
     <g id="line2d_11">
      <path d="M 91.526016 500.263852 
L 1118.394492 500.263852 
" clip-path="url(#pad4835094b)" style="fill: none; stroke: #ffffff; stroke-width: 1.5; stroke-linecap: round"/>
     </g>
     <g id="text_12">
      <!-- 200 -->
      <g style="fill: #262626" transform="translate(46.802031 506.038852) scale(0.165 -0.165)">
       <use xlink:href="#Actay-Regular-32"/>
       <use xlink:href="#Actay-Regular-30" x="61.299988"/>
       <use xlink:href="#Actay-Regular-30" x="128.299973"/>
      </g>
     </g>
    </g>
    <g id="ytick_3">
     <g id="line2d_12">
      <path d="M 91.526016 419.517705 
L 1118.394492 419.517705 
" clip-path="url(#pad4835094b)" style="fill: none; stroke: #ffffff; stroke-width: 1.5; stroke-linecap: round"/>
     </g>
     <g id="text_13">
      <!-- 400 -->
      <g style="fill: #262626" transform="translate(45.793984 425.292705) scale(0.165 -0.165)">
       <use xlink:href="#Actay-Regular-34"/>
       <use xlink:href="#Actay-Regular-30" x="67.399994"/>
       <use xlink:href="#Actay-Regular-30" x="134.399979"/>
      </g>
     </g>
    </g>
    <g id="ytick_4">
     <g id="line2d_13">
      <path d="M 91.526016 338.771557 
L 1118.394492 338.771557 
" clip-path="url(#pad4835094b)" style="fill: none; stroke: #ffffff; stroke-width: 1.5; stroke-linecap: round"/>
     </g>
     <g id="text_14">
      <!-- 600 -->
      <g style="fill: #262626" transform="translate(46.835547 344.546557) scale(0.165 -0.165)">
       <use xlink:href="#Actay-Regular-36"/>
       <use xlink:href="#Actay-Regular-30" x="61.099991"/>
       <use xlink:href="#Actay-Regular-30" x="128.099976"/>
      </g>
     </g>
    </g>
    <g id="ytick_5">
     <g id="line2d_14">
      <path d="M 91.526016 258.02541 
L 1118.394492 258.02541 
" clip-path="url(#pad4835094b)" style="fill: none; stroke: #ffffff; stroke-width: 1.5; stroke-linecap: round"/>
     </g>
     <g id="text_15">
      <!-- 800 -->
      <g style="fill: #262626" transform="translate(46.9825 263.80041) scale(0.165 -0.165)">
       <use xlink:href="#Actay-Regular-38"/>
       <use xlink:href="#Actay-Regular-30" x="60.199997"/>
       <use xlink:href="#Actay-Regular-30" x="127.199982"/>
      </g>
     </g>
    </g>
    <g id="ytick_6">
     <g id="line2d_15">
      <path d="M 91.526016 177.279262 
L 1118.394492 177.279262 
" clip-path="url(#pad4835094b)" style="fill: none; stroke: #ffffff; stroke-width: 1.5; stroke-linecap: round"/>
     </g>
     <g id="text_16">
      <!-- 1000 -->
      <g style="fill: #262626" transform="translate(39.64 183.054262) scale(0.165 -0.165)">
       <use xlink:href="#Actay-Regular-31"/>
       <use xlink:href="#Actay-Regular-30" x="37.699997"/>
       <use xlink:href="#Actay-Regular-30" x="104.699982"/>
       <use xlink:href="#Actay-Regular-30" x="171.699966"/>
      </g>
     </g>
    </g>
    <g id="ytick_7">
     <g id="line2d_16">
      <path d="M 91.526016 96.533114 
L 1118.394492 96.533114 
" clip-path="url(#pad4835094b)" style="fill: none; stroke: #ffffff; stroke-width: 1.5; stroke-linecap: round"/>
     </g>
     <g id="text_17">
      <!-- 1200 -->
      <g style="fill: #262626" transform="translate(40.581016 102.308114) scale(0.165 -0.165)">
       <use xlink:href="#Actay-Regular-31"/>
       <use xlink:href="#Actay-Regular-32" x="37.699997"/>
       <use xlink:href="#Actay-Regular-30" x="98.999985"/>
       <use xlink:href="#Actay-Regular-30" x="165.999969"/>
      </g>
     </g>
    </g>
    <g id="text_18">
     <!-- Количество -->
     <g style="fill: #262626" transform="translate(32.04 374.978438) rotate(-90) scale(0.18 -0.18)">
      <defs>
       <path id="Actay-Regular-41a" d="M 1005 2010 
L 1005 0 
L 493 0 
L 493 4480 
L 1005 4480 
L 1005 2470 
L 1734 2470 
L 3322 4480 
L 3936 4480 
L 2144 2240 
L 4109 0 
L 3475 0 
L 1728 2010 
L 1005 2010 
z
" transform="scale(0.015625)"/>
       <path id="Actay-Regular-43b" d="M 986 1338 
L 1235 3200 
L 3942 3200 
L 3942 0 
L 3430 0 
L 3430 2720 
L 1683 2720 
L 1498 1299 
Q 1414 538 1132 221 
Q 851 -96 275 -96 
L 275 371 
Q 602 371 758 588 
Q 915 806 986 1338 
z
" transform="scale(0.015625)"/>
       <path id="Actay-Regular-438" d="M 3680 0 
L 3168 0 
L 3168 2413 
L 922 0 
L 493 0 
L 493 3200 
L 1005 3200 
L 1005 800 
L 3258 3200 
L 3680 3200 
L 3680 0 
z
" transform="scale(0.015625)"/>
       <path id="Actay-Regular-447" d="M 2970 2432 
L 2970 3200 
L 3482 3200 
L 3482 0 
L 2970 0 
L 2970 1408 
Q 2586 749 1869 749 
Q 1254 749 873 1209 
Q 493 1670 493 2432 
L 493 3200 
L 1005 3200 
L 1005 2432 
Q 1005 1894 1277 1561 
Q 1549 1229 1990 1229 
Q 2419 1229 2694 1565 
Q 2970 1901 2970 2432 
z
" transform="scale(0.015625)"/>
       <path id="Actay-Regular-435" d="M 3565 1453 
L 794 1453 
Q 838 954 1148 634 
Q 1459 314 1914 314 
Q 2592 314 2938 909 
L 3462 909 
Q 3264 442 2854 173 
Q 2445 -96 1914 -96 
Q 1210 -96 742 387 
Q 275 870 275 1594 
Q 275 2330 739 2813 
Q 1203 3296 1914 3296 
Q 2643 3296 3107 2822 
Q 3571 2349 3571 1594 
Q 3571 1574 3568 1526 
Q 3565 1478 3565 1453 
z
M 794 1747 
L 3053 1747 
Q 3008 2253 2697 2563 
Q 2387 2874 1914 2874 
Q 1459 2874 1148 2560 
Q 838 2246 794 1747 
z
" transform="scale(0.015625)"/>
       <path id="Actay-Regular-432" d="M 493 0 
L 493 3200 
L 2016 3200 
Q 2554 3200 2883 2973 
Q 3213 2746 3213 2381 
Q 3213 2131 3037 1932 
Q 2861 1734 2566 1632 
Q 2938 1549 3149 1350 
Q 3360 1152 3360 864 
Q 3360 480 2989 240 
Q 2618 0 2016 0 
L 493 0 
z
M 2752 2323 
Q 2752 2560 2550 2697 
Q 2349 2835 2016 2835 
L 966 2835 
L 966 1792 
L 2016 1792 
Q 2323 1792 2537 1945 
Q 2752 2099 2752 2323 
z
M 2886 902 
Q 2886 1152 2652 1299 
Q 2419 1446 2016 1446 
L 966 1446 
L 966 371 
L 2016 371 
Q 2413 371 2649 515 
Q 2886 659 2886 902 
z
" transform="scale(0.015625)"/>
      </defs>
      <use xlink:href="#Actay-Regular-41a"/>
      <use xlink:href="#Actay-Regular-43e" x="64.199997"/>
      <use xlink:href="#Actay-Regular-43b" x="125.299988"/>
      <use xlink:href="#Actay-Regular-438" x="194.699982"/>
      <use xlink:href="#Actay-Regular-447" x="259.799973"/>
      <use xlink:href="#Actay-Regular-435" x="321.999969"/>
      <use xlink:href="#Actay-Regular-441" x="382.09996"/>
      <use xlink:href="#Actay-Regular-442" x="442.399948"/>
      <use xlink:href="#Actay-Regular-432" x="496.799942"/>
      <use xlink:href="#Actay-Regular-43e" x="553.499939"/>
     </g>
    </g>
   </g>
   <g id="patch_3">
    <path d="M 85.340061 581.01 
L 97.71197 581.01 
L 97.71197 579.798808 
L 85.340061 579.798808 
z
" clip-path="url(#pad4835094b)" style="fill: #4c72b0; fill-opacity: 0.75; stroke: #ffffff; stroke-width: 0.966234; stroke-linejoin: miter"/>
   </g>
   <g id="patch_4">
    <path d="M 97.71197 581.01 
L 110.08388 581.01 
L 110.08388 424.362474 
L 97.71197 424.362474 
z
" clip-path="url(#pad4835094b)" style="fill: #4c72b0; fill-opacity: 0.75; stroke: #ffffff; stroke-width: 0.966234; stroke-linejoin: miter"/>
   </g>
   <g id="patch_5">
    <path d="M 110.08388 581.01 
L 122.455789 581.01 
L 122.455789 257.621679 
L 110.08388 257.621679 
z
" clip-path="url(#pad4835094b)" style="fill: #4c72b0; fill-opacity: 0.75; stroke: #ffffff; stroke-width: 0.966234; stroke-linejoin: miter"/>
   </g>
   <g id="patch_6">
    <path d="M 122.455789 581.01 
L 134.827698 581.01 
L 134.827698 278.615677 
L 122.455789 278.615677 
z
" clip-path="url(#pad4835094b)" style="fill: #4c72b0; fill-opacity: 0.75; stroke: #ffffff; stroke-width: 0.966234; stroke-linejoin: miter"/>
   </g>
   <g id="patch_7">
    <path d="M 134.827698 581.01 
L 147.199608 581.01 
L 147.199608 256.814217 
L 134.827698 256.814217 
z
" clip-path="url(#pad4835094b)" style="fill: #4c72b0; fill-opacity: 0.75; stroke: #ffffff; stroke-width: 0.966234; stroke-linejoin: miter"/>
   </g>
   <g id="patch_8">
    <path d="M 147.199608 581.01 
L 159.571517 581.01 
L 159.571517 234.609027 
L 147.199608 234.609027 
z
" clip-path="url(#pad4835094b)" style="fill: #4c72b0; fill-opacity: 0.75; stroke: #ffffff; stroke-width: 0.966234; stroke-linejoin: miter"/>
   </g>
   <g id="patch_9">
    <path d="M 159.571517 581.01 
L 171.943426 581.01 
L 171.943426 227.341873 
L 159.571517 227.341873 
z
" clip-path="url(#pad4835094b)" style="fill: #4c72b0; fill-opacity: 0.75; stroke: #ffffff; stroke-width: 0.966234; stroke-linejoin: miter"/>
   </g>
   <g id="patch_10">
    <path d="M 171.943426 581.01 
L 184.315336 581.01 
L 184.315336 222.497105 
L 171.943426 222.497105 
z
" clip-path="url(#pad4835094b)" style="fill: #4c72b0; fill-opacity: 0.75; stroke: #ffffff; stroke-width: 0.966234; stroke-linejoin: miter"/>
   </g>
   <g id="patch_11">
    <path d="M 184.315336 581.01 
L 196.687245 581.01 
L 196.687245 210.788913 
L 184.315336 210.788913 
z
" clip-path="url(#pad4835094b)" style="fill: #4c72b0; fill-opacity: 0.75; stroke: #ffffff; stroke-width: 0.966234; stroke-linejoin: miter"/>
   </g>
   <g id="patch_12">
    <path d="M 196.687245 581.01 
L 209.059155 581.01 
L 209.059155 196.658337 
L 196.687245 196.658337 
z
" clip-path="url(#pad4835094b)" style="fill: #4c72b0; fill-opacity: 0.75; stroke: #ffffff; stroke-width: 0.966234; stroke-linejoin: miter"/>
   </g>
   <g id="patch_13">
    <path d="M 209.059155 581.01 
L 221.431064 581.01 
L 221.431064 156.285264 
L 209.059155 156.285264 
z
" clip-path="url(#pad4835094b)" style="fill: #4c72b0; fill-opacity: 0.75; stroke: #ffffff; stroke-width: 0.966234; stroke-linejoin: miter"/>
   </g>
   <g id="patch_14">
    <path d="M 221.431064 581.01 
L 233.802973 581.01 
L 233.802973 167.589724 
L 221.431064 167.589724 
z
" clip-path="url(#pad4835094b)" style="fill: #4c72b0; fill-opacity: 0.75; stroke: #ffffff; stroke-width: 0.966234; stroke-linejoin: miter"/>
   </g>
   <g id="patch_15">
    <path d="M 233.802973 581.01 
L 246.174883 581.01 
L 246.174883 135.291265 
L 233.802973 135.291265 
z
" clip-path="url(#pad4835094b)" style="fill: #4c72b0; fill-opacity: 0.75; stroke: #ffffff; stroke-width: 0.966234; stroke-linejoin: miter"/>
   </g>
   <g id="patch_16">
    <path d="M 246.174883 581.01 
L 258.546792 581.01 
L 258.546792 136.502457 
L 246.174883 136.502457 
z
" clip-path="url(#pad4835094b)" style="fill: #4c72b0; fill-opacity: 0.75; stroke: #ffffff; stroke-width: 0.966234; stroke-linejoin: miter"/>
   </g>
   <g id="patch_17">
    <path d="M 258.546792 581.01 
L 270.918701 581.01 
L 270.918701 147.806918 
L 258.546792 147.806918 
z
" clip-path="url(#pad4835094b)" style="fill: #4c72b0; fill-opacity: 0.75; stroke: #ffffff; stroke-width: 0.966234; stroke-linejoin: miter"/>
   </g>
   <g id="patch_18">
    <path d="M 270.918701 581.01 
L 283.290611 581.01 
L 283.290611 121.160689 
L 270.918701 121.160689 
z
" clip-path="url(#pad4835094b)" style="fill: #4c72b0; fill-opacity: 0.75; stroke: #ffffff; stroke-width: 0.966234; stroke-linejoin: miter"/>
   </g>
   <g id="patch_19">
    <path d="M 283.290611 581.01 
L 295.66252 581.01 
L 295.66252 138.11738 
L 283.290611 138.11738 
z
" clip-path="url(#pad4835094b)" style="fill: #4c72b0; fill-opacity: 0.75; stroke: #ffffff; stroke-width: 0.966234; stroke-linejoin: miter"/>
   </g>
   <g id="patch_20">
    <path d="M 295.66252 581.01 
L 308.034429 581.01 
L 308.034429 135.694996 
L 295.66252 135.694996 
z
" clip-path="url(#pad4835094b)" style="fill: #4c72b0; fill-opacity: 0.75; stroke: #ffffff; stroke-width: 0.966234; stroke-linejoin: miter"/>
   </g>
   <g id="patch_21">
    <path d="M 308.034429 581.01 
L 320.406339 581.01 
L 320.406339 147.806918 
L 308.034429 147.806918 
z
" clip-path="url(#pad4835094b)" style="fill: #4c72b0; fill-opacity: 0.75; stroke: #ffffff; stroke-width: 0.966234; stroke-linejoin: miter"/>
   </g>
   <g id="patch_22">
    <path d="M 320.406339 581.01 
L 332.778248 581.01 
L 332.778248 136.098727 
L 320.406339 136.098727 
z
" clip-path="url(#pad4835094b)" style="fill: #4c72b0; fill-opacity: 0.75; stroke: #ffffff; stroke-width: 0.966234; stroke-linejoin: miter"/>
   </g>
   <g id="patch_23">
    <path d="M 332.778248 581.01 
L 345.150157 581.01 
L 345.150157 168.800916 
L 332.778248 168.800916 
z
" clip-path="url(#pad4835094b)" style="fill: #4c72b0; fill-opacity: 0.75; stroke: #ffffff; stroke-width: 0.966234; stroke-linejoin: miter"/>
   </g>
   <g id="patch_24">
    <path d="M 345.150157 581.01 
L 357.522067 581.01 
L 357.522067 145.384534 
L 345.150157 145.384534 
z
" clip-path="url(#pad4835094b)" style="fill: #4c72b0; fill-opacity: 0.75; stroke: #ffffff; stroke-width: 0.966234; stroke-linejoin: miter"/>
   </g>
   <g id="patch_25">
    <path d="M 357.522067 581.01 
L 369.893976 581.01 
L 369.893976 153.862879 
L 357.522067 153.862879 
z
" clip-path="url(#pad4835094b)" style="fill: #4c72b0; fill-opacity: 0.75; stroke: #ffffff; stroke-width: 0.966234; stroke-linejoin: miter"/>
   </g>
   <g id="patch_26">
    <path d="M 369.893976 581.01 
L 382.265885 581.01 
L 382.265885 155.477802 
L 369.893976 155.477802 
z
" clip-path="url(#pad4835094b)" style="fill: #4c72b0; fill-opacity: 0.75; stroke: #ffffff; stroke-width: 0.966234; stroke-linejoin: miter"/>
   </g>
   <g id="patch_27">
    <path d="M 382.265885 581.01 
L 394.637795 581.01 
L 394.637795 168.397186 
L 382.265885 168.397186 
z
" clip-path="url(#pad4835094b)" style="fill: #4c72b0; fill-opacity: 0.75; stroke: #ffffff; stroke-width: 0.966234; stroke-linejoin: miter"/>
   </g>
   <g id="patch_28">
    <path d="M 394.637795 581.01 
L 407.009704 581.01 
L 407.009704 138.924842 
L 394.637795 138.924842 
z
" clip-path="url(#pad4835094b)" style="fill: #4c72b0; fill-opacity: 0.75; stroke: #ffffff; stroke-width: 0.966234; stroke-linejoin: miter"/>
   </g>
   <g id="patch_29">
    <path d="M 407.009704 581.01 
L 419.381614 581.01 
L 419.381614 140.943496 
L 407.009704 140.943496 
z
" clip-path="url(#pad4835094b)" style="fill: #4c72b0; fill-opacity: 0.75; stroke: #ffffff; stroke-width: 0.966234; stroke-linejoin: miter"/>
   </g>
   <g id="patch_30">
    <path d="M 419.381614 581.01 
L 431.753523 581.01 
L 431.753523 151.440495 
L 419.381614 151.440495 
z
" clip-path="url(#pad4835094b)" style="fill: #4c72b0; fill-opacity: 0.75; stroke: #ffffff; stroke-width: 0.966234; stroke-linejoin: miter"/>
   </g>
   <g id="patch_31">
    <path d="M 431.753523 581.01 
L 444.125432 581.01 
L 444.125432 144.577072 
L 431.753523 144.577072 
z
" clip-path="url(#pad4835094b)" style="fill: #4c72b0; fill-opacity: 0.75; stroke: #ffffff; stroke-width: 0.966234; stroke-linejoin: miter"/>
   </g>
   <g id="patch_32">
    <path d="M 444.125432 581.01 
L 456.497342 581.01 
L 456.497342 158.707648 
L 444.125432 158.707648 
z
" clip-path="url(#pad4835094b)" style="fill: #4c72b0; fill-opacity: 0.75; stroke: #ffffff; stroke-width: 0.966234; stroke-linejoin: miter"/>
   </g>
   <g id="patch_33">
    <path d="M 456.497342 581.01 
L 468.869251 581.01 
L 468.869251 141.750957 
L 456.497342 141.750957 
z
" clip-path="url(#pad4835094b)" style="fill: #4c72b0; fill-opacity: 0.75; stroke: #ffffff; stroke-width: 0.966234; stroke-linejoin: miter"/>
   </g>
   <g id="patch_34">
    <path d="M 468.869251 581.01 
L 481.24116 581.01 
L 481.24116 152.247956 
L 468.869251 152.247956 
z
" clip-path="url(#pad4835094b)" style="fill: #4c72b0; fill-opacity: 0.75; stroke: #ffffff; stroke-width: 0.966234; stroke-linejoin: miter"/>
   </g>
   <g id="patch_35">
    <path d="M 481.24116 581.01 
L 493.61307 581.01 
L 493.61307 123.986805 
L 481.24116 123.986805 
z
" clip-path="url(#pad4835094b)" style="fill: #4c72b0; fill-opacity: 0.75; stroke: #ffffff; stroke-width: 0.966234; stroke-linejoin: miter"/>
   </g>
   <g id="patch_36">
    <path d="M 493.61307 581.01 
L 505.984979 581.01 
L 505.984979 152.651687 
L 493.61307 152.651687 
z
" clip-path="url(#pad4835094b)" style="fill: #4c72b0; fill-opacity: 0.75; stroke: #ffffff; stroke-width: 0.966234; stroke-linejoin: miter"/>
   </g>
   <g id="patch_37">
    <path d="M 505.984979 581.01 
L 518.356888 581.01 
L 518.356888 109.452498 
L 505.984979 109.452498 
z
" clip-path="url(#pad4835094b)" style="fill: #4c72b0; fill-opacity: 0.75; stroke: #ffffff; stroke-width: 0.966234; stroke-linejoin: miter"/>
   </g>
   <g id="patch_38">
    <path d="M 518.356888 581.01 
L 530.728798 581.01 
L 530.728798 117.123382 
L 518.356888 117.123382 
z
" clip-path="url(#pad4835094b)" style="fill: #4c72b0; fill-opacity: 0.75; stroke: #ffffff; stroke-width: 0.966234; stroke-linejoin: miter"/>
   </g>
   <g id="patch_39">
    <path d="M 530.728798 581.01 
L 543.100707 581.01 
L 543.100707 143.36588 
L 530.728798 143.36588 
z
" clip-path="url(#pad4835094b)" style="fill: #4c72b0; fill-opacity: 0.75; stroke: #ffffff; stroke-width: 0.966234; stroke-linejoin: miter"/>
   </g>
   <g id="patch_40">
    <path d="M 543.100707 581.01 
L 555.472616 581.01 
L 555.472616 86.843577 
L 543.100707 86.843577 
z
" clip-path="url(#pad4835094b)" style="fill: #4c72b0; fill-opacity: 0.75; stroke: #ffffff; stroke-width: 0.966234; stroke-linejoin: miter"/>
   </g>
   <g id="patch_41">
    <path d="M 555.472616 581.01 
L 567.844526 581.01 
L 567.844526 117.930843 
L 555.472616 117.930843 
z
" clip-path="url(#pad4835094b)" style="fill: #4c72b0; fill-opacity: 0.75; stroke: #ffffff; stroke-width: 0.966234; stroke-linejoin: miter"/>
   </g>
   <g id="patch_42">
    <path d="M 567.844526 581.01 
L 580.216435 581.01 
L 580.216435 88.4585 
L 567.844526 88.4585 
z
" clip-path="url(#pad4835094b)" style="fill: #4c72b0; fill-opacity: 0.75; stroke: #ffffff; stroke-width: 0.966234; stroke-linejoin: miter"/>
   </g>
   <g id="patch_43">
    <path d="M 580.216435 581.01 
L 592.588345 581.01 
L 592.588345 119.545766 
L 580.216435 119.545766 
z
" clip-path="url(#pad4835094b)" style="fill: #4c72b0; fill-opacity: 0.75; stroke: #ffffff; stroke-width: 0.966234; stroke-linejoin: miter"/>
   </g>
   <g id="patch_44">
    <path d="M 592.588345 581.01 
L 604.960254 581.01 
L 604.960254 105.01146 
L 592.588345 105.01146 
z
" clip-path="url(#pad4835094b)" style="fill: #4c72b0; fill-opacity: 0.75; stroke: #ffffff; stroke-width: 0.966234; stroke-linejoin: miter"/>
   </g>
   <g id="patch_45">
    <path d="M 604.960254 581.01 
L 617.332163 581.01 
L 617.332163 103.396537 
L 604.960254 103.396537 
z
" clip-path="url(#pad4835094b)" style="fill: #4c72b0; fill-opacity: 0.75; stroke: #ffffff; stroke-width: 0.966234; stroke-linejoin: miter"/>
   </g>
   <g id="patch_46">
    <path d="M 617.332163 581.01 
L 629.704073 581.01 
L 629.704073 115.508459 
L 617.332163 115.508459 
z
" clip-path="url(#pad4835094b)" style="fill: #4c72b0; fill-opacity: 0.75; stroke: #ffffff; stroke-width: 0.966234; stroke-linejoin: miter"/>
   </g>
   <g id="patch_47">
    <path d="M 629.704073 581.01 
L 642.075982 581.01 
L 642.075982 83.21 
L 629.704073 83.21 
z
" clip-path="url(#pad4835094b)" style="fill: #4c72b0; fill-opacity: 0.75; stroke: #ffffff; stroke-width: 0.966234; stroke-linejoin: miter"/>
   </g>
   <g id="patch_48">
    <path d="M 642.075982 581.01 
L 654.447891 581.01 
L 654.447891 130.446496 
L 642.075982 130.446496 
z
" clip-path="url(#pad4835094b)" style="fill: #4c72b0; fill-opacity: 0.75; stroke: #ffffff; stroke-width: 0.966234; stroke-linejoin: miter"/>
   </g>
   <g id="patch_49">
    <path d="M 654.447891 581.01 
L 666.819801 581.01 
L 666.819801 105.818921 
L 654.447891 105.818921 
z
" clip-path="url(#pad4835094b)" style="fill: #4c72b0; fill-opacity: 0.75; stroke: #ffffff; stroke-width: 0.966234; stroke-linejoin: miter"/>
   </g>
   <g id="patch_50">
    <path d="M 666.819801 581.01 
L 679.19171 581.01 
L 679.19171 137.309919 
L 666.819801 137.309919 
z
" clip-path="url(#pad4835094b)" style="fill: #4c72b0; fill-opacity: 0.75; stroke: #ffffff; stroke-width: 0.966234; stroke-linejoin: miter"/>
   </g>
   <g id="patch_51">
    <path d="M 679.19171 581.01 
L 691.563619 581.01 
L 691.563619 171.223301 
L 679.19171 171.223301 
z
" clip-path="url(#pad4835094b)" style="fill: #4c72b0; fill-opacity: 0.75; stroke: #ffffff; stroke-width: 0.966234; stroke-linejoin: miter"/>
   </g>
   <g id="patch_52">
    <path d="M 691.563619 581.01 
L 703.935529 581.01 
L 703.935529 202.714298 
L 691.563619 202.714298 
z
" clip-path="url(#pad4835094b)" style="fill: #4c72b0; fill-opacity: 0.75; stroke: #ffffff; stroke-width: 0.966234; stroke-linejoin: miter"/>
   </g>
   <g id="patch_53">
    <path d="M 703.935529 581.01 
L 716.307438 581.01 
L 716.307438 216.037413 
L 703.935529 216.037413 
z
" clip-path="url(#pad4835094b)" style="fill: #4c72b0; fill-opacity: 0.75; stroke: #ffffff; stroke-width: 0.966234; stroke-linejoin: miter"/>
   </g>
   <g id="patch_54">
    <path d="M 716.307438 581.01 
L 728.679347 581.01 
L 728.679347 249.547064 
L 716.307438 249.547064 
z
" clip-path="url(#pad4835094b)" style="fill: #4c72b0; fill-opacity: 0.75; stroke: #ffffff; stroke-width: 0.966234; stroke-linejoin: miter"/>
   </g>
   <g id="patch_55">
    <path d="M 728.679347 581.01 
L 741.051257 581.01 
L 741.051257 287.094023 
L 728.679347 287.094023 
z
" clip-path="url(#pad4835094b)" style="fill: #4c72b0; fill-opacity: 0.75; stroke: #ffffff; stroke-width: 0.966234; stroke-linejoin: miter"/>
   </g>
   <g id="patch_56">
    <path d="M 741.051257 581.01 
L 753.423166 581.01 
L 753.423166 304.454444 
L 741.051257 304.454444 
z
" clip-path="url(#pad4835094b)" style="fill: #4c72b0; fill-opacity: 0.75; stroke: #ffffff; stroke-width: 0.966234; stroke-linejoin: miter"/>
   </g>
   <g id="patch_57">
    <path d="M 753.423166 581.01 
L 765.795076 581.01 
L 765.795076 324.640981 
L 753.423166 324.640981 
z
" clip-path="url(#pad4835094b)" style="fill: #4c72b0; fill-opacity: 0.75; stroke: #ffffff; stroke-width: 0.966234; stroke-linejoin: miter"/>
   </g>
   <g id="patch_58">
    <path d="M 765.795076 581.01 
L 778.166985 581.01 
L 778.166985 321.007405 
L 765.795076 321.007405 
z
" clip-path="url(#pad4835094b)" style="fill: #4c72b0; fill-opacity: 0.75; stroke: #ffffff; stroke-width: 0.966234; stroke-linejoin: miter"/>
   </g>
   <g id="patch_59">
    <path d="M 778.166985 581.01 
L 790.538894 581.01 
L 790.538894 359.765556 
L 778.166985 359.765556 
z
" clip-path="url(#pad4835094b)" style="fill: #4c72b0; fill-opacity: 0.75; stroke: #ffffff; stroke-width: 0.966234; stroke-linejoin: miter"/>
   </g>
   <g id="patch_60">
    <path d="M 790.538894 581.01 
L 802.910804 581.01 
L 802.910804 362.591671 
L 790.538894 362.591671 
z
" clip-path="url(#pad4835094b)" style="fill: #4c72b0; fill-opacity: 0.75; stroke: #ffffff; stroke-width: 0.966234; stroke-linejoin: miter"/>
   </g>
   <g id="patch_61">
    <path d="M 802.910804 581.01 
L 815.282713 581.01 
L 815.282713 387.622976 
L 802.910804 387.622976 
z
" clip-path="url(#pad4835094b)" style="fill: #4c72b0; fill-opacity: 0.75; stroke: #ffffff; stroke-width: 0.966234; stroke-linejoin: miter"/>
   </g>
   <g id="patch_62">
    <path d="M 815.282713 581.01 
L 827.654622 581.01 
L 827.654622 390.852822 
L 815.282713 390.852822 
z
" clip-path="url(#pad4835094b)" style="fill: #4c72b0; fill-opacity: 0.75; stroke: #ffffff; stroke-width: 0.966234; stroke-linejoin: miter"/>
   </g>
   <g id="patch_63">
    <path d="M 827.654622 581.01 
L 840.026532 581.01 
L 840.026532 416.287859 
L 827.654622 416.287859 
z
" clip-path="url(#pad4835094b)" style="fill: #4c72b0; fill-opacity: 0.75; stroke: #ffffff; stroke-width: 0.966234; stroke-linejoin: miter"/>
   </g>
   <g id="patch_64">
    <path d="M 840.026532 581.01 
L 852.398441 581.01 
L 852.398441 419.921436 
L 840.026532 419.921436 
z
" clip-path="url(#pad4835094b)" style="fill: #4c72b0; fill-opacity: 0.75; stroke: #ffffff; stroke-width: 0.966234; stroke-linejoin: miter"/>
   </g>
   <g id="patch_65">
    <path d="M 852.398441 581.01 
L 864.77035 581.01 
L 864.77035 428.399781 
L 852.398441 428.399781 
z
" clip-path="url(#pad4835094b)" style="fill: #4c72b0; fill-opacity: 0.75; stroke: #ffffff; stroke-width: 0.966234; stroke-linejoin: miter"/>
   </g>
   <g id="patch_66">
    <path d="M 864.77035 581.01 
L 877.14226 581.01 
L 877.14226 445.356472 
L 864.77035 445.356472 
z
" clip-path="url(#pad4835094b)" style="fill: #4c72b0; fill-opacity: 0.75; stroke: #ffffff; stroke-width: 0.966234; stroke-linejoin: miter"/>
   </g>
   <g id="patch_67">
    <path d="M 877.14226 581.01 
L 889.514169 581.01 
L 889.514169 431.225896 
L 877.14226 431.225896 
z
" clip-path="url(#pad4835094b)" style="fill: #4c72b0; fill-opacity: 0.75; stroke: #ffffff; stroke-width: 0.966234; stroke-linejoin: miter"/>
   </g>
   <g id="patch_68">
    <path d="M 889.514169 581.01 
L 901.886078 581.01 
L 901.886078 461.909432 
L 889.514169 461.909432 
z
" clip-path="url(#pad4835094b)" style="fill: #4c72b0; fill-opacity: 0.75; stroke: #ffffff; stroke-width: 0.966234; stroke-linejoin: miter"/>
   </g>
   <g id="patch_69">
    <path d="M 901.886078 581.01 
L 914.257988 581.01 
L 914.257988 468.369124 
L 901.886078 468.369124 
z
" clip-path="url(#pad4835094b)" style="fill: #4c72b0; fill-opacity: 0.75; stroke: #ffffff; stroke-width: 0.966234; stroke-linejoin: miter"/>
   </g>
   <g id="patch_70">
    <path d="M 914.257988 581.01 
L 926.629897 581.01 
L 926.629897 488.15193 
L 914.257988 488.15193 
z
" clip-path="url(#pad4835094b)" style="fill: #4c72b0; fill-opacity: 0.75; stroke: #ffffff; stroke-width: 0.966234; stroke-linejoin: miter"/>
   </g>
   <g id="patch_71">
    <path d="M 926.629897 581.01 
L 939.001807 581.01 
L 939.001807 499.456391 
L 926.629897 499.456391 
z
" clip-path="url(#pad4835094b)" style="fill: #4c72b0; fill-opacity: 0.75; stroke: #ffffff; stroke-width: 0.966234; stroke-linejoin: miter"/>
   </g>
   <g id="patch_72">
    <path d="M 939.001807 581.01 
L 951.373716 581.01 
L 951.373716 525.295158 
L 939.001807 525.295158 
z
" clip-path="url(#pad4835094b)" style="fill: #4c72b0; fill-opacity: 0.75; stroke: #ffffff; stroke-width: 0.966234; stroke-linejoin: miter"/>
   </g>
   <g id="patch_73">
    <path d="M 951.373716 581.01 
L 963.745625 581.01 
L 963.745625 526.910081 
L 951.373716 526.910081 
z
" clip-path="url(#pad4835094b)" style="fill: #4c72b0; fill-opacity: 0.75; stroke: #ffffff; stroke-width: 0.966234; stroke-linejoin: miter"/>
   </g>
   <g id="patch_74">
    <path d="M 963.745625 581.01 
L 976.117535 581.01 
L 976.117535 540.636926 
L 963.745625 540.636926 
z
" clip-path="url(#pad4835094b)" style="fill: #4c72b0; fill-opacity: 0.75; stroke: #ffffff; stroke-width: 0.966234; stroke-linejoin: miter"/>
   </g>
   <g id="patch_75">
    <path d="M 976.117535 581.01 
L 988.489444 581.01 
L 988.489444 546.692887 
L 976.117535 546.692887 
z
" clip-path="url(#pad4835094b)" style="fill: #4c72b0; fill-opacity: 0.75; stroke: #ffffff; stroke-width: 0.966234; stroke-linejoin: miter"/>
   </g>
   <g id="patch_76">
    <path d="M 988.489444 581.01 
L 1000.861353 581.01 
L 1000.861353 557.593617 
L 988.489444 557.593617 
z
" clip-path="url(#pad4835094b)" style="fill: #4c72b0; fill-opacity: 0.75; stroke: #ffffff; stroke-width: 0.966234; stroke-linejoin: miter"/>
   </g>
   <g id="patch_77">
    <path d="M 1000.861353 581.01 
L 1013.233263 581.01 
L 1013.233263 564.86077 
L 1000.861353 564.86077 
z
" clip-path="url(#pad4835094b)" style="fill: #4c72b0; fill-opacity: 0.75; stroke: #ffffff; stroke-width: 0.966234; stroke-linejoin: miter"/>
   </g>
   <g id="patch_78">
    <path d="M 1013.233263 581.01 
L 1025.605172 581.01 
L 1025.605172 566.879424 
L 1013.233263 566.879424 
z
" clip-path="url(#pad4835094b)" style="fill: #4c72b0; fill-opacity: 0.75; stroke: #ffffff; stroke-width: 0.966234; stroke-linejoin: miter"/>
   </g>
   <g id="patch_79">
    <path d="M 1025.605172 581.01 
L 1037.977081 581.01 
L 1037.977081 571.724193 
L 1025.605172 571.724193 
z
" clip-path="url(#pad4835094b)" style="fill: #4c72b0; fill-opacity: 0.75; stroke: #ffffff; stroke-width: 0.966234; stroke-linejoin: miter"/>
   </g>
   <g id="patch_80">
    <path d="M 1037.977081 581.01 
L 1050.348991 581.01 
L 1050.348991 575.35777 
L 1037.977081 575.35777 
z
" clip-path="url(#pad4835094b)" style="fill: #4c72b0; fill-opacity: 0.75; stroke: #ffffff; stroke-width: 0.966234; stroke-linejoin: miter"/>
   </g>
   <g id="patch_81">
    <path d="M 1050.348991 581.01 
L 1062.7209 581.01 
L 1062.7209 575.35777 
L 1050.348991 575.35777 
z
" clip-path="url(#pad4835094b)" style="fill: #4c72b0; fill-opacity: 0.75; stroke: #ffffff; stroke-width: 0.966234; stroke-linejoin: miter"/>
   </g>
   <g id="patch_82">
    <path d="M 1062.7209 581.01 
L 1075.092809 581.01 
L 1075.092809 579.395077 
L 1062.7209 579.395077 
z
" clip-path="url(#pad4835094b)" style="fill: #4c72b0; fill-opacity: 0.75; stroke: #ffffff; stroke-width: 0.966234; stroke-linejoin: miter"/>
   </g>
   <g id="patch_83">
    <path d="M 1075.092809 581.01 
L 1087.464719 581.01 
L 1087.464719 579.798808 
L 1075.092809 579.798808 
z
" clip-path="url(#pad4835094b)" style="fill: #4c72b0; fill-opacity: 0.75; stroke: #ffffff; stroke-width: 0.966234; stroke-linejoin: miter"/>
   </g>
   <g id="patch_84">
    <path d="M 1087.464719 581.01 
L 1099.836628 581.01 
L 1099.836628 579.395077 
L 1087.464719 579.395077 
z
" clip-path="url(#pad4835094b)" style="fill: #4c72b0; fill-opacity: 0.75; stroke: #ffffff; stroke-width: 0.966234; stroke-linejoin: miter"/>
   </g>
   <g id="patch_85">
    <path d="M 1099.836628 581.01 
L 1112.208538 581.01 
L 1112.208538 581.01 
L 1099.836628 581.01 
z
" clip-path="url(#pad4835094b)" style="fill: #4c72b0; fill-opacity: 0.75; stroke: #ffffff; stroke-width: 0.966234; stroke-linejoin: miter"/>
   </g>
   <g id="patch_86">
    <path d="M 1112.208538 581.01 
L 1124.580447 581.01 
L 1124.580447 580.606269 
L 1112.208538 580.606269 
z
" clip-path="url(#pad4835094b)" style="fill: #4c72b0; fill-opacity: 0.75; stroke: #ffffff; stroke-width: 0.966234; stroke-linejoin: miter"/>
   </g>
   <g id="patch_87">
    <path d="M 91.526016 581.01 
L 91.526016 58.32 
" style="fill: none; stroke: #ffffff; stroke-width: 1.875; stroke-linejoin: miter; stroke-linecap: square"/>
   </g>
   <g id="patch_88">
    <path d="M 1118.394492 581.01 
L 1118.394492 58.32 
" style="fill: none; stroke: #ffffff; stroke-width: 1.875; stroke-linejoin: miter; stroke-linecap: square"/>
   </g>
   <g id="patch_89">
    <path d="M 91.526016 581.01 
L 1118.394492 581.01 
" style="fill: none; stroke: #ffffff; stroke-width: 1.875; stroke-linejoin: miter; stroke-linecap: square"/>
   </g>
   <g id="patch_90">
    <path d="M 91.526016 58.32 
L 1118.394492 58.32 
" style="fill: none; stroke: #ffffff; stroke-width: 1.875; stroke-linejoin: miter; stroke-linecap: square"/>
   </g>
  </g>
  <g id="text_19">
   <!-- Распределение возрастов всех респондентов -->
   <g style="fill: #262626" transform="translate(316.449 28.08) scale(0.216 -0.216)">
    <defs>
     <path id="Actay-Regular-420" d="M 493 0 
L 493 4480 
L 2336 4480 
Q 3053 4480 3545 4048 
Q 4038 3616 4038 2957 
Q 4038 2323 3529 1875 
Q 3021 1427 2336 1427 
L 1005 1427 
L 1005 0 
L 493 0 
z
M 3526 2957 
Q 3526 3405 3187 3702 
Q 2848 4000 2336 4000 
L 1005 4000 
L 1005 1907 
L 2336 1907 
Q 2829 1907 3177 2211 
Q 3526 2515 3526 2957 
z
" transform="scale(0.015625)"/>
     <path id="Actay-Regular-43f" d="M 493 3200 
L 3603 3200 
L 3603 0 
L 3091 0 
L 3091 2720 
L 1005 2720 
L 1005 0 
L 493 0 
L 493 3200 
z
" transform="scale(0.015625)"/>
     <path id="Actay-Regular-434" d="M 275 448 
L 755 448 
Q 1120 1139 1120 1997 
L 1120 3200 
L 3603 3200 
L 3603 448 
L 4205 448 
L 4205 -832 
L 3718 -832 
L 3718 0 
L 749 0 
L 749 -832 
L 275 -832 
L 275 448 
z
M 1254 448 
L 3123 448 
L 3123 2758 
L 1600 2758 
L 1600 1997 
Q 1600 1133 1254 448 
z
" transform="scale(0.015625)"/>
     <path id="Actay-Regular-43d" d="M 493 0 
L 493 3200 
L 1005 3200 
L 1005 1850 
L 3206 1850 
L 3206 3200 
L 3718 3200 
L 3718 0 
L 3206 0 
L 3206 1357 
L 1005 1357 
L 1005 0 
L 493 0 
z
" transform="scale(0.015625)"/>
     <path id="Actay-Regular-20" transform="scale(0.015625)"/>
     <path id="Actay-Regular-445" d="M 1894 1619 
L 3181 0 
L 2573 0 
L 1594 1235 
L 614 0 
L 0 0 
L 1286 1619 
L 26 3200 
L 640 3200 
L 1594 2003 
L 2541 3200 
L 3149 3200 
L 1894 1619 
z
" transform="scale(0.015625)"/>
    </defs>
    <use xlink:href="#Actay-Regular-420"/>
    <use xlink:href="#Actay-Regular-430" x="67.399994"/>
    <use xlink:href="#Actay-Regular-441" x="130.899979"/>
    <use xlink:href="#Actay-Regular-43f" x="191.199966"/>
    <use xlink:href="#Actay-Regular-440" x="253.699951"/>
    <use xlink:href="#Actay-Regular-435" x="317.199936"/>
    <use xlink:href="#Actay-Regular-434" x="377.299927"/>
    <use xlink:href="#Actay-Regular-435" x="447.199921"/>
    <use xlink:href="#Actay-Regular-43b" x="507.299911"/>
    <use xlink:href="#Actay-Regular-435" x="576.699905"/>
    <use xlink:href="#Actay-Regular-43d" x="636.799896"/>
    <use xlink:href="#Actay-Regular-438" x="702.399887"/>
    <use xlink:href="#Actay-Regular-435" x="767.499878"/>
    <use xlink:href="#Actay-Regular-20" x="827.599869"/>
    <use xlink:href="#Actay-Regular-432" x="852.599854"/>
    <use xlink:href="#Actay-Regular-43e" x="909.29985"/>
    <use xlink:href="#Actay-Regular-437" x="970.399841"/>
    <use xlink:href="#Actay-Regular-440" x="1026.099838"/>
    <use xlink:href="#Actay-Regular-430" x="1089.599823"/>
    <use xlink:href="#Actay-Regular-441" x="1153.099808"/>
    <use xlink:href="#Actay-Regular-442" x="1213.399796"/>
    <use xlink:href="#Actay-Regular-43e" x="1267.799789"/>
    <use xlink:href="#Actay-Regular-432" x="1328.89978"/>
    <use xlink:href="#Actay-Regular-20" x="1385.599777"/>
    <use xlink:href="#Actay-Regular-432" x="1410.599762"/>
    <use xlink:href="#Actay-Regular-441" x="1467.299759"/>
    <use xlink:href="#Actay-Regular-435" x="1527.599747"/>
    <use xlink:href="#Actay-Regular-445" x="1587.699738"/>
    <use xlink:href="#Actay-Regular-20" x="1637.399734"/>
    <use xlink:href="#Actay-Regular-440" x="1662.399719"/>
    <use xlink:href="#Actay-Regular-435" x="1725.899704"/>
    <use xlink:href="#Actay-Regular-441" x="1785.999695"/>
    <use xlink:href="#Actay-Regular-43f" x="1846.299683"/>
    <use xlink:href="#Actay-Regular-43e" x="1908.799667"/>
    <use xlink:href="#Actay-Regular-43d" x="1969.899658"/>
    <use xlink:href="#Actay-Regular-434" x="2035.499649"/>
    <use xlink:href="#Actay-Regular-435" x="2105.399643"/>
    <use xlink:href="#Actay-Regular-43d" x="2165.499634"/>
    <use xlink:href="#Actay-Regular-442" x="2231.099625"/>
    <use xlink:href="#Actay-Regular-43e" x="2285.499619"/>
    <use xlink:href="#Actay-Regular-432" x="2346.599609"/>
   </g>
  </g>
 </g>
 <defs>
  <clipPath id="pad4835094b">
   <rect x="91.526016" y="58.32" width="1026.868477" height="522.69"/>
  </clipPath>
 </defs>
</svg>
