<?xml version="1.0" encoding="utf-8" standalone="no"?>
<!DOCTYPE svg PUBLIC "-//W3C//DTD SVG 1.1//EN"
  "http://www.w3.org/Graphics/SVG/1.1/DTD/svg11.dtd">
<svg xmlns:xlink="http://www.w3.org/1999/xlink" width="1152pt" height="648pt" viewBox="0 0 1152 648" xmlns="http://www.w3.org/2000/svg" version="1.1">
 <metadata>
  <rdf:RDF xmlns:dc="http://purl.org/dc/elements/1.1/" xmlns:cc="http://creativecommons.org/ns#" xmlns:rdf="http://www.w3.org/1999/02/22-rdf-syntax-ns#">
   <cc:Work>
    <dc:type rdf:resource="http://purl.org/dc/dcmitype/StillImage"/>
    <dc:date>2023-12-19T12:53:47.513477</dc:date>
    <dc:format>image/svg+xml</dc:format>
    <dc:creator>
     <cc:Agent>
      <dc:title>Matplotlib v3.8.1, https://matplotlib.org/</dc:title>
     </cc:Agent>
    </dc:creator>
   </cc:Work>
  </rdf:RDF>
 </metadata>
 <defs>
  <style type="text/css">*{stroke-linejoin: round; stroke-linecap: butt}</style>
 </defs>
 <g id="figure_1">
  <g id="patch_1">
   <path d="M 0 648 
L 1152 648 
L 1152 0 
L 0 0 
z
" style="fill: #ffffff"/>
  </g>
  <g id="axes_1">
   <g id="patch_2">
    <path d="M 68.642188 600.776875 
L 1132.56 600.776875 
L 1132.56 60.088774 
L 68.642188 60.088774 
z
" style="fill: #eaeaf2"/>
   </g>
   <g id="matplotlib.axis_1">
    <g id="xtick_1">
     <g id="text_1">
      <!-- Школа -->
      <g style="fill: #262626" transform="translate(176.564805 625.087266) scale(0.165 -0.165)">
       <defs>
        <path id="ArialMT-428" d="M 503 4581 
L 1109 4581 
L 1109 541 
L 2631 541 
L 2631 4581 
L 3238 4581 
L 3238 541 
L 4759 541 
L 4759 4581 
L 5366 4581 
L 5366 0 
L 503 0 
L 503 4581 
z
" transform="scale(0.015625)"/>
        <path id="ArialMT-43a" d="M 419 3319 
L 981 3319 
L 981 1884 
Q 1250 1884 1358 1987 
Q 1466 2091 1675 2588 
Q 1841 2981 1944 3106 
Q 2047 3231 2181 3275 
Q 2316 3319 2613 3319 
L 2725 3319 
L 2725 2853 
L 2569 2856 
Q 2347 2856 2284 2791 
Q 2219 2722 2084 2381 
Q 1956 2056 1850 1931 
Q 1744 1806 1522 1703 
Q 1884 1606 2234 1028 
L 2850 0 
L 2231 0 
L 1631 1028 
Q 1447 1338 1309 1436 
Q 1172 1534 981 1534 
L 981 0 
L 419 0 
L 419 3319 
z
" transform="scale(0.015625)"/>
        <path id="ArialMT-43e" d="M 213 1659 
Q 213 2581 725 3025 
Q 1153 3394 1769 3394 
Q 2453 3394 2887 2945 
Q 3322 2497 3322 1706 
Q 3322 1066 3130 698 
Q 2938 331 2570 128 
Q 2203 -75 1769 -75 
Q 1072 -75 642 372 
Q 213 819 213 1659 
z
M 791 1659 
Q 791 1022 1069 705 
Q 1347 388 1769 388 
Q 2188 388 2466 706 
Q 2744 1025 2744 1678 
Q 2744 2294 2464 2611 
Q 2184 2928 1769 2928 
Q 1347 2928 1069 2612 
Q 791 2297 791 1659 
z
" transform="scale(0.015625)"/>
        <path id="ArialMT-43b" d="M 697 3319 
L 3309 3319 
L 3309 0 
L 2750 0 
L 2750 2853 
L 1259 2853 
L 1259 1200 
Q 1259 622 1221 437 
Q 1184 253 1015 115 
Q 847 -22 528 -22 
Q 331 -22 75 3 
L 75 472 
L 322 472 
Q 497 472 572 508 
Q 647 544 672 622 
Q 697 700 697 1131 
L 697 3319 
z
" transform="scale(0.015625)"/>
        <path id="ArialMT-430" d="M 2588 409 
Q 2275 144 1986 34 
Q 1697 -75 1366 -75 
Q 819 -75 525 192 
Q 231 459 231 875 
Q 231 1119 342 1320 
Q 453 1522 633 1644 
Q 813 1766 1038 1828 
Q 1203 1872 1538 1913 
Q 2219 1994 2541 2106 
Q 2544 2222 2544 2253 
Q 2544 2597 2384 2738 
Q 2169 2928 1744 2928 
Q 1347 2928 1158 2789 
Q 969 2650 878 2297 
L 328 2372 
Q 403 2725 575 2942 
Q 747 3159 1072 3276 
Q 1397 3394 1825 3394 
Q 2250 3394 2515 3294 
Q 2781 3194 2906 3042 
Q 3031 2891 3081 2659 
Q 3109 2516 3109 2141 
L 3109 1391 
Q 3109 606 3145 398 
Q 3181 191 3288 0 
L 2700 0 
Q 2613 175 2588 409 
z
M 2541 1666 
Q 2234 1541 1622 1453 
Q 1275 1403 1131 1340 
Q 988 1278 909 1158 
Q 831 1038 831 891 
Q 831 666 1001 516 
Q 1172 366 1500 366 
Q 1825 366 2078 508 
Q 2331 650 2450 897 
Q 2541 1088 2541 1459 
L 2541 1666 
z
" transform="scale(0.015625)"/>
       </defs>
       <use xlink:href="#ArialMT-428"/>
       <use xlink:href="#ArialMT-43a" x="91.650391"/>
       <use xlink:href="#ArialMT-43e" x="136.525391"/>
       <use xlink:href="#ArialMT-43b" x="189.890625"/>
       <use xlink:href="#ArialMT-430" x="248.240234"/>
      </g>
     </g>
    </g>
    <g id="xtick_2">
     <g id="text_2">
      <!-- Техникум -->
      <g style="fill: #262626" transform="translate(431.939141 625.087266) scale(0.165 -0.165)">
       <defs>
        <path id="ArialMT-422" d="M 1659 0 
L 1659 4041 
L 150 4041 
L 150 4581 
L 3781 4581 
L 3781 4041 
L 2266 4041 
L 2266 0 
L 1659 0 
z
" transform="scale(0.015625)"/>
        <path id="ArialMT-435" d="M 2694 1069 
L 3275 997 
Q 3138 488 2766 206 
Q 2394 -75 1816 -75 
Q 1088 -75 661 373 
Q 234 822 234 1631 
Q 234 2469 665 2931 
Q 1097 3394 1784 3394 
Q 2450 3394 2872 2941 
Q 3294 2488 3294 1666 
Q 3294 1616 3291 1516 
L 816 1516 
Q 847 969 1125 678 
Q 1403 388 1819 388 
Q 2128 388 2347 550 
Q 2566 713 2694 1069 
z
M 847 1978 
L 2700 1978 
Q 2663 2397 2488 2606 
Q 2219 2931 1791 2931 
Q 1403 2931 1139 2672 
Q 875 2413 847 1978 
z
" transform="scale(0.015625)"/>
        <path id="ArialMT-445" d="M 47 0 
L 1259 1725 
L 138 3319 
L 841 3319 
L 1350 2541 
Q 1494 2319 1581 2169 
Q 1719 2375 1834 2534 
L 2394 3319 
L 3066 3319 
L 1919 1756 
L 3153 0 
L 2463 0 
L 1781 1031 
L 1600 1309 
L 728 0 
L 47 0 
z
" transform="scale(0.015625)"/>
        <path id="ArialMT-43d" d="M 425 3319 
L 988 3319 
L 988 1938 
L 2547 1938 
L 2547 3319 
L 3109 3319 
L 3109 0 
L 2547 0 
L 2547 1472 
L 988 1472 
L 988 0 
L 425 0 
L 425 3319 
z
" transform="scale(0.015625)"/>
        <path id="ArialMT-438" d="M 422 3319 
L 984 3319 
L 984 788 
L 2544 3319 
L 3150 3319 
L 3150 0 
L 2588 0 
L 2588 2516 
L 1028 0 
L 422 0 
L 422 3319 
z
" transform="scale(0.015625)"/>
        <path id="ArialMT-443" d="M 397 -1278 
L 334 -750 
Q 519 -800 656 -800 
Q 844 -800 956 -737 
Q 1069 -675 1141 -563 
Q 1194 -478 1313 -144 
Q 1328 -97 1363 -6 
L 103 3319 
L 709 3319 
L 1400 1397 
Q 1534 1031 1641 628 
Q 1738 1016 1872 1384 
L 2581 3319 
L 3144 3319 
L 1881 -56 
Q 1678 -603 1566 -809 
Q 1416 -1088 1222 -1217 
Q 1028 -1347 759 -1347 
Q 597 -1347 397 -1278 
z
" transform="scale(0.015625)"/>
        <path id="ArialMT-43c" d="M 438 3319 
L 1313 3319 
L 2184 663 
L 3153 3319 
L 3963 3319 
L 3963 0 
L 3400 0 
L 3400 2672 
L 2419 0 
L 1916 0 
L 988 2800 
L 988 0 
L 438 0 
L 438 3319 
z
" transform="scale(0.015625)"/>
       </defs>
       <use xlink:href="#ArialMT-422"/>
       <use xlink:href="#ArialMT-435" x="55.458984"/>
       <use xlink:href="#ArialMT-445" x="108.824219"/>
       <use xlink:href="#ArialMT-43d" x="158.824219"/>
       <use xlink:href="#ArialMT-438" x="214.048828"/>
       <use xlink:href="#ArialMT-43a" x="269.908203"/>
       <use xlink:href="#ArialMT-443" x="314.783203"/>
       <use xlink:href="#ArialMT-43c" x="363.658203"/>
      </g>
     </g>
    </g>
    <g id="xtick_3">
     <g id="text_3">
      <!-- Институт -->
      <g style="fill: #262626" transform="translate(698.819648 625.087266) scale(0.165 -0.165)">
       <defs>
        <path id="ArialMT-418" d="M 503 4581 
L 1053 4581 
L 1053 953 
L 3491 4581 
L 4100 4581 
L 4100 0 
L 3550 0 
L 3550 3619 
L 1109 0 
L 503 0 
L 503 4581 
z
" transform="scale(0.015625)"/>
        <path id="ArialMT-441" d="M 2588 1216 
L 3141 1144 
Q 3050 572 2676 248 
Q 2303 -75 1759 -75 
Q 1078 -75 664 370 
Q 250 816 250 1647 
Q 250 2184 428 2587 
Q 606 2991 970 3192 
Q 1334 3394 1763 3394 
Q 2303 3394 2647 3120 
Q 2991 2847 3088 2344 
L 2541 2259 
Q 2463 2594 2264 2762 
Q 2066 2931 1784 2931 
Q 1359 2931 1093 2626 
Q 828 2322 828 1663 
Q 828 994 1084 691 
Q 1341 388 1753 388 
Q 2084 388 2306 591 
Q 2528 794 2588 1216 
z
" transform="scale(0.015625)"/>
        <path id="ArialMT-442" d="M 119 3319 
L 2816 3319 
L 2816 2853 
L 1747 2853 
L 1747 0 
L 1188 0 
L 1188 2853 
L 119 2853 
L 119 3319 
z
" transform="scale(0.015625)"/>
       </defs>
       <use xlink:href="#ArialMT-418"/>
       <use xlink:href="#ArialMT-43d" x="71.875"/>
       <use xlink:href="#ArialMT-441" x="127.099609"/>
       <use xlink:href="#ArialMT-442" x="177.099609"/>
       <use xlink:href="#ArialMT-438" x="222.900391"/>
       <use xlink:href="#ArialMT-442" x="278.759766"/>
       <use xlink:href="#ArialMT-443" x="325.685547"/>
       <use xlink:href="#ArialMT-442" x="375.685547"/>
      </g>
     </g>
    </g>
    <g id="xtick_4">
     <g id="text_4">
      <!-- Ученая степень -->
      <g style="fill: #262626" transform="translate(939.233125 625.087266) scale(0.165 -0.165)">
       <defs>
        <path id="ArialMT-423" d="M 31 4581 
L 644 4581 
L 2138 1775 
L 3444 4581 
L 4047 4581 
L 2328 1019 
Q 2006 350 1800 143 
Q 1594 -63 1209 -63 
Q 975 -63 634 47 
L 634 566 
Q 878 425 1150 425 
Q 1372 425 1533 567 
Q 1694 709 1888 1216 
L 31 4581 
z
" transform="scale(0.015625)"/>
        <path id="ArialMT-447" d="M 216 3319 
L 778 3319 
L 778 2691 
Q 778 2284 826 2101 
Q 875 1919 1059 1783 
Q 1244 1647 1522 1647 
Q 1841 1647 2347 1816 
L 2347 3319 
L 2909 3319 
L 2909 0 
L 2347 0 
L 2347 1338 
Q 1828 1175 1378 1175 
Q 1000 1175 711 1367 
Q 422 1559 319 1837 
Q 216 2116 216 2450 
L 216 3319 
z
" transform="scale(0.015625)"/>
        <path id="ArialMT-44f" d="M 3034 3319 
L 3034 0 
L 2475 0 
L 2475 1294 
L 2150 1294 
Q 1853 1294 1708 1217 
Q 1563 1141 1284 725 
L 794 0 
L 97 0 
L 703 894 
Q 981 1303 1256 1356 
Q 775 1422 542 1703 
Q 309 1984 309 2350 
Q 309 2781 614 3050 
Q 919 3319 1497 3319 
L 3034 3319 
z
M 2475 2853 
L 1675 2853 
Q 1172 2853 1026 2697 
Q 881 2541 881 2331 
Q 881 2034 1095 1895 
Q 1309 1756 1853 1756 
L 2475 1756 
L 2475 2853 
z
" transform="scale(0.015625)"/>
        <path id="ArialMT-20" transform="scale(0.015625)"/>
        <path id="ArialMT-43f" d="M 425 3319 
L 3044 3319 
L 3044 0 
L 2481 0 
L 2481 2853 
L 988 2853 
L 988 0 
L 425 0 
L 425 3319 
z
" transform="scale(0.015625)"/>
        <path id="ArialMT-44c" d="M 413 3319 
L 975 3319 
L 975 2022 
L 1688 2022 
Q 2384 2022 2761 1751 
Q 3138 1481 3138 1006 
Q 3138 591 2823 295 
Q 2509 0 1819 0 
L 413 0 
L 413 3319 
z
M 975 463 
L 1566 463 
Q 2100 463 2328 594 
Q 2556 725 2556 1003 
Q 2556 1219 2387 1387 
Q 2219 1556 1641 1556 
L 975 1556 
L 975 463 
z
" transform="scale(0.015625)"/>
       </defs>
       <use xlink:href="#ArialMT-423"/>
       <use xlink:href="#ArialMT-447" x="63.525391"/>
       <use xlink:href="#ArialMT-435" x="115.625"/>
       <use xlink:href="#ArialMT-43d" x="171.240234"/>
       <use xlink:href="#ArialMT-430" x="226.464844"/>
       <use xlink:href="#ArialMT-44f" x="282.080078"/>
       <use xlink:href="#ArialMT-20" x="336.230469"/>
       <use xlink:href="#ArialMT-441" x="364.013672"/>
       <use xlink:href="#ArialMT-442" x="414.013672"/>
       <use xlink:href="#ArialMT-435" x="458.689453"/>
       <use xlink:href="#ArialMT-43f" x="514.304688"/>
       <use xlink:href="#ArialMT-435" x="568.455078"/>
       <use xlink:href="#ArialMT-43d" x="624.070312"/>
       <use xlink:href="#ArialMT-44c" x="679.294922"/>
      </g>
     </g>
    </g>
   </g>
   <g id="matplotlib.axis_2">
    <g id="ytick_1">
     <g id="line2d_1">
      <path d="M 68.642188 600.776875 
L 1132.56 600.776875 
" clip-path="url(#p60a41090cf)" style="fill: none; stroke: #ffffff; stroke-width: 1.5; stroke-linecap: round"/>
     </g>
     <g id="text_5">
      <!-- 0 -->
      <g style="fill: #262626" transform="translate(46.966641 606.68207) scale(0.165 -0.165)">
       <defs>
        <path id="ArialMT-30" d="M 266 2259 
Q 266 3072 433 3567 
Q 600 4063 929 4331 
Q 1259 4600 1759 4600 
Q 2128 4600 2406 4451 
Q 2684 4303 2865 4023 
Q 3047 3744 3150 3342 
Q 3253 2941 3253 2259 
Q 3253 1453 3087 958 
Q 2922 463 2592 192 
Q 2263 -78 1759 -78 
Q 1097 -78 719 397 
Q 266 969 266 2259 
z
M 844 2259 
Q 844 1131 1108 757 
Q 1372 384 1759 384 
Q 2147 384 2411 759 
Q 2675 1134 2675 2259 
Q 2675 3391 2411 3762 
Q 2147 4134 1753 4134 
Q 1366 4134 1134 3806 
Q 844 3388 844 2259 
z
" transform="scale(0.015625)"/>
       </defs>
       <use xlink:href="#ArialMT-30"/>
      </g>
     </g>
    </g>
    <g id="ytick_2">
     <g id="line2d_2">
      <path d="M 68.642188 511.578703 
L 1132.56 511.578703 
" clip-path="url(#p60a41090cf)" style="fill: none; stroke: #ffffff; stroke-width: 1.5; stroke-linecap: round"/>
     </g>
     <g id="text_6">
      <!-- 1000 -->
      <g style="fill: #262626" transform="translate(19.44 517.483898) scale(0.165 -0.165)">
       <defs>
        <path id="ArialMT-31" d="M 2384 0 
L 1822 0 
L 1822 3584 
Q 1619 3391 1289 3197 
Q 959 3003 697 2906 
L 697 3450 
Q 1169 3672 1522 3987 
Q 1875 4303 2022 4600 
L 2384 4600 
L 2384 0 
z
" transform="scale(0.015625)"/>
       </defs>
       <use xlink:href="#ArialMT-31"/>
       <use xlink:href="#ArialMT-30" x="55.615234"/>
       <use xlink:href="#ArialMT-30" x="111.230469"/>
       <use xlink:href="#ArialMT-30" x="166.845703"/>
      </g>
     </g>
    </g>
    <g id="ytick_3">
     <g id="line2d_3">
      <path d="M 68.642188 422.38053 
L 1132.56 422.38053 
" clip-path="url(#p60a41090cf)" style="fill: none; stroke: #ffffff; stroke-width: 1.5; stroke-linecap: round"/>
     </g>
     <g id="text_7">
      <!-- 2000 -->
      <g style="fill: #262626" transform="translate(19.44 428.285726) scale(0.165 -0.165)">
       <defs>
        <path id="ArialMT-32" d="M 3222 541 
L 3222 0 
L 194 0 
Q 188 203 259 391 
Q 375 700 629 1000 
Q 884 1300 1366 1694 
Q 2113 2306 2375 2664 
Q 2638 3022 2638 3341 
Q 2638 3675 2398 3904 
Q 2159 4134 1775 4134 
Q 1369 4134 1125 3890 
Q 881 3647 878 3216 
L 300 3275 
Q 359 3922 746 4261 
Q 1134 4600 1788 4600 
Q 2447 4600 2831 4234 
Q 3216 3869 3216 3328 
Q 3216 3053 3103 2787 
Q 2991 2522 2730 2228 
Q 2469 1934 1863 1422 
Q 1356 997 1212 845 
Q 1069 694 975 541 
L 3222 541 
z
" transform="scale(0.015625)"/>
       </defs>
       <use xlink:href="#ArialMT-32"/>
       <use xlink:href="#ArialMT-30" x="55.615234"/>
       <use xlink:href="#ArialMT-30" x="111.230469"/>
       <use xlink:href="#ArialMT-30" x="166.845703"/>
      </g>
     </g>
    </g>
    <g id="ytick_4">
     <g id="line2d_4">
      <path d="M 68.642188 333.182358 
L 1132.56 333.182358 
" clip-path="url(#p60a41090cf)" style="fill: none; stroke: #ffffff; stroke-width: 1.5; stroke-linecap: round"/>
     </g>
     <g id="text_8">
      <!-- 3000 -->
      <g style="fill: #262626" transform="translate(19.44 339.087553) scale(0.165 -0.165)">
       <defs>
        <path id="ArialMT-33" d="M 269 1209 
L 831 1284 
Q 928 806 1161 595 
Q 1394 384 1728 384 
Q 2125 384 2398 659 
Q 2672 934 2672 1341 
Q 2672 1728 2419 1979 
Q 2166 2231 1775 2231 
Q 1616 2231 1378 2169 
L 1441 2663 
Q 1497 2656 1531 2656 
Q 1891 2656 2178 2843 
Q 2466 3031 2466 3422 
Q 2466 3731 2256 3934 
Q 2047 4138 1716 4138 
Q 1388 4138 1169 3931 
Q 950 3725 888 3313 
L 325 3413 
Q 428 3978 793 4289 
Q 1159 4600 1703 4600 
Q 2078 4600 2393 4439 
Q 2709 4278 2876 4000 
Q 3044 3722 3044 3409 
Q 3044 3113 2884 2869 
Q 2725 2625 2413 2481 
Q 2819 2388 3044 2092 
Q 3269 1797 3269 1353 
Q 3269 753 2831 336 
Q 2394 -81 1725 -81 
Q 1122 -81 723 278 
Q 325 638 269 1209 
z
" transform="scale(0.015625)"/>
       </defs>
       <use xlink:href="#ArialMT-33"/>
       <use xlink:href="#ArialMT-30" x="55.615234"/>
       <use xlink:href="#ArialMT-30" x="111.230469"/>
       <use xlink:href="#ArialMT-30" x="166.845703"/>
      </g>
     </g>
    </g>
    <g id="ytick_5">
     <g id="line2d_5">
      <path d="M 68.642188 243.984186 
L 1132.56 243.984186 
" clip-path="url(#p60a41090cf)" style="fill: none; stroke: #ffffff; stroke-width: 1.5; stroke-linecap: round"/>
     </g>
     <g id="text_9">
      <!-- 4000 -->
      <g style="fill: #262626" transform="translate(19.44 249.889381) scale(0.165 -0.165)">
       <defs>
        <path id="ArialMT-34" d="M 2069 0 
L 2069 1097 
L 81 1097 
L 81 1613 
L 2172 4581 
L 2631 4581 
L 2631 1613 
L 3250 1613 
L 3250 1097 
L 2631 1097 
L 2631 0 
L 2069 0 
z
M 2069 1613 
L 2069 3678 
L 634 1613 
L 2069 1613 
z
" transform="scale(0.015625)"/>
       </defs>
       <use xlink:href="#ArialMT-34"/>
       <use xlink:href="#ArialMT-30" x="55.615234"/>
       <use xlink:href="#ArialMT-30" x="111.230469"/>
       <use xlink:href="#ArialMT-30" x="166.845703"/>
      </g>
     </g>
    </g>
    <g id="ytick_6">
     <g id="line2d_6">
      <path d="M 68.642188 154.786013 
L 1132.56 154.786013 
" clip-path="url(#p60a41090cf)" style="fill: none; stroke: #ffffff; stroke-width: 1.5; stroke-linecap: round"/>
     </g>
     <g id="text_10">
      <!-- 5000 -->
      <g style="fill: #262626" transform="translate(19.44 160.691209) scale(0.165 -0.165)">
       <defs>
        <path id="ArialMT-35" d="M 266 1200 
L 856 1250 
Q 922 819 1161 601 
Q 1400 384 1738 384 
Q 2144 384 2425 690 
Q 2706 997 2706 1503 
Q 2706 1984 2436 2262 
Q 2166 2541 1728 2541 
Q 1456 2541 1237 2417 
Q 1019 2294 894 2097 
L 366 2166 
L 809 4519 
L 3088 4519 
L 3088 3981 
L 1259 3981 
L 1013 2750 
Q 1425 3038 1878 3038 
Q 2478 3038 2890 2622 
Q 3303 2206 3303 1553 
Q 3303 931 2941 478 
Q 2500 -78 1738 -78 
Q 1113 -78 717 272 
Q 322 622 266 1200 
z
" transform="scale(0.015625)"/>
       </defs>
       <use xlink:href="#ArialMT-35"/>
       <use xlink:href="#ArialMT-30" x="55.615234"/>
       <use xlink:href="#ArialMT-30" x="111.230469"/>
       <use xlink:href="#ArialMT-30" x="166.845703"/>
      </g>
     </g>
    </g>
    <g id="ytick_7">
     <g id="line2d_7">
      <path d="M 68.642188 65.587841 
L 1132.56 65.587841 
" clip-path="url(#p60a41090cf)" style="fill: none; stroke: #ffffff; stroke-width: 1.5; stroke-linecap: round"/>
     </g>
     <g id="text_11">
      <!-- 6000 -->
      <g style="fill: #262626" transform="translate(19.44 71.493036) scale(0.165 -0.165)">
       <defs>
        <path id="ArialMT-36" d="M 3184 3459 
L 2625 3416 
Q 2550 3747 2413 3897 
Q 2184 4138 1850 4138 
Q 1581 4138 1378 3988 
Q 1113 3794 959 3422 
Q 806 3050 800 2363 
Q 1003 2672 1297 2822 
Q 1591 2972 1913 2972 
Q 2475 2972 2870 2558 
Q 3266 2144 3266 1488 
Q 3266 1056 3080 686 
Q 2894 316 2569 119 
Q 2244 -78 1831 -78 
Q 1128 -78 684 439 
Q 241 956 241 2144 
Q 241 3472 731 4075 
Q 1159 4600 1884 4600 
Q 2425 4600 2770 4297 
Q 3116 3994 3184 3459 
z
M 888 1484 
Q 888 1194 1011 928 
Q 1134 663 1356 523 
Q 1578 384 1822 384 
Q 2178 384 2434 671 
Q 2691 959 2691 1453 
Q 2691 1928 2437 2201 
Q 2184 2475 1800 2475 
Q 1419 2475 1153 2201 
Q 888 1928 888 1484 
z
" transform="scale(0.015625)"/>
       </defs>
       <use xlink:href="#ArialMT-36"/>
       <use xlink:href="#ArialMT-30" x="55.615234"/>
       <use xlink:href="#ArialMT-30" x="111.230469"/>
       <use xlink:href="#ArialMT-30" x="166.845703"/>
      </g>
     </g>
    </g>
   </g>
   <g id="patch_3">
    <path d="M 95.240133 600.776875 
L 308.023695 600.776875 
L 308.023695 353.697938 
L 95.240133 353.697938 
z
" clip-path="url(#p60a41090cf)" style="fill: #759bce; stroke: #ffffff; stroke-width: 1.5; stroke-linejoin: miter"/>
   </g>
   <g id="patch_4">
    <path d="M 361.219586 600.776875 
L 574.003148 600.776875 
L 574.003148 85.835826 
L 361.219586 85.835826 
z
" clip-path="url(#p60a41090cf)" style="fill: #6584ad; stroke: #ffffff; stroke-width: 1.5; stroke-linejoin: miter"/>
   </g>
   <g id="patch_5">
    <path d="M 627.199039 600.776875 
L 839.982602 600.776875 
L 839.982602 309.723239 
L 627.199039 309.723239 
z
" clip-path="url(#p60a41090cf)" style="fill: #556c8c; stroke: #ffffff; stroke-width: 1.5; stroke-linejoin: miter"/>
   </g>
   <g id="patch_6">
    <path d="M 893.178492 600.776875 
L 1105.962055 600.776875 
L 1105.962055 594.17621 
L 893.178492 594.17621 
z
" clip-path="url(#p60a41090cf)" style="fill: #45556b; stroke: #ffffff; stroke-width: 1.5; stroke-linejoin: miter"/>
   </g>
   <g id="line2d_8">
    <path clip-path="url(#p60a41090cf)" style="fill: none; stroke: #424242; stroke-width: 3.375; stroke-linecap: round"/>
   </g>
   <g id="line2d_9">
    <path clip-path="url(#p60a41090cf)" style="fill: none; stroke: #424242; stroke-width: 3.375; stroke-linecap: round"/>
   </g>
   <g id="line2d_10">
    <path clip-path="url(#p60a41090cf)" style="fill: none; stroke: #424242; stroke-width: 3.375; stroke-linecap: round"/>
   </g>
   <g id="line2d_11">
    <path clip-path="url(#p60a41090cf)" style="fill: none; stroke: #424242; stroke-width: 3.375; stroke-linecap: round"/>
   </g>
   <g id="patch_7">
    <path d="M 68.642188 600.776875 
L 68.642188 60.088774 
" style="fill: none; stroke: #ffffff; stroke-width: 1.875; stroke-linejoin: miter; stroke-linecap: square"/>
   </g>
   <g id="patch_8">
    <path d="M 1132.56 600.776875 
L 1132.56 60.088774 
" style="fill: none; stroke: #ffffff; stroke-width: 1.875; stroke-linejoin: miter; stroke-linecap: square"/>
   </g>
   <g id="patch_9">
    <path d="M 68.642188 600.776875 
L 1132.56 600.776875 
" style="fill: none; stroke: #ffffff; stroke-width: 1.875; stroke-linejoin: miter; stroke-linecap: square"/>
   </g>
   <g id="patch_10">
    <path d="M 68.642188 60.088774 
L 1132.56 60.088774 
" style="fill: none; stroke: #ffffff; stroke-width: 1.875; stroke-linejoin: miter; stroke-linecap: square"/>
   </g>
  </g>
  <g id="text_12">
   <!-- Распределение уровней образования женщин в декрете -->
   <g style="fill: #262626" transform="translate(292.145625 28.792125) scale(0.216 -0.216)">
    <defs>
     <path id="ArialMT-420" d="M 494 0 
L 494 4581 
L 2222 4581 
Q 2678 4581 2919 4538 
Q 3256 4481 3484 4323 
Q 3713 4166 3852 3881 
Q 3991 3597 3991 3256 
Q 3991 2672 3619 2267 
Q 3247 1863 2275 1863 
L 1100 1863 
L 1100 0 
L 494 0 
z
M 1100 2403 
L 2284 2403 
Q 2872 2403 3119 2622 
Q 3366 2841 3366 3238 
Q 3366 3525 3220 3729 
Q 3075 3934 2838 4000 
Q 2684 4041 2272 4041 
L 1100 4041 
L 1100 2403 
z
" transform="scale(0.015625)"/>
     <path id="ArialMT-440" d="M 422 -1272 
L 422 3319 
L 934 3319 
L 934 2888 
Q 1116 3141 1344 3267 
Q 1572 3394 1897 3394 
Q 2322 3394 2647 3175 
Q 2972 2956 3137 2557 
Q 3303 2159 3303 1684 
Q 3303 1175 3120 767 
Q 2938 359 2589 142 
Q 2241 -75 1856 -75 
Q 1575 -75 1351 44 
Q 1128 163 984 344 
L 984 -1272 
L 422 -1272 
z
M 931 1641 
Q 931 1000 1190 694 
Q 1450 388 1819 388 
Q 2194 388 2461 705 
Q 2728 1022 2728 1688 
Q 2728 2322 2467 2637 
Q 2206 2953 1844 2953 
Q 1484 2953 1207 2617 
Q 931 2281 931 1641 
z
" transform="scale(0.015625)"/>
     <path id="ArialMT-434" d="M 866 3319 
L 3178 3319 
L 3178 463 
L 3538 463 
L 3538 -941 
L 3075 -941 
L 3075 0 
L 463 0 
L 463 -941 
L 0 -941 
L 0 463 
L 297 463 
Q 891 1269 866 3319 
z
M 1334 2853 
Q 1272 1238 834 463 
L 2619 463 
L 2619 2853 
L 1334 2853 
z
" transform="scale(0.015625)"/>
     <path id="ArialMT-432" d="M 425 3319 
L 1722 3319 
Q 2200 3319 2433 3239 
Q 2666 3159 2833 2946 
Q 3000 2734 3000 2438 
Q 3000 2200 2901 2023 
Q 2803 1847 2606 1728 
Q 2841 1650 2995 1436 
Q 3150 1222 3150 928 
Q 3119 456 2812 228 
Q 2506 0 1922 0 
L 425 0 
L 425 3319 
z
M 988 1922 
L 1588 1922 
Q 1947 1922 2081 1959 
Q 2216 1997 2322 2111 
Q 2428 2225 2428 2384 
Q 2428 2647 2242 2750 
Q 2056 2853 1606 2853 
L 988 2853 
L 988 1922 
z
M 988 463 
L 1728 463 
Q 2206 463 2384 573 
Q 2563 684 2572 956 
Q 2572 1116 2469 1252 
Q 2366 1388 2200 1423 
Q 2034 1459 1669 1459 
L 988 1459 
L 988 463 
z
" transform="scale(0.015625)"/>
     <path id="ArialMT-439" d="M 422 3319 
L 984 3319 
L 984 788 
L 2544 3319 
L 3150 3319 
L 3150 0 
L 2588 0 
L 2588 2516 
L 1028 0 
L 422 0 
L 422 3319 
z
M 2374 4575 
L 2759 4575 
Q 2712 4184 2473 3975 
Q 2234 3766 1837 3766 
Q 1437 3766 1198 3973 
Q 959 4181 912 4575 
L 1296 4575 
Q 1340 4363 1469 4258 
Q 1599 4153 1818 4153 
Q 2071 4153 2201 4254 
Q 2331 4356 2374 4575 
z
" transform="scale(0.015625)"/>
     <path id="ArialMT-431" d="M 2853 4691 
L 3350 4684 
Q 3316 4350 3202 4219 
Q 3088 4088 2908 4050 
Q 2728 4013 2203 4013 
Q 1506 4013 1253 3878 
Q 1000 3744 889 3448 
Q 778 3153 766 2688 
Q 978 3003 1262 3161 
Q 1547 3319 1903 3319 
Q 2556 3319 2984 2870 
Q 3413 2422 3413 1656 
Q 3413 1075 3197 703 
Q 2981 331 2686 128 
Q 2391 -75 1881 -75 
Q 1291 -75 962 195 
Q 634 466 459 887 
Q 284 1309 284 2356 
Q 284 3672 729 4128 
Q 1175 4584 2100 4584 
Q 2675 4584 2753 4603 
Q 2831 4622 2853 4691 
z
M 2825 1672 
Q 2825 2191 2579 2522 
Q 2334 2853 1888 2853 
Q 1422 2853 1169 2503 
Q 916 2153 916 1569 
Q 916 991 1195 684 
Q 1475 378 1884 378 
Q 2303 378 2564 733 
Q 2825 1088 2825 1672 
z
" transform="scale(0.015625)"/>
     <path id="ArialMT-437" d="M 1156 1500 
L 1156 1941 
Q 1513 1944 1642 1969 
Q 1772 1994 1887 2119 
Q 2003 2244 2003 2431 
Q 2003 2659 1851 2795 
Q 1700 2931 1459 2931 
Q 984 2931 794 2372 
L 259 2459 
Q 509 3394 1466 3394 
Q 1997 3394 2298 3103 
Q 2600 2813 2600 2409 
Q 2600 2003 2206 1763 
Q 2456 1628 2581 1420 
Q 2706 1213 2706 928 
Q 2706 481 2381 203 
Q 2056 -75 1472 -75 
Q 338 -75 156 934 
L 684 1047 
Q 756 728 976 553 
Q 1197 378 1481 378 
Q 1766 378 1955 539 
Q 2144 700 2144 950 
Q 2144 1144 2025 1287 
Q 1906 1431 1772 1467 
Q 1638 1503 1284 1503 
Q 1256 1503 1156 1500 
z
" transform="scale(0.015625)"/>
     <path id="ArialMT-436" d="M 2428 3319 
L 2428 1884 
Q 2697 1884 2806 1987 
Q 2916 2091 3125 2588 
Q 3322 3059 3478 3191 
Q 3631 3319 3966 3319 
L 4172 3319 
L 4172 2853 
L 4019 2856 
Q 3794 2856 3731 2791 
Q 3666 2722 3531 2381 
Q 3406 2056 3300 1931 
Q 3194 1806 2969 1703 
Q 3334 1606 3681 1028 
L 4300 0 
L 3681 0 
L 3078 1028 
Q 2894 1341 2756 1437 
Q 2619 1534 2428 1534 
L 2428 0 
L 1853 0 
L 1853 1534 
Q 1666 1534 1528 1439 
Q 1391 1344 1206 1028 
L 603 0 
L -16 0 
L 600 1028 
Q 950 1606 1316 1703 
Q 1066 1819 966 1955 
Q 866 2091 666 2603 
Q 597 2775 519 2816 
Q 438 2856 278 2856 
Q 238 2856 113 2853 
L 113 3319 
L 191 3319 
Q 516 3319 648 3280 
Q 781 3241 886 3114 
Q 991 2988 1159 2588 
Q 1366 2097 1473 1990 
Q 1581 1884 1853 1884 
L 1853 3319 
L 2428 3319 
z
" transform="scale(0.015625)"/>
     <path id="ArialMT-449" d="M 441 3319 
L 1003 3319 
L 1003 463 
L 2284 463 
L 2284 3319 
L 2847 3319 
L 2847 463 
L 4131 463 
L 4131 3319 
L 4691 3319 
L 4691 463 
L 5063 463 
L 5063 -941 
L 4597 -941 
L 4597 0 
L 441 0 
L 441 3319 
z
" transform="scale(0.015625)"/>
    </defs>
    <use xlink:href="#ArialMT-420"/>
    <use xlink:href="#ArialMT-430" x="63.324219"/>
    <use xlink:href="#ArialMT-441" x="118.939453"/>
    <use xlink:href="#ArialMT-43f" x="168.939453"/>
    <use xlink:href="#ArialMT-440" x="223.089844"/>
    <use xlink:href="#ArialMT-435" x="278.705078"/>
    <use xlink:href="#ArialMT-434" x="332.070312"/>
    <use xlink:href="#ArialMT-435" x="390.419922"/>
    <use xlink:href="#ArialMT-43b" x="442.660156"/>
    <use xlink:href="#ArialMT-435" x="501.009766"/>
    <use xlink:href="#ArialMT-43d" x="556.625"/>
    <use xlink:href="#ArialMT-438" x="611.849609"/>
    <use xlink:href="#ArialMT-435" x="667.708984"/>
    <use xlink:href="#ArialMT-20" x="723.324219"/>
    <use xlink:href="#ArialMT-443" x="751.107422"/>
    <use xlink:href="#ArialMT-440" x="799.982422"/>
    <use xlink:href="#ArialMT-43e" x="855.597656"/>
    <use xlink:href="#ArialMT-432" x="911.212891"/>
    <use xlink:href="#ArialMT-43d" x="964.337891"/>
    <use xlink:href="#ArialMT-435" x="1019.5625"/>
    <use xlink:href="#ArialMT-439" x="1075.177734"/>
    <use xlink:href="#ArialMT-20" x="1131.037109"/>
    <use xlink:href="#ArialMT-43e" x="1158.820312"/>
    <use xlink:href="#ArialMT-431" x="1214.435547"/>
    <use xlink:href="#ArialMT-440" x="1271.710938"/>
    <use xlink:href="#ArialMT-430" x="1327.326172"/>
    <use xlink:href="#ArialMT-437" x="1381.816406"/>
    <use xlink:href="#ArialMT-43e" x="1426.541016"/>
    <use xlink:href="#ArialMT-432" x="1482.15625"/>
    <use xlink:href="#ArialMT-430" x="1534.15625"/>
    <use xlink:href="#ArialMT-43d" x="1589.771484"/>
    <use xlink:href="#ArialMT-438" x="1644.996094"/>
    <use xlink:href="#ArialMT-44f" x="1700.855469"/>
    <use xlink:href="#ArialMT-20" x="1755.005859"/>
    <use xlink:href="#ArialMT-436" x="1782.789062"/>
    <use xlink:href="#ArialMT-435" x="1849.683594"/>
    <use xlink:href="#ArialMT-43d" x="1905.298828"/>
    <use xlink:href="#ArialMT-449" x="1960.523438"/>
    <use xlink:href="#ArialMT-438" x="2042.798828"/>
    <use xlink:href="#ArialMT-43d" x="2098.658203"/>
    <use xlink:href="#ArialMT-20" x="2153.882812"/>
    <use xlink:href="#ArialMT-432" x="2181.666016"/>
    <use xlink:href="#ArialMT-20" x="2234.791016"/>
    <use xlink:href="#ArialMT-434" x="2262.574219"/>
    <use xlink:href="#ArialMT-435" x="2320.923828"/>
    <use xlink:href="#ArialMT-43a" x="2376.539062"/>
    <use xlink:href="#ArialMT-440" x="2420.289062"/>
    <use xlink:href="#ArialMT-435" x="2475.904297"/>
    <use xlink:href="#ArialMT-442" x="2528.144531"/>
    <use xlink:href="#ArialMT-435" x="2572.820312"/>
   </g>
  </g>
 </g>
 <defs>
  <clipPath id="p60a41090cf">
   <rect x="68.642188" y="60.088774" width="1063.917812" height="540.688101"/>
  </clipPath>
 </defs>
</svg>
