<?xml version="1.0" encoding="utf-8" standalone="no"?>
<!DOCTYPE svg PUBLIC "-//W3C//DTD SVG 1.1//EN"
  "http://www.w3.org/Graphics/SVG/1.1/DTD/svg11.dtd">
<svg xmlns:xlink="http://www.w3.org/1999/xlink" width="1224pt" height="360pt" viewBox="0 0 1224 360" xmlns="http://www.w3.org/2000/svg" version="1.1">
 <metadata>
  <rdf:RDF xmlns:dc="http://purl.org/dc/elements/1.1/" xmlns:cc="http://creativecommons.org/ns#" xmlns:rdf="http://www.w3.org/1999/02/22-rdf-syntax-ns#">
   <cc:Work>
    <dc:type rdf:resource="http://purl.org/dc/dcmitype/StillImage"/>
    <dc:date>2024-05-04T16:39:44.497870</dc:date>
    <dc:format>image/svg+xml</dc:format>
    <dc:creator>
     <cc:Agent>
      <dc:title>Matplotlib v3.8.1, https://matplotlib.org/</dc:title>
     </cc:Agent>
    </dc:creator>
   </cc:Work>
  </rdf:RDF>
 </metadata>
 <defs>
  <style type="text/css">*{stroke-linejoin: round; stroke-linecap: butt}</style>
 </defs>
 <g id="figure_1">
  <g id="patch_1">
   <path d="M 0 360 
L 1224 360 
L 1224 0 
L 0 0 
z
" style="fill: #ffffff"/>
  </g>
  <g id="axes_1">
   <g id="patch_2">
    <path d="M 77.369531 292.216875 
L 598.442434 292.216875 
L 598.442434 77.19 
L 77.369531 77.19 
z
" style="fill: #eaeaf2"/>
   </g>
   <g id="matplotlib.axis_1">
    <g id="xtick_1">
     <g id="line2d_1">
      <path d="M 120.729989 292.216875 
L 120.729989 77.19 
" clip-path="url(#pb6094f19c1)" style="fill: none; stroke: #ffffff; stroke-width: 1.5; stroke-linecap: round"/>
     </g>
     <g id="text_1">
      <!-- 0 -->
      <g style="fill: #262626" transform="translate(115.202489 316.266875) scale(0.165 -0.165)">
       <defs>
        <path id="Actay-Regular-30" d="M 275 2234 
Q 275 3245 803 3910 
Q 1331 4576 2144 4576 
Q 2963 4576 3494 3923 
Q 4026 3270 4026 2234 
Q 4026 1210 3494 557 
Q 2963 -96 2144 -96 
Q 1338 -96 806 569 
Q 275 1235 275 2234 
z
M 787 2240 
Q 787 1440 1171 915 
Q 1555 390 2150 390 
Q 2746 390 3130 912 
Q 3514 1434 3514 2240 
Q 3514 3053 3133 3571 
Q 2752 4090 2150 4090 
Q 1549 4090 1168 3568 
Q 787 3046 787 2240 
z
" transform="scale(0.015625)"/>
       </defs>
       <use xlink:href="#Actay-Regular-30"/>
      </g>
     </g>
    </g>
    <g id="xtick_2">
     <g id="line2d_2">
      <path d="M 232.081545 292.216875 
L 232.081545 77.19 
" clip-path="url(#pb6094f19c1)" style="fill: none; stroke: #ffffff; stroke-width: 1.5; stroke-linecap: round"/>
     </g>
     <g id="text_2">
      <!-- 50000 -->
      <g style="fill: #262626" transform="translate(204.740529 316.266875) scale(0.165 -0.165)">
       <defs>
        <path id="Actay-Regular-35" d="M 2086 -96 
Q 1395 -96 912 406 
Q 429 909 429 1638 
L 941 1638 
Q 941 1094 1267 742 
Q 1594 390 2086 390 
Q 2541 390 2825 662 
Q 3110 934 3110 1370 
Q 3110 1818 2803 2077 
Q 2496 2336 1971 2336 
L 870 2336 
L 634 2605 
L 736 4480 
L 3277 4480 
L 3277 3968 
L 1184 3968 
L 1120 2746 
L 2022 2746 
Q 2758 2746 3190 2371 
Q 3622 1997 3622 1370 
Q 3622 736 3187 320 
Q 2752 -96 2086 -96 
z
" transform="scale(0.015625)"/>
       </defs>
       <use xlink:href="#Actay-Regular-35"/>
       <use xlink:href="#Actay-Regular-30" x="63.399994"/>
       <use xlink:href="#Actay-Regular-30" x="130.399979"/>
       <use xlink:href="#Actay-Regular-30" x="197.399963"/>
       <use xlink:href="#Actay-Regular-30" x="264.399948"/>
      </g>
     </g>
    </g>
    <g id="xtick_3">
     <g id="line2d_3">
      <path d="M 343.4331 292.216875 
L 343.4331 77.19 
" clip-path="url(#pb6094f19c1)" style="fill: none; stroke: #ffffff; stroke-width: 1.5; stroke-linecap: round"/>
     </g>
     <g id="text_3">
      <!-- 100000 -->
      <g style="fill: #262626" transform="translate(312.685093 316.266875) scale(0.165 -0.165)">
       <defs>
        <path id="Actay-Regular-31" d="M 230 3539 
L 230 4038 
Q 941 4058 1491 4480 
L 1914 4480 
L 1914 0 
L 1402 0 
L 1402 3821 
Q 928 3558 230 3539 
z
" transform="scale(0.015625)"/>
       </defs>
       <use xlink:href="#Actay-Regular-31"/>
       <use xlink:href="#Actay-Regular-30" x="37.699997"/>
       <use xlink:href="#Actay-Regular-30" x="104.699982"/>
       <use xlink:href="#Actay-Regular-30" x="171.699966"/>
       <use xlink:href="#Actay-Regular-30" x="238.699951"/>
       <use xlink:href="#Actay-Regular-30" x="305.699936"/>
      </g>
     </g>
    </g>
    <g id="xtick_4">
     <g id="line2d_4">
      <path d="M 454.784656 292.216875 
L 454.784656 77.19 
" clip-path="url(#pb6094f19c1)" style="fill: none; stroke: #ffffff; stroke-width: 1.5; stroke-linecap: round"/>
     </g>
     <g id="text_4">
      <!-- 150000 -->
      <g style="fill: #262626" transform="translate(424.333133 316.266875) scale(0.165 -0.165)">
       <use xlink:href="#Actay-Regular-31"/>
       <use xlink:href="#Actay-Regular-35" x="37.699997"/>
       <use xlink:href="#Actay-Regular-30" x="101.099991"/>
       <use xlink:href="#Actay-Regular-30" x="168.099976"/>
       <use xlink:href="#Actay-Regular-30" x="235.09996"/>
       <use xlink:href="#Actay-Regular-30" x="302.099945"/>
      </g>
     </g>
    </g>
    <g id="xtick_5">
     <g id="line2d_5">
      <path d="M 566.136212 292.216875 
L 566.136212 77.19 
" clip-path="url(#pb6094f19c1)" style="fill: none; stroke: #ffffff; stroke-width: 1.5; stroke-linecap: round"/>
     </g>
     <g id="text_5">
      <!-- 200000 -->
      <g style="fill: #262626" transform="translate(533.441719 316.266875) scale(0.165 -0.165)">
       <defs>
        <path id="Actay-Regular-32" d="M 1971 4576 
Q 2637 4576 3033 4211 
Q 3430 3846 3430 3200 
Q 3430 2867 3299 2633 
Q 3168 2400 2957 2262 
Q 2746 2125 2486 2019 
Q 2227 1914 1968 1802 
Q 1709 1690 1491 1542 
Q 1274 1395 1130 1132 
Q 986 870 973 512 
L 3488 512 
L 3488 0 
L 429 0 
L 429 339 
Q 429 806 566 1145 
Q 704 1485 925 1670 
Q 1146 1856 1411 1990 
Q 1677 2125 1939 2224 
Q 2202 2323 2422 2435 
Q 2643 2547 2780 2745 
Q 2918 2944 2918 3226 
Q 2918 3629 2659 3859 
Q 2400 4090 1971 4090 
Q 1485 4090 1213 3776 
Q 941 3462 941 2874 
L 429 2874 
Q 429 3667 848 4121 
Q 1267 4576 1971 4576 
z
" transform="scale(0.015625)"/>
       </defs>
       <use xlink:href="#Actay-Regular-32"/>
       <use xlink:href="#Actay-Regular-30" x="61.299988"/>
       <use xlink:href="#Actay-Regular-30" x="128.299973"/>
       <use xlink:href="#Actay-Regular-30" x="195.299957"/>
       <use xlink:href="#Actay-Regular-30" x="262.299942"/>
       <use xlink:href="#Actay-Regular-30" x="329.299927"/>
      </g>
     </g>
    </g>
    <g id="text_6">
     <!-- Доход (руб. за последний месяц) -->
     <g style="fill: #262626" transform="translate(185.818639 336.96) scale(0.18 -0.18)">
      <defs>
       <path id="Actay-Regular-414" d="M 166 486 
L 678 486 
Q 1267 1536 1267 2758 
L 1267 4480 
L 3974 4480 
L 3974 486 
L 4570 486 
L 4570 -1062 
L 4058 -1062 
L 4058 0 
L 678 0 
L 678 -1062 
L 166 -1062 
L 166 486 
z
M 1203 486 
L 3462 486 
L 3462 4000 
L 1779 4000 
L 1779 2758 
Q 1779 1498 1203 486 
z
" transform="scale(0.015625)"/>
       <path id="Actay-Regular-43e" d="M 275 1594 
Q 275 2330 755 2813 
Q 1235 3296 1958 3296 
Q 2701 3296 3181 2822 
Q 3661 2349 3661 1594 
Q 3661 851 3181 377 
Q 2701 -96 1958 -96 
Q 1235 -96 755 387 
Q 275 870 275 1594 
z
M 787 1600 
Q 787 1082 1123 736 
Q 1459 390 1958 390 
Q 2490 390 2819 723 
Q 3149 1056 3149 1600 
Q 3149 2144 2819 2480 
Q 2490 2816 1958 2816 
Q 1453 2816 1120 2470 
Q 787 2125 787 1600 
z
" transform="scale(0.015625)"/>
       <path id="Actay-Regular-445" d="M 1894 1619 
L 3181 0 
L 2573 0 
L 1594 1235 
L 614 0 
L 0 0 
L 1286 1619 
L 26 3200 
L 640 3200 
L 1594 2003 
L 2541 3200 
L 3149 3200 
L 1894 1619 
z
" transform="scale(0.015625)"/>
       <path id="Actay-Regular-434" d="M 275 448 
L 755 448 
Q 1120 1139 1120 1997 
L 1120 3200 
L 3603 3200 
L 3603 448 
L 4205 448 
L 4205 -832 
L 3718 -832 
L 3718 0 
L 749 0 
L 749 -832 
L 275 -832 
L 275 448 
z
M 1254 448 
L 3123 448 
L 3123 2758 
L 1600 2758 
L 1600 1997 
Q 1600 1133 1254 448 
z
" transform="scale(0.015625)"/>
       <path id="Actay-Regular-20" transform="scale(0.015625)"/>
       <path id="Actay-Regular-28" d="M 1171 -1094 
L 986 -666 
Q 429 634 429 1824 
Q 429 2995 986 4288 
L 1171 4717 
L 1670 4717 
L 1491 4288 
Q 922 2950 922 1824 
Q 922 1229 1050 659 
Q 1178 90 1491 -666 
L 1670 -1094 
L 1171 -1094 
z
" transform="scale(0.015625)"/>
       <path id="Actay-Regular-440" d="M 499 3200 
L 941 3200 
L 1005 2566 
Q 1210 2912 1539 3104 
Q 1869 3296 2266 3296 
Q 2918 3296 3353 2813 
Q 3789 2330 3789 1606 
Q 3789 870 3357 387 
Q 2925 -96 2266 -96 
Q 1869 -96 1539 96 
Q 1210 288 1011 634 
L 1011 -1280 
L 499 -1280 
L 499 3200 
z
M 2950 716 
Q 3277 1062 3277 1600 
Q 3277 2138 2950 2486 
Q 2624 2835 2131 2835 
Q 1632 2835 1321 2492 
Q 1011 2150 1011 1600 
Q 1011 1056 1324 713 
Q 1638 371 2131 371 
Q 2624 371 2950 716 
z
" transform="scale(0.015625)"/>
       <path id="Actay-Regular-443" d="M 2016 -1261 
L 1478 -1261 
L 1914 0 
L 1088 0 
L 0 3200 
L 525 3200 
L 1440 531 
L 2093 531 
L 3008 3200 
L 3526 3200 
L 2016 -1261 
z
" transform="scale(0.015625)"/>
       <path id="Actay-Regular-431" d="M 275 1555 
Q 275 2528 400 3033 
Q 525 3539 826 3866 
Q 1030 4090 1308 4198 
Q 1587 4307 1836 4323 
Q 2086 4339 2409 4444 
Q 2733 4550 2995 4762 
L 3226 4397 
Q 2950 4166 2643 4054 
Q 2336 3942 2115 3929 
Q 1894 3917 1651 3830 
Q 1408 3744 1242 3558 
Q 902 3174 826 2394 
Q 1018 2694 1328 2873 
Q 1638 3053 2010 3053 
Q 2650 3053 3075 2617 
Q 3501 2182 3501 1555 
Q 3501 813 3065 358 
Q 2630 -96 1882 -96 
Q 1152 -96 713 374 
Q 275 845 275 1555 
z
M 1882 390 
Q 2406 390 2697 716 
Q 2989 1043 2989 1555 
Q 2989 2003 2675 2316 
Q 2362 2630 1882 2630 
Q 1408 2630 1097 2310 
Q 787 1990 787 1555 
Q 787 1043 1075 716 
Q 1363 390 1882 390 
z
" transform="scale(0.015625)"/>
       <path id="Actay-Regular-2e" d="M 275 230 
Q 275 371 361 457 
Q 448 544 589 544 
Q 742 544 832 457 
Q 922 371 922 230 
Q 922 77 832 -9 
Q 742 -96 589 -96 
Q 448 -96 361 -9 
Q 275 77 275 230 
z
" transform="scale(0.015625)"/>
       <path id="Actay-Regular-437" d="M 1830 -96 
Q 1229 -96 829 230 
Q 429 557 429 1075 
L 902 1075 
Q 902 723 1168 508 
Q 1434 294 1830 294 
Q 2240 294 2493 457 
Q 2746 621 2746 889 
Q 2746 1158 2483 1321 
Q 2221 1485 1786 1485 
L 1453 1485 
L 1453 1805 
L 1786 1805 
Q 2234 1805 2445 1936 
Q 2656 2067 2656 2355 
Q 2656 2611 2432 2755 
Q 2208 2899 1818 2899 
Q 1466 2899 1229 2697 
Q 992 2496 992 2202 
L 518 2202 
Q 518 2656 892 2966 
Q 1267 3277 1811 3277 
Q 2419 3277 2784 3037 
Q 3149 2797 3149 2406 
Q 3149 1843 2579 1651 
Q 3238 1421 3238 838 
Q 3238 422 2848 163 
Q 2458 -96 1830 -96 
z
" transform="scale(0.015625)"/>
       <path id="Actay-Regular-430" d="M 3578 0 
L 3136 0 
L 3072 659 
Q 2880 301 2547 102 
Q 2214 -96 1811 -96 
Q 1152 -96 710 387 
Q 269 870 269 1594 
Q 269 2323 710 2809 
Q 1152 3296 1811 3296 
Q 2214 3296 2544 3097 
Q 2874 2899 3066 2541 
L 3136 3200 
L 3578 3200 
L 3578 0 
z
M 781 1600 
Q 781 1069 1110 720 
Q 1440 371 1946 371 
Q 2438 371 2752 713 
Q 3066 1056 3066 1600 
Q 3066 2144 2752 2489 
Q 2438 2835 1946 2835 
Q 1434 2835 1107 2489 
Q 781 2144 781 1600 
z
" transform="scale(0.015625)"/>
       <path id="Actay-Regular-43f" d="M 493 3200 
L 3603 3200 
L 3603 0 
L 3091 0 
L 3091 2720 
L 1005 2720 
L 1005 0 
L 493 0 
L 493 3200 
z
" transform="scale(0.015625)"/>
       <path id="Actay-Regular-441" d="M 1116 2483 
Q 787 2131 787 1600 
Q 787 1069 1116 720 
Q 1446 371 1952 371 
Q 2349 371 2646 576 
Q 2944 781 3072 1126 
L 3603 1126 
Q 3443 570 3001 237 
Q 2560 -96 1952 -96 
Q 1235 -96 755 387 
Q 275 870 275 1594 
Q 275 2330 752 2813 
Q 1229 3296 1952 3296 
Q 2554 3296 2995 2966 
Q 3437 2637 3597 2080 
L 3066 2080 
Q 2931 2419 2633 2627 
Q 2336 2835 1952 2835 
Q 1446 2835 1116 2483 
z
" transform="scale(0.015625)"/>
       <path id="Actay-Regular-43b" d="M 986 1338 
L 1235 3200 
L 3942 3200 
L 3942 0 
L 3430 0 
L 3430 2720 
L 1683 2720 
L 1498 1299 
Q 1414 538 1132 221 
Q 851 -96 275 -96 
L 275 371 
Q 602 371 758 588 
Q 915 806 986 1338 
z
" transform="scale(0.015625)"/>
       <path id="Actay-Regular-435" d="M 3565 1453 
L 794 1453 
Q 838 954 1148 634 
Q 1459 314 1914 314 
Q 2592 314 2938 909 
L 3462 909 
Q 3264 442 2854 173 
Q 2445 -96 1914 -96 
Q 1210 -96 742 387 
Q 275 870 275 1594 
Q 275 2330 739 2813 
Q 1203 3296 1914 3296 
Q 2643 3296 3107 2822 
Q 3571 2349 3571 1594 
Q 3571 1574 3568 1526 
Q 3565 1478 3565 1453 
z
M 794 1747 
L 3053 1747 
Q 3008 2253 2697 2563 
Q 2387 2874 1914 2874 
Q 1459 2874 1148 2560 
Q 838 2246 794 1747 
z
" transform="scale(0.015625)"/>
       <path id="Actay-Regular-43d" d="M 493 0 
L 493 3200 
L 1005 3200 
L 1005 1850 
L 3206 1850 
L 3206 3200 
L 3718 3200 
L 3718 0 
L 3206 0 
L 3206 1357 
L 1005 1357 
L 1005 0 
L 493 0 
z
" transform="scale(0.015625)"/>
       <path id="Actay-Regular-438" d="M 3680 0 
L 3168 0 
L 3168 2413 
L 922 0 
L 493 0 
L 493 3200 
L 1005 3200 
L 1005 800 
L 3258 3200 
L 3680 3200 
L 3680 0 
z
" transform="scale(0.015625)"/>
       <path id="Actay-Regular-439" d="M 2099 3590 
Q 1658 3590 1331 3840 
Q 1005 4090 1005 4480 
L 1414 4480 
Q 1414 4256 1612 4093 
Q 1811 3930 2099 3930 
Q 2387 3930 2585 4090 
Q 2784 4250 2784 4480 
L 3187 4480 
Q 3187 4109 2876 3849 
Q 2566 3590 2099 3590 
z
M 3680 0 
L 3168 0 
L 3168 2413 
L 922 0 
L 493 0 
L 493 3200 
L 1005 3200 
L 1005 800 
L 3258 3200 
L 3680 3200 
L 3680 0 
z
" transform="scale(0.015625)"/>
       <path id="Actay-Regular-43c" d="M 966 2432 
L 966 0 
L 493 0 
L 493 3200 
L 1024 3200 
L 2246 704 
L 3475 3200 
L 4000 3200 
L 4000 0 
L 3526 0 
L 3526 2406 
L 2394 0 
L 2099 0 
L 966 2432 
z
" transform="scale(0.015625)"/>
       <path id="Actay-Regular-44f" d="M 589 0 
L 0 0 
L 928 1062 
Q 550 1190 332 1456 
Q 115 1722 115 2086 
Q 115 2592 528 2896 
Q 941 3200 1594 3200 
L 2957 3200 
L 2957 0 
L 2483 0 
L 2483 960 
L 1594 960 
Q 1517 960 1376 973 
L 589 0 
z
M 608 2086 
Q 608 1754 870 1565 
Q 1133 1376 1594 1376 
L 2483 1376 
L 2483 2778 
L 1594 2778 
Q 1139 2778 873 2592 
Q 608 2406 608 2086 
z
" transform="scale(0.015625)"/>
       <path id="Actay-Regular-446" d="M 493 0 
L 493 3200 
L 1005 3200 
L 1005 486 
L 3258 486 
L 3258 3200 
L 3770 3200 
L 3770 486 
L 4378 486 
L 4378 -1062 
L 3904 -1062 
L 3904 0 
L 493 0 
z
" transform="scale(0.015625)"/>
       <path id="Actay-Regular-29" d="M 845 -1094 
L 339 -1094 
L 518 -666 
Q 826 96 957 662 
Q 1088 1229 1088 1824 
Q 1088 2931 518 4288 
L 339 4717 
L 845 4717 
L 1024 4288 
Q 1581 3021 1581 1824 
Q 1581 634 1024 -666 
L 845 -1094 
z
" transform="scale(0.015625)"/>
      </defs>
      <use xlink:href="#Actay-Regular-414"/>
      <use xlink:href="#Actay-Regular-43e" x="73.899994"/>
      <use xlink:href="#Actay-Regular-445" x="134.999985"/>
      <use xlink:href="#Actay-Regular-43e" x="184.699982"/>
      <use xlink:href="#Actay-Regular-434" x="245.799973"/>
      <use xlink:href="#Actay-Regular-20" x="315.699966"/>
      <use xlink:href="#Actay-Regular-28" x="340.699951"/>
      <use xlink:href="#Actay-Regular-440" x="371.799942"/>
      <use xlink:href="#Actay-Regular-443" x="435.299927"/>
      <use xlink:href="#Actay-Regular-431" x="490.599915"/>
      <use xlink:href="#Actay-Regular-2e" x="549.399902"/>
      <use xlink:href="#Actay-Regular-20" x="567.899887"/>
      <use xlink:href="#Actay-Regular-437" x="592.899872"/>
      <use xlink:href="#Actay-Regular-430" x="648.599869"/>
      <use xlink:href="#Actay-Regular-20" x="712.099854"/>
      <use xlink:href="#Actay-Regular-43f" x="737.099838"/>
      <use xlink:href="#Actay-Regular-43e" x="799.599823"/>
      <use xlink:href="#Actay-Regular-441" x="860.699814"/>
      <use xlink:href="#Actay-Regular-43b" x="920.999802"/>
      <use xlink:href="#Actay-Regular-435" x="990.399796"/>
      <use xlink:href="#Actay-Regular-434" x="1050.499786"/>
      <use xlink:href="#Actay-Regular-43d" x="1120.39978"/>
      <use xlink:href="#Actay-Regular-438" x="1185.999771"/>
      <use xlink:href="#Actay-Regular-439" x="1251.099762"/>
      <use xlink:href="#Actay-Regular-20" x="1316.199753"/>
      <use xlink:href="#Actay-Regular-43c" x="1341.199738"/>
      <use xlink:href="#Actay-Regular-435" x="1411.499725"/>
      <use xlink:href="#Actay-Regular-441" x="1471.599716"/>
      <use xlink:href="#Actay-Regular-44f" x="1531.899704"/>
      <use xlink:href="#Actay-Regular-446" x="1585.899689"/>
      <use xlink:href="#Actay-Regular-29" x="1658.399673"/>
     </g>
    </g>
   </g>
   <g id="matplotlib.axis_2">
    <g id="ytick_1">
     <g id="line2d_6">
      <path d="M 77.369531 292.216875 
L 598.442434 292.216875 
" clip-path="url(#pb6094f19c1)" style="fill: none; stroke: #ffffff; stroke-width: 1.5; stroke-linecap: round"/>
     </g>
     <g id="text_7">
      <!-- 0.00 -->
      <g style="fill: #262626" transform="translate(28.652031 297.991875) scale(0.165 -0.165)">
       <use xlink:href="#Actay-Regular-30"/>
       <use xlink:href="#Actay-Regular-2e" x="66.999985"/>
       <use xlink:href="#Actay-Regular-30" x="85.499969"/>
       <use xlink:href="#Actay-Regular-30" x="152.499954"/>
      </g>
     </g>
    </g>
    <g id="ytick_2">
     <g id="line2d_7">
      <path d="M 77.369531 249.513467 
L 598.442434 249.513467 
" clip-path="url(#pb6094f19c1)" style="fill: none; stroke: #ffffff; stroke-width: 1.5; stroke-linecap: round"/>
     </g>
     <g id="text_8">
      <!-- 0.25 -->
      <g style="fill: #262626" transform="translate(30.186016 255.288467) scale(0.165 -0.165)">
       <use xlink:href="#Actay-Regular-30"/>
       <use xlink:href="#Actay-Regular-2e" x="66.999985"/>
       <use xlink:href="#Actay-Regular-32" x="85.499969"/>
       <use xlink:href="#Actay-Regular-35" x="146.799957"/>
      </g>
     </g>
    </g>
    <g id="ytick_3">
     <g id="line2d_8">
      <path d="M 77.369531 206.81006 
L 598.442434 206.81006 
" clip-path="url(#pb6094f19c1)" style="fill: none; stroke: #ffffff; stroke-width: 1.5; stroke-linecap: round"/>
     </g>
     <g id="text_9">
      <!-- 0.50 -->
      <g style="fill: #262626" transform="translate(29.245 212.58506) scale(0.165 -0.165)">
       <use xlink:href="#Actay-Regular-30"/>
       <use xlink:href="#Actay-Regular-2e" x="66.999985"/>
       <use xlink:href="#Actay-Regular-35" x="85.499969"/>
       <use xlink:href="#Actay-Regular-30" x="148.899963"/>
      </g>
     </g>
    </g>
    <g id="ytick_4">
     <g id="line2d_9">
      <path d="M 77.369531 164.106652 
L 598.442434 164.106652 
" clip-path="url(#pb6094f19c1)" style="fill: none; stroke: #ffffff; stroke-width: 1.5; stroke-linecap: round"/>
     </g>
     <g id="text_10">
      <!-- 0.75 -->
      <g style="fill: #262626" transform="translate(31.191484 169.881652) scale(0.165 -0.165)">
       <defs>
        <path id="Actay-Regular-37" d="M 2637 3968 
L 320 3968 
L 320 4480 
L 3213 4480 
L 3213 4051 
L 1530 0 
L 986 0 
L 2637 3968 
z
" transform="scale(0.015625)"/>
       </defs>
       <use xlink:href="#Actay-Regular-30"/>
       <use xlink:href="#Actay-Regular-2e" x="66.999985"/>
       <use xlink:href="#Actay-Regular-37" x="85.499969"/>
       <use xlink:href="#Actay-Regular-35" x="140.699966"/>
      </g>
     </g>
    </g>
    <g id="ytick_5">
     <g id="line2d_10">
      <path d="M 77.369531 121.403245 
L 598.442434 121.403245 
" clip-path="url(#pb6094f19c1)" style="fill: none; stroke: #ffffff; stroke-width: 1.5; stroke-linecap: round"/>
     </g>
     <g id="text_11">
      <!-- 1.00 -->
      <g style="fill: #262626" transform="translate(33.486016 127.178245) scale(0.165 -0.165)">
       <use xlink:href="#Actay-Regular-31"/>
       <use xlink:href="#Actay-Regular-2e" x="37.699997"/>
       <use xlink:href="#Actay-Regular-30" x="56.199982"/>
       <use xlink:href="#Actay-Regular-30" x="123.199966"/>
      </g>
     </g>
    </g>
    <g id="ytick_6">
     <g id="line2d_11">
      <path d="M 77.369531 78.699837 
L 598.442434 78.699837 
" clip-path="url(#pb6094f19c1)" style="fill: none; stroke: #ffffff; stroke-width: 1.5; stroke-linecap: round"/>
     </g>
     <g id="text_12">
      <!-- 1.25 -->
      <g style="fill: #262626" transform="translate(35.02 84.474837) scale(0.165 -0.165)">
       <use xlink:href="#Actay-Regular-31"/>
       <use xlink:href="#Actay-Regular-2e" x="37.699997"/>
       <use xlink:href="#Actay-Regular-32" x="56.199982"/>
       <use xlink:href="#Actay-Regular-35" x="117.499969"/>
      </g>
     </g>
    </g>
    <g id="text_13">
     <!-- Плотность -->
     <g style="fill: #262626" transform="translate(21.052031 235.346719) rotate(-90) scale(0.18 -0.18)">
      <defs>
       <path id="Actay-Regular-41f" d="M 493 4480 
L 4333 4480 
L 4333 0 
L 3821 0 
L 3821 4000 
L 1005 4000 
L 1005 0 
L 493 0 
L 493 4480 
z
" transform="scale(0.015625)"/>
       <path id="Actay-Regular-442" d="M 1485 0 
L 1485 2720 
L 166 2720 
L 166 3200 
L 3322 3200 
L 3322 2720 
L 1997 2720 
L 1997 0 
L 1485 0 
z
" transform="scale(0.015625)"/>
       <path id="Actay-Regular-44c" d="M 493 3200 
L 1005 3200 
L 1005 2342 
L 2074 2342 
Q 2797 2342 3219 2025 
Q 3642 1709 3642 1171 
Q 3642 608 3235 304 
Q 2829 0 2074 0 
L 493 0 
L 493 3200 
z
M 3130 1171 
Q 3130 1523 2845 1724 
Q 2560 1926 2074 1926 
L 1005 1926 
L 1005 410 
L 2074 410 
Q 2579 410 2854 608 
Q 3130 806 3130 1171 
z
" transform="scale(0.015625)"/>
      </defs>
      <use xlink:href="#Actay-Regular-41f"/>
      <use xlink:href="#Actay-Regular-43b" x="75.399994"/>
      <use xlink:href="#Actay-Regular-43e" x="144.799988"/>
      <use xlink:href="#Actay-Regular-442" x="205.899979"/>
      <use xlink:href="#Actay-Regular-43d" x="260.299973"/>
      <use xlink:href="#Actay-Regular-43e" x="325.899963"/>
      <use xlink:href="#Actay-Regular-441" x="386.999954"/>
      <use xlink:href="#Actay-Regular-442" x="447.299942"/>
      <use xlink:href="#Actay-Regular-44c" x="501.699936"/>
     </g>
    </g>
    <g id="text_14">
     <!-- 1e−5 -->
     <g style="fill: #262626" transform="translate(77.369531 74.19) scale(0.165 -0.165)">
      <defs>
       <path id="Actay-Regular-65" d="M 3565 1453 
L 794 1453 
Q 838 954 1148 634 
Q 1459 314 1914 314 
Q 2592 314 2938 909 
L 3462 909 
Q 3264 442 2854 173 
Q 2445 -96 1914 -96 
Q 1210 -96 742 387 
Q 275 870 275 1594 
Q 275 2330 739 2813 
Q 1203 3296 1914 3296 
Q 2643 3296 3107 2822 
Q 3571 2349 3571 1594 
Q 3571 1574 3568 1526 
Q 3565 1478 3565 1453 
z
M 794 1747 
L 3053 1747 
Q 3008 2253 2697 2563 
Q 2387 2874 1914 2874 
Q 1459 2874 1148 2560 
Q 838 2246 794 1747 
z
" transform="scale(0.015625)"/>
       <path id="Actay-Regular-2212" d="M 320 1997 
L 320 2483 
L 3046 2483 
L 3046 1997 
L 320 1997 
z
" transform="scale(0.015625)"/>
      </defs>
      <use xlink:href="#Actay-Regular-31"/>
      <use xlink:href="#Actay-Regular-65" x="37.699997"/>
      <use xlink:href="#Actay-Regular-2212" x="97.799988"/>
      <use xlink:href="#Actay-Regular-35" x="150.299973"/>
     </g>
    </g>
   </g>
   <g id="line2d_12">
    <path d="M 101.054663 291.676218 
L 103.266805 290.803135 
L 105.478947 288.913845 
L 107.691089 285.319252 
L 109.903231 279.336089 
L 112.115373 270.691349 
L 116.539657 248.918167 
L 118.751799 239.854837 
L 120.963941 234.927755 
L 123.176083 234.968276 
L 125.388225 239.018076 
L 127.600367 244.694122 
L 129.812509 249.151383 
L 132.024651 250.063956 
L 134.236793 246.191595 
L 136.448935 237.468677 
L 138.661077 224.786698 
L 145.297503 178.609317 
L 147.509645 165.428681 
L 149.721787 154.89181 
L 151.933929 147.297332 
L 154.14607 142.633558 
L 156.358212 140.683767 
L 158.570354 141.161036 
L 160.782496 143.83841 
L 162.994638 148.57117 
L 165.20678 155.160821 
L 167.418922 163.174758 
L 171.843206 180.641835 
L 174.055348 188.78811 
L 176.26749 196.133886 
L 178.479632 202.706905 
L 180.691774 208.657598 
L 191.752484 236.330331 
L 193.964626 241.476876 
L 196.176768 245.816139 
L 198.38891 249.149674 
L 200.601052 251.47828 
L 202.813194 252.974958 
L 207.237478 254.923218 
L 209.44962 256.290222 
L 211.661762 258.329907 
L 213.873904 260.966305 
L 216.086046 263.840441 
L 218.298188 266.510764 
L 220.51033 268.651683 
L 222.722472 270.141307 
L 224.934614 271.053787 
L 229.358897 272.195981 
L 231.571039 273.123793 
L 233.783181 274.616917 
L 235.995323 276.624195 
L 238.207465 278.842059 
L 240.419607 280.853077 
L 242.631749 282.306083 
L 244.843891 283.041145 
L 247.056033 283.123967 
L 251.480317 282.441 
L 253.692459 282.35405 
L 255.904601 282.731868 
L 258.116743 283.555464 
L 262.541027 285.714666 
L 264.753169 286.591957 
L 266.965311 287.172506 
L 269.177453 287.472583 
L 275.813879 287.771328 
L 278.026021 288.045985 
L 286.874589 289.726332 
L 289.086731 289.856784 
L 291.298873 289.810693 
L 297.935299 289.368234 
L 300.147441 289.406139 
L 304.571725 289.864831 
L 308.996008 290.403309 
L 313.420292 290.619841 
L 324.481002 290.639793 
L 328.905286 290.758046 
L 331.117428 290.705547 
L 333.32957 290.523044 
L 337.753854 289.827263 
L 339.965996 289.474322 
L 342.178138 289.274303 
L 344.39028 289.311617 
L 346.602422 289.591322 
L 353.238848 290.951726 
L 355.45099 291.252999 
L 359.875274 291.495069 
L 397.481687 291.8527 
L 408.542397 291.943169 
L 428.451675 291.98243 
L 446.148811 291.693702 
L 452.785237 291.325801 
L 457.20952 291.367421 
L 470.482372 292.096626 
L 481.543082 292.113191 
L 514.725212 292.073229 
L 523.57378 292.016853 
L 541.270915 292.214559 
L 541.270915 292.214559 
" clip-path="url(#pb6094f19c1)" style="fill: none; stroke: #3e5471; stroke-width: 2.25; stroke-linecap: round"/>
   </g>
   <g id="line2d_13">
    <path d="M 101.71296 291.668602 
L 104.030397 290.668092 
L 106.347834 288.382459 
L 108.665271 283.892032 
L 110.982708 276.353339 
L 113.300145 265.648595 
L 115.617582 253.021364 
L 117.935019 241.08476 
L 120.252456 232.816866 
L 122.569893 229.942245 
L 124.88733 231.770944 
L 127.204767 235.361542 
L 129.522204 236.897297 
L 131.839642 233.356756 
L 134.157079 223.590702 
L 136.474516 208.496852 
L 141.10939 172.33295 
L 143.426827 156.507228 
L 145.744264 144.249746 
L 148.061701 135.780954 
L 150.379138 130.752596 
L 152.696575 128.723394 
L 155.014012 129.344846 
L 157.331449 132.357031 
L 159.648886 137.612344 
L 161.966323 145.104174 
L 164.28376 154.795874 
L 166.601197 166.260359 
L 171.236071 190.151177 
L 173.553508 200.190964 
L 175.870945 208.171895 
L 178.188382 214.228857 
L 180.505819 218.801048 
L 187.45813 230.04245 
L 189.775567 234.831963 
L 194.410441 245.089976 
L 196.727878 249.301796 
L 199.045315 252.478195 
L 201.362752 254.718423 
L 203.68019 256.300178 
L 205.997627 257.602871 
L 208.315064 259.060591 
L 210.632501 261.019625 
L 212.949938 263.547694 
L 217.584812 269.088815 
L 219.902249 271.294652 
L 222.219686 272.816533 
L 224.537123 273.67562 
L 229.171997 274.399341 
L 231.489434 275.047021 
L 233.806871 276.287326 
L 236.124308 278.077283 
L 238.441745 280.09751 
L 240.759182 281.945765 
L 243.076619 283.334571 
L 245.394056 284.171166 
L 247.711493 284.532882 
L 254.663804 284.87779 
L 256.981241 285.388591 
L 263.933552 287.644273 
L 266.250989 288.100249 
L 268.568426 288.276851 
L 273.203301 288.071995 
L 275.520738 287.972632 
L 277.838175 288.051262 
L 280.155612 288.336383 
L 284.790486 289.154256 
L 287.107923 289.425657 
L 289.42536 289.504297 
L 294.060234 289.229632 
L 296.377671 289.084683 
L 298.695108 289.084591 
L 301.012545 289.277758 
L 310.282293 290.682513 
L 314.917167 290.830876 
L 321.869478 290.784215 
L 331.139226 291.175003 
L 333.456663 291.100347 
L 338.091537 290.618776 
L 340.408974 290.348193 
L 342.726411 290.193042 
L 345.043849 290.222517 
L 347.361286 290.434925 
L 354.313597 291.409633 
L 358.948471 291.739881 
L 363.583345 291.787609 
L 377.487967 291.735994 
L 391.392589 291.665106 
L 400.662337 291.877177 
L 412.249522 291.911129 
L 421.519271 292.055865 
L 430.789019 291.833412 
L 437.74133 291.74239 
L 460.9157 291.901901 
L 467.868011 292.023038 
L 516.534189 292.040074 
L 523.4865 292.003666 
L 537.391122 292.072673 
L 546.66087 292.111762 
L 560.565493 292.214785 
L 562.88293 292.216162 
L 562.88293 292.216162 
" clip-path="url(#pb6094f19c1)" style="fill: none; stroke: #4c6b95; stroke-width: 2.25; stroke-linecap: round"/>
   </g>
   <g id="line2d_14">
    <path d="M 104.536993 291.500184 
L 106.899909 289.765931 
L 109.262825 285.275006 
L 111.625742 275.911124 
L 113.988658 260.38321 
L 118.71449 221.213568 
L 121.077406 209.301192 
L 123.440322 207.154066 
L 125.803238 211.09743 
L 128.166154 213.886977 
L 130.529071 209.753967 
L 132.891987 197.355095 
L 135.254903 179.118121 
L 137.617819 158.838083 
L 139.980735 139.782727 
L 142.343651 124.033188 
L 144.706567 112.615327 
L 147.069483 105.925027 
L 149.4324 104.211622 
L 151.795316 107.737097 
L 154.158232 116.250127 
L 156.521148 128.295358 
L 161.24698 154.390618 
L 165.972812 179.669353 
L 168.335729 192.800537 
L 170.698645 204.719707 
L 173.061561 214.035607 
L 175.424477 220.71887 
L 177.787393 225.634423 
L 180.150309 229.331573 
L 182.513225 231.936522 
L 184.876141 234.086342 
L 187.239058 237.168829 
L 189.601974 242.175804 
L 194.327806 254.866904 
L 196.690722 259.699156 
L 199.053638 262.864676 
L 201.416554 264.727169 
L 203.77947 265.653996 
L 206.142387 266.05294 
L 208.505303 266.616422 
L 210.868219 268.05073 
L 213.231135 270.482869 
L 215.594051 273.341682 
L 217.956967 275.890034 
L 220.319883 277.738389 
L 222.682799 278.833944 
L 225.045715 279.219812 
L 229.771548 278.84014 
L 232.134464 279.218732 
L 234.49738 280.535932 
L 239.223212 284.420497 
L 241.586128 285.793919 
L 243.949044 286.460705 
L 246.311961 286.509289 
L 248.674877 286.12283 
L 251.037793 285.588265 
L 253.400709 285.287758 
L 255.763625 285.514645 
L 258.126541 286.264451 
L 262.852373 288.16435 
L 265.21529 288.818514 
L 267.578206 289.193923 
L 269.941122 289.326116 
L 277.02987 289.222808 
L 279.392786 289.434717 
L 286.481535 290.377065 
L 291.207367 290.579335 
L 298.296115 290.60613 
L 303.021948 290.968074 
L 307.74778 291.402012 
L 312.473612 291.473802 
L 319.56236 291.225704 
L 324.288193 291.39104 
L 329.014025 291.673629 
L 331.376941 291.70551 
L 333.739857 291.611756 
L 338.465689 291.063193 
L 340.828606 290.76302 
L 343.191522 290.621828 
L 345.554438 290.709022 
L 355.006102 291.652362 
L 359.731935 291.751562 
L 369.183599 291.867461 
L 376.272347 291.970256 
L 390.449844 291.870914 
L 399.901509 291.997639 
L 414.079005 291.946521 
L 428.256502 292.151698 
L 451.885663 292.039177 
L 458.974412 292.019355 
L 475.514825 292.214615 
L 518.047315 292.144742 
L 527.498979 292.120317 
L 539.31356 292.169002 
L 560.579805 292.15728 
L 574.757302 292.216171 
L 574.757302 292.216171 
" clip-path="url(#pb6094f19c1)" style="fill: none; stroke: #5982b9; stroke-width: 2.25; stroke-linecap: round"/>
   </g>
   <g id="line2d_15">
    <path d="M 104.95877 291.328398 
L 107.064528 289.463122 
L 109.170286 284.930622 
L 111.276044 275.744228 
L 113.381802 260.351551 
L 115.48756 239.343924 
L 117.593318 216.626556 
L 119.699076 198.286941 
L 121.804834 188.998095 
L 123.910592 188.515843 
L 126.016351 191.477618 
L 128.122109 190.90852 
L 130.227867 182.472304 
L 132.333625 166.237078 
L 136.545141 124.127769 
L 138.650899 105.796018 
L 140.756657 93.020651 
L 142.862415 87.429375 
L 144.968173 89.274528 
L 147.073931 97.186153 
L 149.179689 108.80505 
L 157.602721 161.266089 
L 159.708479 172.066866 
L 161.814237 181.280102 
L 166.025753 198.882 
L 170.23727 217.798438 
L 172.343028 225.592091 
L 174.448786 231.60905 
L 176.554544 236.354681 
L 178.660302 240.301514 
L 180.76606 243.397 
L 182.871818 245.499071 
L 184.977576 247.094513 
L 187.083334 249.272242 
L 189.189092 252.84262 
L 193.400608 262.344732 
L 195.506366 266.181256 
L 197.612124 268.826282 
L 199.717882 270.620891 
L 201.82364 271.897468 
L 203.929398 272.711125 
L 208.140914 273.391523 
L 210.246673 274.109559 
L 212.352431 275.538365 
L 216.563947 279.439001 
L 218.669705 280.998552 
L 220.775463 282.006063 
L 222.881221 282.475953 
L 224.986979 282.454868 
L 229.198495 281.577296 
L 231.304253 281.471422 
L 233.410011 282.084999 
L 235.515769 283.403277 
L 237.621527 285.049772 
L 239.727285 286.541153 
L 241.833043 287.553746 
L 243.938801 288.002588 
L 246.044559 287.960719 
L 248.150317 287.574522 
L 250.256075 287.051876 
L 252.361833 286.656281 
L 254.467592 286.620784 
L 256.57335 287.017032 
L 262.890624 289.059581 
L 264.996382 289.447178 
L 267.10214 289.625714 
L 269.207898 289.624285 
L 275.525172 289.22569 
L 277.63093 289.352387 
L 279.736688 289.702141 
L 283.948204 290.638047 
L 286.053962 290.976908 
L 288.15972 291.150462 
L 290.265478 291.16008 
L 294.476994 290.838481 
L 296.582753 290.668938 
L 298.688511 290.627616 
L 300.794269 290.760921 
L 309.217301 291.800845 
L 313.428817 291.892595 
L 326.063365 291.546329 
L 332.380639 291.649348 
L 336.592155 291.487942 
L 342.90943 291.098998 
L 347.120946 291.283508 
L 353.43822 291.8266 
L 359.755494 292.008505 
L 376.601558 292.133125 
L 391.341865 291.816453 
L 399.764897 292.043677 
L 431.351268 291.991171 
L 439.7743 291.991041 
L 448.197332 292.002077 
L 456.620364 291.907516 
L 469.254913 292.18522 
L 490.312493 292.129087 
L 498.735525 292.141101 
L 509.264315 292.051538 
L 524.004622 292.21539 
L 524.004622 292.21539 
" clip-path="url(#pb6094f19c1)" style="fill: none; stroke: #6699dd; stroke-width: 2.25; stroke-linecap: round"/>
   </g>
   <g id="patch_3">
    <path d="M 77.369531 292.216875 
L 77.369531 77.19 
" style="fill: none; stroke: #ffffff; stroke-width: 1.875; stroke-linejoin: miter; stroke-linecap: square"/>
   </g>
   <g id="patch_4">
    <path d="M 598.442434 292.216875 
L 598.442434 77.19 
" style="fill: none; stroke: #ffffff; stroke-width: 1.875; stroke-linejoin: miter; stroke-linecap: square"/>
   </g>
   <g id="patch_5">
    <path d="M 77.369531 292.216875 
L 598.442434 292.216875 
" style="fill: none; stroke: #ffffff; stroke-width: 1.875; stroke-linejoin: miter; stroke-linecap: square"/>
   </g>
   <g id="patch_6">
    <path d="M 77.369531 77.19 
L 598.442434 77.19 
" style="fill: none; stroke: #ffffff; stroke-width: 1.875; stroke-linejoin: miter; stroke-linecap: square"/>
   </g>
   <g id="text_15">
    <!-- Без пересчета на ИПЦ -->
    <g style="fill: #262626" transform="translate(233.03067 71.19) scale(0.18 -0.18)">
     <defs>
      <path id="Actay-Regular-411" d="M 493 4480 
L 3616 4480 
L 3616 4019 
L 1005 4019 
L 1005 2835 
L 2374 2835 
Q 3066 2835 3552 2425 
Q 4038 2016 4038 1414 
Q 4038 781 3568 390 
Q 3098 0 2374 0 
L 493 0 
L 493 4480 
z
M 3526 1414 
Q 3526 1818 3196 2096 
Q 2867 2374 2374 2374 
L 1005 2374 
L 1005 467 
L 2374 467 
Q 2893 467 3209 729 
Q 3526 992 3526 1414 
z
" transform="scale(0.015625)"/>
      <path id="Actay-Regular-447" d="M 2970 2432 
L 2970 3200 
L 3482 3200 
L 3482 0 
L 2970 0 
L 2970 1408 
Q 2586 749 1869 749 
Q 1254 749 873 1209 
Q 493 1670 493 2432 
L 493 3200 
L 1005 3200 
L 1005 2432 
Q 1005 1894 1277 1561 
Q 1549 1229 1990 1229 
Q 2419 1229 2694 1565 
Q 2970 1901 2970 2432 
z
" transform="scale(0.015625)"/>
      <path id="Actay-Regular-418" d="M 4333 0 
L 3821 0 
L 3821 3558 
L 896 0 
L 493 0 
L 493 4480 
L 1005 4480 
L 1005 928 
L 3930 4480 
L 4333 4480 
L 4333 0 
z
" transform="scale(0.015625)"/>
      <path id="Actay-Regular-426" d="M 493 0 
L 493 4480 
L 1005 4480 
L 1005 486 
L 3725 486 
L 3725 4480 
L 4237 4480 
L 4237 486 
L 4896 486 
L 4896 -1062 
L 4416 -1062 
L 4416 0 
L 493 0 
z
" transform="scale(0.015625)"/>
     </defs>
     <use xlink:href="#Actay-Regular-411"/>
     <use xlink:href="#Actay-Regular-435" x="67.199997"/>
     <use xlink:href="#Actay-Regular-437" x="127.299988"/>
     <use xlink:href="#Actay-Regular-20" x="182.999985"/>
     <use xlink:href="#Actay-Regular-43f" x="207.999969"/>
     <use xlink:href="#Actay-Regular-435" x="270.499954"/>
     <use xlink:href="#Actay-Regular-440" x="330.599945"/>
     <use xlink:href="#Actay-Regular-435" x="394.09993"/>
     <use xlink:href="#Actay-Regular-441" x="454.199921"/>
     <use xlink:href="#Actay-Regular-447" x="514.499908"/>
     <use xlink:href="#Actay-Regular-435" x="576.699905"/>
     <use xlink:href="#Actay-Regular-442" x="636.799896"/>
     <use xlink:href="#Actay-Regular-430" x="691.19989"/>
     <use xlink:href="#Actay-Regular-20" x="754.699875"/>
     <use xlink:href="#Actay-Regular-43d" x="779.69986"/>
     <use xlink:href="#Actay-Regular-430" x="845.29985"/>
     <use xlink:href="#Actay-Regular-20" x="908.799835"/>
     <use xlink:href="#Actay-Regular-418" x="933.79982"/>
     <use xlink:href="#Actay-Regular-41f" x="1009.099808"/>
     <use xlink:href="#Actay-Regular-426" x="1084.499802"/>
    </g>
   </g>
   <g id="legend_1">
    <g id="patch_7">
     <path d="M 491.754465 207.24 
L 586.892434 207.24 
Q 590.192434 207.24 590.192434 203.94 
L 590.192434 88.74 
Q 590.192434 85.44 586.892434 85.44 
L 491.754465 85.44 
Q 488.454465 85.44 488.454465 88.74 
L 488.454465 203.94 
Q 488.454465 207.24 491.754465 207.24 
z
" style="fill: #eaeaf2; opacity: 0.8; stroke: #cccccc; stroke-width: 1.5; stroke-linejoin: miter"/>
    </g>
    <g id="text_16">
     <!-- Год -->
     <g style="fill: #262626" transform="translate(522.565168 104.64) scale(0.18 -0.18)">
      <defs>
       <path id="Actay-Regular-413" d="M 493 4480 
L 3258 4480 
L 3258 4019 
L 1005 4019 
L 1005 0 
L 493 0 
L 493 4480 
z
" transform="scale(0.015625)"/>
      </defs>
      <use xlink:href="#Actay-Regular-413"/>
      <use xlink:href="#Actay-Regular-43e" x="55.199997"/>
      <use xlink:href="#Actay-Regular-434" x="116.299988"/>
     </g>
    </g>
    <g id="line2d_16">
     <path d="M 495.054465 122.265 
L 511.554465 122.265 
L 528.054465 122.265 
" style="fill: none; stroke: #3e5471; stroke-width: 2.25; stroke-linecap: round"/>
    </g>
    <g id="text_17">
     <!-- 2013 -->
     <g style="fill: #262626" transform="translate(541.254465 128.04) scale(0.165 -0.165)">
      <defs>
       <path id="Actay-Regular-33" d="M 2739 3968 
L 672 3968 
L 672 4480 
L 3450 4480 
L 3450 4051 
L 2157 2656 
L 2208 2656 
Q 2822 2656 3228 2317 
Q 3635 1978 3635 1325 
Q 3635 717 3200 310 
Q 2765 -96 2106 -96 
Q 1402 -96 915 413 
Q 429 922 429 1664 
L 941 1664 
Q 941 1120 1270 755 
Q 1600 390 2093 390 
Q 2534 390 2828 656 
Q 3123 922 3123 1318 
Q 3123 1734 2844 1993 
Q 2566 2253 2106 2253 
L 1779 2253 
L 1504 2566 
L 2739 3968 
z
" transform="scale(0.015625)"/>
      </defs>
      <use xlink:href="#Actay-Regular-32"/>
      <use xlink:href="#Actay-Regular-30" x="61.299988"/>
      <use xlink:href="#Actay-Regular-31" x="128.299973"/>
      <use xlink:href="#Actay-Regular-33" x="165.999969"/>
     </g>
    </g>
    <g id="line2d_17">
     <path d="M 495.054465 145.365 
L 511.554465 145.365 
L 528.054465 145.365 
" style="fill: none; stroke: #4c6b95; stroke-width: 2.25; stroke-linecap: round"/>
    </g>
    <g id="text_18">
     <!-- 2015 -->
     <g style="fill: #262626" transform="translate(541.254465 151.14) scale(0.165 -0.165)">
      <use xlink:href="#Actay-Regular-32"/>
      <use xlink:href="#Actay-Regular-30" x="61.299988"/>
      <use xlink:href="#Actay-Regular-31" x="128.299973"/>
      <use xlink:href="#Actay-Regular-35" x="165.999969"/>
     </g>
    </g>
    <g id="line2d_18">
     <path d="M 495.054465 168.465 
L 511.554465 168.465 
L 528.054465 168.465 
" style="fill: none; stroke: #5982b9; stroke-width: 2.25; stroke-linecap: round"/>
    </g>
    <g id="text_19">
     <!-- 2018 -->
     <g style="fill: #262626" transform="translate(541.254465 174.24) scale(0.165 -0.165)">
      <defs>
       <path id="Actay-Regular-38" d="M 275 1184 
Q 275 1530 515 1821 
Q 755 2112 1133 2285 
Q 826 2464 643 2739 
Q 461 3014 461 3334 
Q 461 3866 877 4221 
Q 1293 4576 1926 4576 
Q 2566 4576 2985 4230 
Q 3405 3885 3405 3334 
Q 3405 3002 3229 2730 
Q 3053 2458 2752 2285 
Q 3130 2118 3360 1830 
Q 3590 1542 3590 1184 
Q 3590 621 3120 262 
Q 2650 -96 1926 -96 
Q 1216 -96 745 269 
Q 275 634 275 1184 
z
M 928 3296 
Q 928 2963 1225 2713 
Q 1523 2464 1920 2464 
Q 2342 2464 2636 2704 
Q 2931 2944 2931 3296 
Q 2931 3654 2649 3884 
Q 2368 4115 1920 4115 
Q 1491 4115 1209 3881 
Q 928 3648 928 3296 
z
M 787 1216 
Q 787 845 1110 608 
Q 1434 371 1926 371 
Q 2438 371 2758 608 
Q 3078 845 3078 1216 
Q 3078 1568 2739 1821 
Q 2400 2074 1926 2074 
Q 1472 2074 1129 1814 
Q 787 1555 787 1216 
z
" transform="scale(0.015625)"/>
      </defs>
      <use xlink:href="#Actay-Regular-32"/>
      <use xlink:href="#Actay-Regular-30" x="61.299988"/>
      <use xlink:href="#Actay-Regular-31" x="128.299973"/>
      <use xlink:href="#Actay-Regular-38" x="165.999969"/>
     </g>
    </g>
    <g id="line2d_19">
     <path d="M 495.054465 191.565 
L 511.554465 191.565 
L 528.054465 191.565 
" style="fill: none; stroke: #6699dd; stroke-width: 2.25; stroke-linecap: round"/>
    </g>
    <g id="text_20">
     <!-- 2020 -->
     <g style="fill: #262626" transform="translate(541.254465 197.34) scale(0.165 -0.165)">
      <use xlink:href="#Actay-Regular-32"/>
      <use xlink:href="#Actay-Regular-30" x="61.299988"/>
      <use xlink:href="#Actay-Regular-32" x="128.299973"/>
      <use xlink:href="#Actay-Regular-30" x="189.59996"/>
     </g>
    </g>
   </g>
  </g>
  <g id="axes_2">
   <g id="patch_8">
    <path d="M 681.773431 292.216875 
L 1202.846334 292.216875 
L 1202.846334 77.19 
L 681.773431 77.19 
z
" style="fill: #eaeaf2"/>
   </g>
   <g id="matplotlib.axis_3">
    <g id="xtick_6">
     <g id="line2d_20">
      <path d="M 728.622903 292.216875 
L 728.622903 77.19 
" clip-path="url(#pd0e7ca576a)" style="fill: none; stroke: #ffffff; stroke-width: 1.5; stroke-linecap: round"/>
     </g>
     <g id="text_21">
      <!-- 0 -->
      <g style="fill: #262626" transform="translate(723.095403 316.266875) scale(0.165 -0.165)">
       <use xlink:href="#Actay-Regular-30"/>
      </g>
     </g>
    </g>
    <g id="xtick_7">
     <g id="line2d_21">
      <path d="M 837.818864 292.216875 
L 837.818864 77.19 
" clip-path="url(#pd0e7ca576a)" style="fill: none; stroke: #ffffff; stroke-width: 1.5; stroke-linecap: round"/>
     </g>
     <g id="text_22">
      <!-- 50000 -->
      <g style="fill: #262626" transform="translate(810.477849 316.266875) scale(0.165 -0.165)">
       <use xlink:href="#Actay-Regular-35"/>
       <use xlink:href="#Actay-Regular-30" x="63.399994"/>
       <use xlink:href="#Actay-Regular-30" x="130.399979"/>
       <use xlink:href="#Actay-Regular-30" x="197.399963"/>
       <use xlink:href="#Actay-Regular-30" x="264.399948"/>
      </g>
     </g>
    </g>
    <g id="xtick_8">
     <g id="line2d_22">
      <path d="M 947.014825 292.216875 
L 947.014825 77.19 
" clip-path="url(#pd0e7ca576a)" style="fill: none; stroke: #ffffff; stroke-width: 1.5; stroke-linecap: round"/>
     </g>
     <g id="text_23">
      <!-- 100000 -->
      <g style="fill: #262626" transform="translate(916.266818 316.266875) scale(0.165 -0.165)">
       <use xlink:href="#Actay-Regular-31"/>
       <use xlink:href="#Actay-Regular-30" x="37.699997"/>
       <use xlink:href="#Actay-Regular-30" x="104.699982"/>
       <use xlink:href="#Actay-Regular-30" x="171.699966"/>
       <use xlink:href="#Actay-Regular-30" x="238.699951"/>
       <use xlink:href="#Actay-Regular-30" x="305.699936"/>
      </g>
     </g>
    </g>
    <g id="xtick_9">
     <g id="line2d_23">
      <path d="M 1056.210786 292.216875 
L 1056.210786 77.19 
" clip-path="url(#pd0e7ca576a)" style="fill: none; stroke: #ffffff; stroke-width: 1.5; stroke-linecap: round"/>
     </g>
     <g id="text_24">
      <!-- 150000 -->
      <g style="fill: #262626" transform="translate(1025.759263 316.266875) scale(0.165 -0.165)">
       <use xlink:href="#Actay-Regular-31"/>
       <use xlink:href="#Actay-Regular-35" x="37.699997"/>
       <use xlink:href="#Actay-Regular-30" x="101.099991"/>
       <use xlink:href="#Actay-Regular-30" x="168.099976"/>
       <use xlink:href="#Actay-Regular-30" x="235.09996"/>
       <use xlink:href="#Actay-Regular-30" x="302.099945"/>
      </g>
     </g>
    </g>
    <g id="xtick_10">
     <g id="line2d_24">
      <path d="M 1165.406747 292.216875 
L 1165.406747 77.19 
" clip-path="url(#pd0e7ca576a)" style="fill: none; stroke: #ffffff; stroke-width: 1.5; stroke-linecap: round"/>
     </g>
     <g id="text_25">
      <!-- 200000 -->
      <g style="fill: #262626" transform="translate(1132.712255 316.266875) scale(0.165 -0.165)">
       <use xlink:href="#Actay-Regular-32"/>
       <use xlink:href="#Actay-Regular-30" x="61.299988"/>
       <use xlink:href="#Actay-Regular-30" x="128.299973"/>
       <use xlink:href="#Actay-Regular-30" x="195.299957"/>
       <use xlink:href="#Actay-Regular-30" x="262.299942"/>
       <use xlink:href="#Actay-Regular-30" x="329.299927"/>
      </g>
     </g>
    </g>
    <g id="text_26">
     <!-- Доход (руб. за последний месяц) -->
     <g style="fill: #262626" transform="translate(790.222538 336.96) scale(0.18 -0.18)">
      <use xlink:href="#Actay-Regular-414"/>
      <use xlink:href="#Actay-Regular-43e" x="73.899994"/>
      <use xlink:href="#Actay-Regular-445" x="134.999985"/>
      <use xlink:href="#Actay-Regular-43e" x="184.699982"/>
      <use xlink:href="#Actay-Regular-434" x="245.799973"/>
      <use xlink:href="#Actay-Regular-20" x="315.699966"/>
      <use xlink:href="#Actay-Regular-28" x="340.699951"/>
      <use xlink:href="#Actay-Regular-440" x="371.799942"/>
      <use xlink:href="#Actay-Regular-443" x="435.299927"/>
      <use xlink:href="#Actay-Regular-431" x="490.599915"/>
      <use xlink:href="#Actay-Regular-2e" x="549.399902"/>
      <use xlink:href="#Actay-Regular-20" x="567.899887"/>
      <use xlink:href="#Actay-Regular-437" x="592.899872"/>
      <use xlink:href="#Actay-Regular-430" x="648.599869"/>
      <use xlink:href="#Actay-Regular-20" x="712.099854"/>
      <use xlink:href="#Actay-Regular-43f" x="737.099838"/>
      <use xlink:href="#Actay-Regular-43e" x="799.599823"/>
      <use xlink:href="#Actay-Regular-441" x="860.699814"/>
      <use xlink:href="#Actay-Regular-43b" x="920.999802"/>
      <use xlink:href="#Actay-Regular-435" x="990.399796"/>
      <use xlink:href="#Actay-Regular-434" x="1050.499786"/>
      <use xlink:href="#Actay-Regular-43d" x="1120.39978"/>
      <use xlink:href="#Actay-Regular-438" x="1185.999771"/>
      <use xlink:href="#Actay-Regular-439" x="1251.099762"/>
      <use xlink:href="#Actay-Regular-20" x="1316.199753"/>
      <use xlink:href="#Actay-Regular-43c" x="1341.199738"/>
      <use xlink:href="#Actay-Regular-435" x="1411.499725"/>
      <use xlink:href="#Actay-Regular-441" x="1471.599716"/>
      <use xlink:href="#Actay-Regular-44f" x="1531.899704"/>
      <use xlink:href="#Actay-Regular-446" x="1585.899689"/>
      <use xlink:href="#Actay-Regular-29" x="1658.399673"/>
     </g>
    </g>
   </g>
   <g id="matplotlib.axis_4">
    <g id="ytick_7">
     <g id="line2d_25">
      <path d="M 681.773431 292.216875 
L 1202.846334 292.216875 
" clip-path="url(#pd0e7ca576a)" style="fill: none; stroke: #ffffff; stroke-width: 1.5; stroke-linecap: round"/>
     </g>
     <g id="text_27">
      <!-- 0.00 -->
      <g style="fill: #262626" transform="translate(633.055931 297.991875) scale(0.165 -0.165)">
       <use xlink:href="#Actay-Regular-30"/>
       <use xlink:href="#Actay-Regular-2e" x="66.999985"/>
       <use xlink:href="#Actay-Regular-30" x="85.499969"/>
       <use xlink:href="#Actay-Regular-30" x="152.499954"/>
      </g>
     </g>
    </g>
    <g id="ytick_8">
     <g id="line2d_26">
      <path d="M 681.773431 249.513467 
L 1202.846334 249.513467 
" clip-path="url(#pd0e7ca576a)" style="fill: none; stroke: #ffffff; stroke-width: 1.5; stroke-linecap: round"/>
     </g>
     <g id="text_28">
      <!-- 0.25 -->
      <g style="fill: #262626" transform="translate(634.589915 255.288467) scale(0.165 -0.165)">
       <use xlink:href="#Actay-Regular-30"/>
       <use xlink:href="#Actay-Regular-2e" x="66.999985"/>
       <use xlink:href="#Actay-Regular-32" x="85.499969"/>
       <use xlink:href="#Actay-Regular-35" x="146.799957"/>
      </g>
     </g>
    </g>
    <g id="ytick_9">
     <g id="line2d_27">
      <path d="M 681.773431 206.81006 
L 1202.846334 206.81006 
" clip-path="url(#pd0e7ca576a)" style="fill: none; stroke: #ffffff; stroke-width: 1.5; stroke-linecap: round"/>
     </g>
     <g id="text_29">
      <!-- 0.50 -->
      <g style="fill: #262626" transform="translate(633.6489 212.58506) scale(0.165 -0.165)">
       <use xlink:href="#Actay-Regular-30"/>
       <use xlink:href="#Actay-Regular-2e" x="66.999985"/>
       <use xlink:href="#Actay-Regular-35" x="85.499969"/>
       <use xlink:href="#Actay-Regular-30" x="148.899963"/>
      </g>
     </g>
    </g>
    <g id="ytick_10">
     <g id="line2d_28">
      <path d="M 681.773431 164.106652 
L 1202.846334 164.106652 
" clip-path="url(#pd0e7ca576a)" style="fill: none; stroke: #ffffff; stroke-width: 1.5; stroke-linecap: round"/>
     </g>
     <g id="text_30">
      <!-- 0.75 -->
      <g style="fill: #262626" transform="translate(635.595384 169.881652) scale(0.165 -0.165)">
       <use xlink:href="#Actay-Regular-30"/>
       <use xlink:href="#Actay-Regular-2e" x="66.999985"/>
       <use xlink:href="#Actay-Regular-37" x="85.499969"/>
       <use xlink:href="#Actay-Regular-35" x="140.699966"/>
      </g>
     </g>
    </g>
    <g id="ytick_11">
     <g id="line2d_29">
      <path d="M 681.773431 121.403245 
L 1202.846334 121.403245 
" clip-path="url(#pd0e7ca576a)" style="fill: none; stroke: #ffffff; stroke-width: 1.5; stroke-linecap: round"/>
     </g>
     <g id="text_31">
      <!-- 1.00 -->
      <g style="fill: #262626" transform="translate(637.889915 127.178245) scale(0.165 -0.165)">
       <use xlink:href="#Actay-Regular-31"/>
       <use xlink:href="#Actay-Regular-2e" x="37.699997"/>
       <use xlink:href="#Actay-Regular-30" x="56.199982"/>
       <use xlink:href="#Actay-Regular-30" x="123.199966"/>
      </g>
     </g>
    </g>
    <g id="ytick_12">
     <g id="line2d_30">
      <path d="M 681.773431 78.699837 
L 1202.846334 78.699837 
" clip-path="url(#pd0e7ca576a)" style="fill: none; stroke: #ffffff; stroke-width: 1.5; stroke-linecap: round"/>
     </g>
     <g id="text_32">
      <!-- 1.25 -->
      <g style="fill: #262626" transform="translate(639.4239 84.474837) scale(0.165 -0.165)">
       <use xlink:href="#Actay-Regular-31"/>
       <use xlink:href="#Actay-Regular-2e" x="37.699997"/>
       <use xlink:href="#Actay-Regular-32" x="56.199982"/>
       <use xlink:href="#Actay-Regular-35" x="117.499969"/>
      </g>
     </g>
    </g>
    <g id="text_33">
     <!-- Плотность -->
     <g style="fill: #262626" transform="translate(625.455931 235.346719) rotate(-90) scale(0.18 -0.18)">
      <use xlink:href="#Actay-Regular-41f"/>
      <use xlink:href="#Actay-Regular-43b" x="75.399994"/>
      <use xlink:href="#Actay-Regular-43e" x="144.799988"/>
      <use xlink:href="#Actay-Regular-442" x="205.899979"/>
      <use xlink:href="#Actay-Regular-43d" x="260.299973"/>
      <use xlink:href="#Actay-Regular-43e" x="325.899963"/>
      <use xlink:href="#Actay-Regular-441" x="386.999954"/>
      <use xlink:href="#Actay-Regular-442" x="447.299942"/>
      <use xlink:href="#Actay-Regular-44c" x="501.699936"/>
     </g>
    </g>
    <g id="text_34">
     <!-- 1e−5 -->
     <g style="fill: #262626" transform="translate(681.773431 74.19) scale(0.165 -0.165)">
      <use xlink:href="#Actay-Regular-31"/>
      <use xlink:href="#Actay-Regular-65" x="37.699997"/>
      <use xlink:href="#Actay-Regular-2212" x="97.799988"/>
      <use xlink:href="#Actay-Regular-35" x="150.299973"/>
     </g>
    </g>
   </g>
   <g id="line2d_31">
    <path d="M 708.383034 291.70102 
L 710.658649 290.867987 
L 712.934264 289.065364 
L 715.209878 285.635666 
L 717.485493 279.926969 
L 719.761108 271.678787 
L 724.312338 250.904405 
L 726.587953 242.256837 
L 728.863568 237.555774 
L 731.139183 237.594437 
L 733.414798 241.45846 
L 735.690413 246.874129 
L 737.966028 251.126923 
L 740.241642 251.997633 
L 742.517257 248.302909 
L 744.792872 239.980136 
L 747.068487 227.879917 
L 749.344102 213.428669 
L 753.895332 183.820827 
L 756.170947 171.244826 
L 758.446562 161.191311 
L 760.722177 153.945214 
L 762.997792 149.495381 
L 765.273406 147.635033 
L 767.549021 148.090408 
L 769.824636 150.644963 
L 772.100251 155.160617 
L 774.375866 161.447982 
L 776.651481 169.094296 
L 781.202711 185.760108 
L 783.478326 193.532689 
L 785.753941 200.541493 
L 788.029555 206.812989 
L 790.30517 212.490706 
L 801.683245 238.89401 
L 803.95886 243.804468 
L 806.234475 247.944676 
L 808.51009 251.125293 
L 810.785705 253.347079 
L 813.061319 254.775099 
L 817.612549 256.633987 
L 819.888164 257.938283 
L 822.163779 259.884401 
L 824.439394 262.39986 
L 826.715009 265.142151 
L 828.990624 267.689978 
L 831.266239 269.732687 
L 833.541854 271.153978 
L 835.817469 272.024599 
L 840.368698 273.114398 
L 842.644313 273.999649 
L 844.919928 275.424278 
L 847.195543 277.339476 
L 849.471158 279.4556 
L 851.746773 281.374367 
L 854.022388 282.76072 
L 856.298003 283.462062 
L 858.573618 283.541086 
L 863.124847 282.889448 
L 865.400462 282.806487 
L 867.676077 283.166973 
L 869.951692 283.952788 
L 874.502922 286.012941 
L 876.778537 286.849988 
L 879.054152 287.403906 
L 881.329767 287.690218 
L 888.156611 287.975258 
L 890.432226 288.237316 
L 899.534686 289.84058 
L 901.810301 289.965049 
L 906.361531 289.767875 
L 910.91276 289.49891 
L 913.188375 289.535076 
L 917.739605 289.972726 
L 922.290835 290.486502 
L 926.842065 290.693102 
L 938.220139 290.712138 
L 942.771369 290.824967 
L 945.046984 290.774876 
L 947.322599 290.600745 
L 956.425059 289.409287 
L 958.700673 289.444889 
L 960.976288 289.711764 
L 970.078748 291.297214 
L 974.629978 291.52818 
L 1015.591046 291.907056 
L 1038.347195 292.065717 
L 1058.827729 291.884537 
L 1065.654574 291.587266 
L 1070.205804 291.366677 
L 1074.757034 291.406388 
L 1088.410723 292.102142 
L 1099.788798 292.117947 
L 1133.923021 292.079818 
L 1143.025481 292.026029 
L 1161.2304 292.214665 
L 1161.2304 292.214665 
" clip-path="url(#pd0e7ca576a)" style="fill: none; stroke: #3e5471; stroke-width: 2.25; stroke-linecap: round"/>
   </g>
   <g id="line2d_32">
    <path d="M 708.123274 291.718578 
L 710.475055 290.887697 
L 712.826835 289.062717 
L 715.178616 285.555134 
L 717.530397 279.685919 
L 719.882178 271.203019 
L 724.585739 250.041083 
L 726.93752 241.388429 
L 729.289301 236.707176 
L 731.641081 236.479507 
L 733.992862 239.378 
L 736.344643 242.787922 
L 738.696424 243.884891 
L 741.048204 240.655473 
L 743.399985 232.446781 
L 745.751766 219.986098 
L 752.807108 175.731537 
L 755.158889 164.454052 
L 757.51067 156.142565 
L 759.86245 150.607033 
L 762.214231 147.497343 
L 764.566012 146.523942 
L 766.917792 147.473888 
L 769.269573 150.172566 
L 771.621354 154.520242 
L 773.973135 160.539535 
L 776.324915 168.272071 
L 778.676696 177.51581 
L 783.380258 197.639973 
L 785.732038 206.623677 
L 788.083819 214.056641 
L 790.4356 219.883037 
L 792.787381 224.336647 
L 795.139161 227.764755 
L 799.842723 233.375984 
L 802.194504 236.595497 
L 804.546284 240.483948 
L 809.249846 249.145844 
L 811.601627 252.908101 
L 813.953407 255.867082 
L 816.305188 258.03176 
L 818.656969 259.560425 
L 821.00875 260.677141 
L 823.36053 261.666408 
L 825.712311 262.850613 
L 828.064092 264.477266 
L 830.415872 266.581964 
L 835.119434 271.27376 
L 837.471215 273.232796 
L 839.822995 274.671871 
L 842.174776 275.564158 
L 844.526557 276.001397 
L 849.230118 276.442499 
L 851.581899 277.050241 
L 853.93368 278.168839 
L 856.285461 279.71847 
L 858.637241 281.434086 
L 860.989022 283.008479 
L 863.340803 284.224017 
L 865.692584 285.001238 
L 868.044364 285.378095 
L 870.396145 285.473133 
L 875.099707 285.508039 
L 877.451487 285.764336 
L 879.803268 286.259427 
L 886.85861 288.193052 
L 889.210391 288.582276 
L 891.562172 288.748591 
L 893.913953 288.721612 
L 898.617514 288.445702 
L 900.969295 288.42195 
L 903.321075 288.570593 
L 912.728198 289.785524 
L 915.079979 289.837246 
L 919.783541 289.586128 
L 924.487102 289.384417 
L 926.838883 289.486525 
L 931.542444 290.078345 
L 936.246006 290.718623 
L 940.949567 290.992409 
L 955.060252 291.096102 
L 959.763813 291.297993 
L 964.467375 291.203972 
L 973.874498 290.38961 
L 976.226278 290.401575 
L 980.92984 290.832107 
L 985.633401 291.40609 
L 990.336963 291.751132 
L 995.040524 291.84651 
L 1030.317236 291.794532 
L 1037.372578 291.918105 
L 1053.835043 292.00641 
L 1060.890385 292.080022 
L 1070.297508 291.896123 
L 1079.704631 291.794008 
L 1105.574219 291.963394 
L 1114.981342 292.050601 
L 1154.961615 292.122758 
L 1176.127642 292.216323 
L 1176.127642 292.216323 
" clip-path="url(#pd0e7ca576a)" style="fill: none; stroke: #4c6b95; stroke-width: 2.25; stroke-linecap: round"/>
   </g>
   <g id="line2d_33">
    <path d="M 707.520371 291.678654 
L 709.844325 290.831832 
L 712.16828 289.016066 
L 714.492235 285.571016 
L 716.816189 279.811159 
L 719.140144 271.377257 
L 721.464099 260.667545 
L 723.788054 249.072271 
L 726.112008 238.718104 
L 728.435963 231.679283 
L 730.759918 229.01115 
L 733.083873 230.179753 
L 735.407827 233.260278 
L 737.731782 235.783343 
L 740.055737 235.719864 
L 742.379691 232.09703 
L 744.703646 225.056211 
L 747.027601 215.501684 
L 753.999465 183.168884 
L 756.32342 174.040738 
L 758.647375 166.524815 
L 760.971329 160.788097 
L 763.295284 156.892193 
L 765.619239 154.883368 
L 767.943193 154.855858 
L 770.267148 156.919302 
L 772.591103 161.050484 
L 774.915058 166.922199 
L 784.210877 194.651737 
L 788.858786 207.927262 
L 793.506695 222.10967 
L 795.83065 228.498486 
L 798.154605 233.746963 
L 800.47856 237.793367 
L 802.802514 240.919759 
L 805.126469 243.469601 
L 807.450424 245.600842 
L 809.774379 247.27883 
L 812.098333 248.49056 
L 814.422288 249.465265 
L 816.746243 250.681425 
L 819.070197 252.626073 
L 821.394152 255.486788 
L 828.366016 265.920766 
L 830.689971 268.464171 
L 833.013926 270.296757 
L 835.337881 271.562002 
L 837.661835 272.396281 
L 839.98579 272.876382 
L 846.957654 273.456908 
L 849.281609 274.118758 
L 851.605564 275.259579 
L 858.577428 279.824063 
L 860.901383 281.008378 
L 863.225337 281.885247 
L 865.549292 282.472226 
L 867.873247 282.778138 
L 870.197202 282.811984 
L 874.845111 282.432353 
L 877.169066 282.414431 
L 879.49302 282.77512 
L 881.816975 283.557739 
L 888.788839 286.792786 
L 891.112794 287.531905 
L 893.436749 287.975726 
L 895.760704 288.1526 
L 898.084658 288.106178 
L 902.732568 287.56989 
L 905.056522 287.265731 
L 907.380477 287.100368 
L 909.704432 287.166503 
L 912.028387 287.480225 
L 921.324206 289.495544 
L 925.972115 290.010888 
L 930.620024 290.132752 
L 939.915843 290.029194 
L 944.563753 290.342971 
L 951.535617 290.86807 
L 958.507481 291.032189 
L 970.127255 291.088939 
L 984.070983 291.701633 
L 991.042847 291.592568 
L 998.014712 291.484786 
L 1004.986576 291.689837 
L 1011.95844 291.861916 
L 1016.606349 291.757892 
L 1023.578214 291.257252 
L 1028.226123 291.026369 
L 1032.874032 291.163967 
L 1042.169851 291.74996 
L 1049.141716 291.875558 
L 1169.987361 292.216345 
L 1169.987361 292.216345 
" clip-path="url(#pd0e7ca576a)" style="fill: none; stroke: #5982b9; stroke-width: 2.25; stroke-linecap: round"/>
   </g>
   <g id="line2d_34">
    <path d="M 705.458563 291.626914 
L 707.838978 290.788527 
L 710.219393 289.068579 
L 712.599809 285.897415 
L 714.980224 280.660241 
L 717.360639 272.950742 
L 719.741055 262.910279 
L 724.501885 240.363853 
L 726.8823 231.532007 
L 729.262716 226.488838 
L 731.643131 225.577053 
L 734.023546 227.759405 
L 736.403961 231.005088 
L 738.784377 233.083047 
L 741.164792 232.353276 
L 743.545207 228.20105 
L 745.925622 221.000236 
L 748.306038 211.740548 
L 753.066868 191.493637 
L 755.447284 182.251128 
L 757.827699 174.423455 
L 760.208114 168.519009 
L 762.588529 164.979327 
L 764.968945 164.06024 
L 767.34936 165.683226 
L 769.729775 169.390636 
L 772.11019 174.474659 
L 776.871021 186.165652 
L 786.392682 209.69451 
L 788.773097 214.926516 
L 791.153513 219.42659 
L 793.533928 223.206646 
L 798.294758 230.029044 
L 800.675174 233.918477 
L 807.81642 247.146332 
L 810.196835 250.739116 
L 812.57725 253.544099 
L 814.957665 255.746453 
L 819.718496 259.461504 
L 822.098911 261.162018 
L 824.479326 262.566985 
L 826.859742 263.505806 
L 829.240157 264.008013 
L 831.620572 264.360674 
L 834.000987 264.991537 
L 836.381403 266.246168 
L 838.761818 268.197734 
L 843.522649 273.053708 
L 845.903064 275.149824 
L 848.283479 276.709356 
L 850.663894 277.781249 
L 853.04431 278.551619 
L 857.80514 279.771872 
L 860.185555 280.230369 
L 862.565971 280.489838 
L 869.707217 280.560687 
L 872.087632 280.888259 
L 874.468047 281.549522 
L 883.989708 285.195858 
L 886.370123 285.750492 
L 888.750539 286.123391 
L 891.130954 286.344183 
L 893.511369 286.416809 
L 895.891784 286.328209 
L 900.652615 285.755627 
L 903.03303 285.463775 
L 905.413446 285.36081 
L 907.793861 285.557212 
L 910.174276 286.072414 
L 914.935107 287.67131 
L 917.315522 288.46047 
L 919.695937 289.087776 
L 922.076352 289.51036 
L 924.456768 289.734434 
L 926.837183 289.788316 
L 929.217598 289.701798 
L 933.978429 289.228711 
L 938.739259 288.70446 
L 941.119675 288.60504 
L 943.50009 288.681901 
L 945.880505 288.926842 
L 955.402166 290.2997 
L 960.162997 290.614567 
L 964.923827 290.687302 
L 969.684658 290.550212 
L 976.825904 290.304696 
L 981.586734 290.514914 
L 993.488811 291.531083 
L 998.249641 291.624653 
L 1003.010472 291.521874 
L 1012.532133 291.176489 
L 1017.292963 291.312234 
L 1029.19504 291.968881 
L 1036.336285 292.043002 
L 1045.857946 291.849551 
L 1052.999192 291.763828 
L 1072.042514 291.831044 
L 1086.325006 291.497572 
L 1093.466252 291.749225 
L 1100.607498 291.991277 
L 1112.509574 292.096916 
L 1143.454973 292.102104 
L 1155.357049 291.929339 
L 1167.259125 292.132442 
L 1179.161202 292.214333 
L 1179.161202 292.214333 
" clip-path="url(#pd0e7ca576a)" style="fill: none; stroke: #6699dd; stroke-width: 2.25; stroke-linecap: round"/>
   </g>
   <g id="patch_9">
    <path d="M 681.773431 292.216875 
L 681.773431 77.19 
" style="fill: none; stroke: #ffffff; stroke-width: 1.875; stroke-linejoin: miter; stroke-linecap: square"/>
   </g>
   <g id="patch_10">
    <path d="M 1202.846334 292.216875 
L 1202.846334 77.19 
" style="fill: none; stroke: #ffffff; stroke-width: 1.875; stroke-linejoin: miter; stroke-linecap: square"/>
   </g>
   <g id="patch_11">
    <path d="M 681.773431 292.216875 
L 1202.846334 292.216875 
" style="fill: none; stroke: #ffffff; stroke-width: 1.875; stroke-linejoin: miter; stroke-linecap: square"/>
   </g>
   <g id="patch_12">
    <path d="M 681.773431 77.19 
L 1202.846334 77.19 
" style="fill: none; stroke: #ffffff; stroke-width: 1.875; stroke-linejoin: miter; stroke-linecap: square"/>
   </g>
   <g id="text_35">
    <!-- С пересчетом на ИПЦ -->
    <g style="fill: #262626" transform="translate(841.026132 71.19) scale(0.18 -0.18)">
     <defs>
      <path id="Actay-Regular-421" d="M 1257 3565 
Q 787 3040 787 2240 
Q 787 1440 1260 915 
Q 1734 390 2451 390 
Q 2982 390 3395 675 
Q 3808 960 4006 1453 
L 4557 1453 
Q 4314 736 3760 320 
Q 3206 -96 2464 -96 
Q 1523 -96 899 569 
Q 275 1235 275 2234 
Q 275 3245 896 3910 
Q 1517 4576 2464 4576 
Q 3200 4576 3757 4160 
Q 4314 3744 4557 3027 
L 4000 3027 
Q 3808 3520 3395 3805 
Q 2982 4090 2451 4090 
Q 1728 4090 1257 3565 
z
" transform="scale(0.015625)"/>
     </defs>
     <use xlink:href="#Actay-Regular-421"/>
     <use xlink:href="#Actay-Regular-20" x="75.199982"/>
     <use xlink:href="#Actay-Regular-43f" x="100.199966"/>
     <use xlink:href="#Actay-Regular-435" x="162.699951"/>
     <use xlink:href="#Actay-Regular-440" x="222.799942"/>
     <use xlink:href="#Actay-Regular-435" x="286.299927"/>
     <use xlink:href="#Actay-Regular-441" x="346.399918"/>
     <use xlink:href="#Actay-Regular-447" x="406.699905"/>
     <use xlink:href="#Actay-Regular-435" x="468.899902"/>
     <use xlink:href="#Actay-Regular-442" x="528.999893"/>
     <use xlink:href="#Actay-Regular-43e" x="583.399887"/>
     <use xlink:href="#Actay-Regular-43c" x="644.499878"/>
     <use xlink:href="#Actay-Regular-20" x="714.799866"/>
     <use xlink:href="#Actay-Regular-43d" x="739.79985"/>
     <use xlink:href="#Actay-Regular-430" x="805.399841"/>
     <use xlink:href="#Actay-Regular-20" x="868.899826"/>
     <use xlink:href="#Actay-Regular-418" x="893.899811"/>
     <use xlink:href="#Actay-Regular-41f" x="969.199799"/>
     <use xlink:href="#Actay-Regular-426" x="1044.599792"/>
    </g>
   </g>
   <g id="legend_2">
    <g id="patch_13">
     <path d="M 1096.158365 207.24 
L 1191.296334 207.24 
Q 1194.596334 207.24 1194.596334 203.94 
L 1194.596334 88.74 
Q 1194.596334 85.44 1191.296334 85.44 
L 1096.158365 85.44 
Q 1092.858365 85.44 1092.858365 88.74 
L 1092.858365 203.94 
Q 1092.858365 207.24 1096.158365 207.24 
z
" style="fill: #eaeaf2; opacity: 0.8; stroke: #cccccc; stroke-width: 1.5; stroke-linejoin: miter"/>
    </g>
    <g id="text_36">
     <!-- Год -->
     <g style="fill: #262626" transform="translate(1126.969068 104.64) scale(0.18 -0.18)">
      <use xlink:href="#Actay-Regular-413"/>
      <use xlink:href="#Actay-Regular-43e" x="55.199997"/>
      <use xlink:href="#Actay-Regular-434" x="116.299988"/>
     </g>
    </g>
    <g id="line2d_35">
     <path d="M 1099.458365 122.265 
L 1115.958365 122.265 
L 1132.458365 122.265 
" style="fill: none; stroke: #3e5471; stroke-width: 2.25; stroke-linecap: round"/>
    </g>
    <g id="text_37">
     <!-- 2013 -->
     <g style="fill: #262626" transform="translate(1145.658365 128.04) scale(0.165 -0.165)">
      <use xlink:href="#Actay-Regular-32"/>
      <use xlink:href="#Actay-Regular-30" x="61.299988"/>
      <use xlink:href="#Actay-Regular-31" x="128.299973"/>
      <use xlink:href="#Actay-Regular-33" x="165.999969"/>
     </g>
    </g>
    <g id="line2d_36">
     <path d="M 1099.458365 145.365 
L 1115.958365 145.365 
L 1132.458365 145.365 
" style="fill: none; stroke: #4c6b95; stroke-width: 2.25; stroke-linecap: round"/>
    </g>
    <g id="text_38">
     <!-- 2015 -->
     <g style="fill: #262626" transform="translate(1145.658365 151.14) scale(0.165 -0.165)">
      <use xlink:href="#Actay-Regular-32"/>
      <use xlink:href="#Actay-Regular-30" x="61.299988"/>
      <use xlink:href="#Actay-Regular-31" x="128.299973"/>
      <use xlink:href="#Actay-Regular-35" x="165.999969"/>
     </g>
    </g>
    <g id="line2d_37">
     <path d="M 1099.458365 168.465 
L 1115.958365 168.465 
L 1132.458365 168.465 
" style="fill: none; stroke: #5982b9; stroke-width: 2.25; stroke-linecap: round"/>
    </g>
    <g id="text_39">
     <!-- 2018 -->
     <g style="fill: #262626" transform="translate(1145.658365 174.24) scale(0.165 -0.165)">
      <use xlink:href="#Actay-Regular-32"/>
      <use xlink:href="#Actay-Regular-30" x="61.299988"/>
      <use xlink:href="#Actay-Regular-31" x="128.299973"/>
      <use xlink:href="#Actay-Regular-38" x="165.999969"/>
     </g>
    </g>
    <g id="line2d_38">
     <path d="M 1099.458365 191.565 
L 1115.958365 191.565 
L 1132.458365 191.565 
" style="fill: none; stroke: #6699dd; stroke-width: 2.25; stroke-linecap: round"/>
    </g>
    <g id="text_40">
     <!-- 2020 -->
     <g style="fill: #262626" transform="translate(1145.658365 197.34) scale(0.165 -0.165)">
      <use xlink:href="#Actay-Regular-32"/>
      <use xlink:href="#Actay-Regular-30" x="61.299988"/>
      <use xlink:href="#Actay-Regular-32" x="128.299973"/>
      <use xlink:href="#Actay-Regular-30" x="189.59996"/>
     </g>
    </g>
   </g>
  </g>
  <g id="text_41">
   <!-- Распределение доходов респондентов разных волн -->
   <g style="fill: #262626" transform="translate(316.938938 22.32) scale(0.216 -0.216)">
    <defs>
     <path id="Actay-Regular-420" d="M 493 0 
L 493 4480 
L 2336 4480 
Q 3053 4480 3545 4048 
Q 4038 3616 4038 2957 
Q 4038 2323 3529 1875 
Q 3021 1427 2336 1427 
L 1005 1427 
L 1005 0 
L 493 0 
z
M 3526 2957 
Q 3526 3405 3187 3702 
Q 2848 4000 2336 4000 
L 1005 4000 
L 1005 1907 
L 2336 1907 
Q 2829 1907 3177 2211 
Q 3526 2515 3526 2957 
z
" transform="scale(0.015625)"/>
     <path id="Actay-Regular-432" d="M 493 0 
L 493 3200 
L 2016 3200 
Q 2554 3200 2883 2973 
Q 3213 2746 3213 2381 
Q 3213 2131 3037 1932 
Q 2861 1734 2566 1632 
Q 2938 1549 3149 1350 
Q 3360 1152 3360 864 
Q 3360 480 2989 240 
Q 2618 0 2016 0 
L 493 0 
z
M 2752 2323 
Q 2752 2560 2550 2697 
Q 2349 2835 2016 2835 
L 966 2835 
L 966 1792 
L 2016 1792 
Q 2323 1792 2537 1945 
Q 2752 2099 2752 2323 
z
M 2886 902 
Q 2886 1152 2652 1299 
Q 2419 1446 2016 1446 
L 966 1446 
L 966 371 
L 2016 371 
Q 2413 371 2649 515 
Q 2886 659 2886 902 
z
" transform="scale(0.015625)"/>
     <path id="Actay-Regular-44b" d="M 493 3200 
L 1005 3200 
L 1005 2342 
L 2074 2342 
Q 2797 2342 3219 2025 
Q 3642 1709 3642 1171 
Q 3642 608 3235 304 
Q 2829 0 2074 0 
L 493 0 
L 493 3200 
z
M 4326 3200 
L 4838 3200 
L 4838 0 
L 4326 0 
L 4326 3200 
z
M 3130 1171 
Q 3130 1523 2845 1724 
Q 2560 1926 2074 1926 
L 1005 1926 
L 1005 410 
L 2074 410 
Q 2579 410 2854 608 
Q 3130 806 3130 1171 
z
" transform="scale(0.015625)"/>
    </defs>
    <use xlink:href="#Actay-Regular-420"/>
    <use xlink:href="#Actay-Regular-430" x="67.399994"/>
    <use xlink:href="#Actay-Regular-441" x="130.899979"/>
    <use xlink:href="#Actay-Regular-43f" x="191.199966"/>
    <use xlink:href="#Actay-Regular-440" x="253.699951"/>
    <use xlink:href="#Actay-Regular-435" x="317.199936"/>
    <use xlink:href="#Actay-Regular-434" x="377.299927"/>
    <use xlink:href="#Actay-Regular-435" x="447.199921"/>
    <use xlink:href="#Actay-Regular-43b" x="507.299911"/>
    <use xlink:href="#Actay-Regular-435" x="576.699905"/>
    <use xlink:href="#Actay-Regular-43d" x="636.799896"/>
    <use xlink:href="#Actay-Regular-438" x="702.399887"/>
    <use xlink:href="#Actay-Regular-435" x="767.499878"/>
    <use xlink:href="#Actay-Regular-20" x="827.599869"/>
    <use xlink:href="#Actay-Regular-434" x="852.599854"/>
    <use xlink:href="#Actay-Regular-43e" x="922.499847"/>
    <use xlink:href="#Actay-Regular-445" x="983.599838"/>
    <use xlink:href="#Actay-Regular-43e" x="1033.299835"/>
    <use xlink:href="#Actay-Regular-434" x="1094.399826"/>
    <use xlink:href="#Actay-Regular-43e" x="1164.29982"/>
    <use xlink:href="#Actay-Regular-432" x="1225.399811"/>
    <use xlink:href="#Actay-Regular-20" x="1282.099808"/>
    <use xlink:href="#Actay-Regular-440" x="1307.099792"/>
    <use xlink:href="#Actay-Regular-435" x="1370.599777"/>
    <use xlink:href="#Actay-Regular-441" x="1430.699768"/>
    <use xlink:href="#Actay-Regular-43f" x="1490.999756"/>
    <use xlink:href="#Actay-Regular-43e" x="1553.499741"/>
    <use xlink:href="#Actay-Regular-43d" x="1614.599731"/>
    <use xlink:href="#Actay-Regular-434" x="1680.199722"/>
    <use xlink:href="#Actay-Regular-435" x="1750.099716"/>
    <use xlink:href="#Actay-Regular-43d" x="1810.199707"/>
    <use xlink:href="#Actay-Regular-442" x="1875.799698"/>
    <use xlink:href="#Actay-Regular-43e" x="1930.199692"/>
    <use xlink:href="#Actay-Regular-432" x="1991.299683"/>
    <use xlink:href="#Actay-Regular-20" x="2047.99968"/>
    <use xlink:href="#Actay-Regular-440" x="2072.999664"/>
    <use xlink:href="#Actay-Regular-430" x="2136.499649"/>
    <use xlink:href="#Actay-Regular-437" x="2199.999634"/>
    <use xlink:href="#Actay-Regular-43d" x="2255.699631"/>
    <use xlink:href="#Actay-Regular-44b" x="2321.299622"/>
    <use xlink:href="#Actay-Regular-445" x="2404.599609"/>
    <use xlink:href="#Actay-Regular-20" x="2454.299606"/>
    <use xlink:href="#Actay-Regular-432" x="2479.299591"/>
    <use xlink:href="#Actay-Regular-43e" x="2535.999588"/>
    <use xlink:href="#Actay-Regular-43b" x="2597.099579"/>
    <use xlink:href="#Actay-Regular-43d" x="2666.499573"/>
   </g>
  </g>
 </g>
 <defs>
  <clipPath id="pb6094f19c1">
   <rect x="77.369531" y="77.19" width="521.072903" height="215.026875"/>
  </clipPath>
  <clipPath id="pd0e7ca576a">
   <rect x="681.773431" y="77.19" width="521.072903" height="215.026875"/>
  </clipPath>
 </defs>
</svg>
