<?xml version="1.0" encoding="utf-8" standalone="no"?>
<!DOCTYPE svg PUBLIC "-//W3C//DTD SVG 1.1//EN"
  "http://www.w3.org/Graphics/SVG/1.1/DTD/svg11.dtd">
<svg xmlns:xlink="http://www.w3.org/1999/xlink" width="1152pt" height="360pt" viewBox="0 0 1152 360" xmlns="http://www.w3.org/2000/svg" version="1.1">
 <metadata>
  <rdf:RDF xmlns:dc="http://purl.org/dc/elements/1.1/" xmlns:cc="http://creativecommons.org/ns#" xmlns:rdf="http://www.w3.org/1999/02/22-rdf-syntax-ns#">
   <cc:Work>
    <dc:type rdf:resource="http://purl.org/dc/dcmitype/StillImage"/>
    <dc:date>2024-05-04T16:39:33.472464</dc:date>
    <dc:format>image/svg+xml</dc:format>
    <dc:creator>
     <cc:Agent>
      <dc:title>Matplotlib v3.8.1, https://matplotlib.org/</dc:title>
     </cc:Agent>
    </dc:creator>
   </cc:Work>
  </rdf:RDF>
 </metadata>
 <defs>
  <style type="text/css">*{stroke-linejoin: round; stroke-linecap: butt}</style>
 </defs>
 <g id="figure_1">
  <g id="patch_1">
   <path d="M 0 360 
L 1152 360 
L 1152 0 
L 0 0 
z
" style="fill: #ffffff"/>
  </g>
  <g id="axes_1">
   <g id="patch_2">
    <path d="M 28.44 114.962438 
L 1132.56 114.962438 
L 1132.56 78.664875 
L 28.44 78.664875 
z
" style="fill: #ffffff"/>
   </g>
   <g id="matplotlib.axis_1">
    <g id="xtick_1">
     <g id="line2d_1">
      <defs>
       <path id="me4986d9197" d="M 0 0 
L 0 9 
" style="stroke: #262626; stroke-width: 1.875"/>
      </defs>
      <g>
       <use xlink:href="#me4986d9197" x="28.44" y="114.962438" style="fill: #262626; stroke: #262626; stroke-width: 1.875"/>
      </g>
     </g>
     <g id="text_1">
      <!-- 0 -->
      <g style="fill: #262626" transform="translate(22.9125 139.012438) scale(0.165 -0.165)">
       <defs>
        <path id="Actay-Regular-30" d="M 275 2234 
Q 275 3245 803 3910 
Q 1331 4576 2144 4576 
Q 2963 4576 3494 3923 
Q 4026 3270 4026 2234 
Q 4026 1210 3494 557 
Q 2963 -96 2144 -96 
Q 1338 -96 806 569 
Q 275 1235 275 2234 
z
M 787 2240 
Q 787 1440 1171 915 
Q 1555 390 2150 390 
Q 2746 390 3130 912 
Q 3514 1434 3514 2240 
Q 3514 3053 3133 3571 
Q 2752 4090 2150 4090 
Q 1549 4090 1168 3568 
Q 787 3046 787 2240 
z
" transform="scale(0.015625)"/>
       </defs>
       <use xlink:href="#Actay-Regular-30"/>
      </g>
     </g>
    </g>
    <g id="xtick_2">
     <g id="line2d_2">
      <g>
       <use xlink:href="#me4986d9197" x="196.249593" y="114.962438" style="fill: #262626; stroke: #262626; stroke-width: 1.875"/>
      </g>
     </g>
     <g id="text_2">
      <!-- 5000 -->
      <g style="fill: #262626" transform="translate(174.436078 139.012438) scale(0.165 -0.165)">
       <defs>
        <path id="Actay-Regular-35" d="M 2086 -96 
Q 1395 -96 912 406 
Q 429 909 429 1638 
L 941 1638 
Q 941 1094 1267 742 
Q 1594 390 2086 390 
Q 2541 390 2825 662 
Q 3110 934 3110 1370 
Q 3110 1818 2803 2077 
Q 2496 2336 1971 2336 
L 870 2336 
L 634 2605 
L 736 4480 
L 3277 4480 
L 3277 3968 
L 1184 3968 
L 1120 2746 
L 2022 2746 
Q 2758 2746 3190 2371 
Q 3622 1997 3622 1370 
Q 3622 736 3187 320 
Q 2752 -96 2086 -96 
z
" transform="scale(0.015625)"/>
       </defs>
       <use xlink:href="#Actay-Regular-35"/>
       <use xlink:href="#Actay-Regular-30" x="63.399994"/>
       <use xlink:href="#Actay-Regular-30" x="130.399979"/>
       <use xlink:href="#Actay-Regular-30" x="197.399963"/>
      </g>
     </g>
    </g>
    <g id="xtick_3">
     <g id="line2d_3">
      <g>
       <use xlink:href="#me4986d9197" x="364.059187" y="114.962438" style="fill: #262626; stroke: #262626; stroke-width: 1.875"/>
      </g>
     </g>
     <g id="text_3">
      <!-- 10000 -->
      <g style="fill: #262626" transform="translate(338.838679 139.012438) scale(0.165 -0.165)">
       <defs>
        <path id="Actay-Regular-31" d="M 230 3539 
L 230 4038 
Q 941 4058 1491 4480 
L 1914 4480 
L 1914 0 
L 1402 0 
L 1402 3821 
Q 928 3558 230 3539 
z
" transform="scale(0.015625)"/>
       </defs>
       <use xlink:href="#Actay-Regular-31"/>
       <use xlink:href="#Actay-Regular-30" x="37.699997"/>
       <use xlink:href="#Actay-Regular-30" x="104.699982"/>
       <use xlink:href="#Actay-Regular-30" x="171.699966"/>
       <use xlink:href="#Actay-Regular-30" x="238.699951"/>
      </g>
     </g>
    </g>
    <g id="xtick_4">
     <g id="line2d_4">
      <g>
       <use xlink:href="#me4986d9197" x="531.86878" y="114.962438" style="fill: #262626; stroke: #262626; stroke-width: 1.875"/>
      </g>
     </g>
     <g id="text_4">
      <!-- 15000 -->
      <g style="fill: #262626" transform="translate(506.944756 139.012438) scale(0.165 -0.165)">
       <use xlink:href="#Actay-Regular-31"/>
       <use xlink:href="#Actay-Regular-35" x="37.699997"/>
       <use xlink:href="#Actay-Regular-30" x="101.099991"/>
       <use xlink:href="#Actay-Regular-30" x="168.099976"/>
       <use xlink:href="#Actay-Regular-30" x="235.09996"/>
      </g>
     </g>
    </g>
    <g id="xtick_5">
     <g id="line2d_5">
      <g>
       <use xlink:href="#me4986d9197" x="699.678373" y="114.962438" style="fill: #262626; stroke: #262626; stroke-width: 1.875"/>
      </g>
     </g>
     <g id="text_5">
      <!-- 20000 -->
      <g style="fill: #262626" transform="translate(672.511381 139.012438) scale(0.165 -0.165)">
       <defs>
        <path id="Actay-Regular-32" d="M 1971 4576 
Q 2637 4576 3033 4211 
Q 3430 3846 3430 3200 
Q 3430 2867 3299 2633 
Q 3168 2400 2957 2262 
Q 2746 2125 2486 2019 
Q 2227 1914 1968 1802 
Q 1709 1690 1491 1542 
Q 1274 1395 1130 1132 
Q 986 870 973 512 
L 3488 512 
L 3488 0 
L 429 0 
L 429 339 
Q 429 806 566 1145 
Q 704 1485 925 1670 
Q 1146 1856 1411 1990 
Q 1677 2125 1939 2224 
Q 2202 2323 2422 2435 
Q 2643 2547 2780 2745 
Q 2918 2944 2918 3226 
Q 2918 3629 2659 3859 
Q 2400 4090 1971 4090 
Q 1485 4090 1213 3776 
Q 941 3462 941 2874 
L 429 2874 
Q 429 3667 848 4121 
Q 1267 4576 1971 4576 
z
" transform="scale(0.015625)"/>
       </defs>
       <use xlink:href="#Actay-Regular-32"/>
       <use xlink:href="#Actay-Regular-30" x="61.299988"/>
       <use xlink:href="#Actay-Regular-30" x="128.299973"/>
       <use xlink:href="#Actay-Regular-30" x="195.299957"/>
       <use xlink:href="#Actay-Regular-30" x="262.299942"/>
      </g>
     </g>
    </g>
    <g id="xtick_6">
     <g id="line2d_6">
      <g>
       <use xlink:href="#me4986d9197" x="867.487966" y="114.962438" style="fill: #262626; stroke: #262626; stroke-width: 1.875"/>
      </g>
     </g>
     <g id="text_6">
      <!-- 25000 -->
      <g style="fill: #262626" transform="translate(840.617459 139.012438) scale(0.165 -0.165)">
       <use xlink:href="#Actay-Regular-32"/>
       <use xlink:href="#Actay-Regular-35" x="61.299988"/>
       <use xlink:href="#Actay-Regular-30" x="124.699982"/>
       <use xlink:href="#Actay-Regular-30" x="191.699966"/>
       <use xlink:href="#Actay-Regular-30" x="258.699951"/>
      </g>
     </g>
    </g>
    <g id="xtick_7">
     <g id="line2d_7">
      <g>
       <use xlink:href="#me4986d9197" x="1035.29756" y="114.962438" style="fill: #262626; stroke: #262626; stroke-width: 1.875"/>
      </g>
     </g>
     <g id="text_7">
      <!-- 30000 -->
      <g style="fill: #262626" transform="translate(1008.023575 139.012438) scale(0.165 -0.165)">
       <defs>
        <path id="Actay-Regular-33" d="M 2739 3968 
L 672 3968 
L 672 4480 
L 3450 4480 
L 3450 4051 
L 2157 2656 
L 2208 2656 
Q 2822 2656 3228 2317 
Q 3635 1978 3635 1325 
Q 3635 717 3200 310 
Q 2765 -96 2106 -96 
Q 1402 -96 915 413 
Q 429 922 429 1664 
L 941 1664 
Q 941 1120 1270 755 
Q 1600 390 2093 390 
Q 2534 390 2828 656 
Q 3123 922 3123 1318 
Q 3123 1734 2844 1993 
Q 2566 2253 2106 2253 
L 1779 2253 
L 1504 2566 
L 2739 3968 
z
" transform="scale(0.015625)"/>
       </defs>
       <use xlink:href="#Actay-Regular-33"/>
       <use xlink:href="#Actay-Regular-30" x="62.599991"/>
       <use xlink:href="#Actay-Regular-30" x="129.599976"/>
       <use xlink:href="#Actay-Regular-30" x="196.59996"/>
       <use xlink:href="#Actay-Regular-30" x="263.599945"/>
      </g>
     </g>
    </g>
    <g id="text_8">
     <!-- Количество ответов -->
     <g style="fill: #262626" transform="translate(486.531563 158.912438) scale(0.18 -0.18)">
      <defs>
       <path id="Actay-Regular-41a" d="M 1005 2010 
L 1005 0 
L 493 0 
L 493 4480 
L 1005 4480 
L 1005 2470 
L 1734 2470 
L 3322 4480 
L 3936 4480 
L 2144 2240 
L 4109 0 
L 3475 0 
L 1728 2010 
L 1005 2010 
z
" transform="scale(0.015625)"/>
       <path id="Actay-Regular-43e" d="M 275 1594 
Q 275 2330 755 2813 
Q 1235 3296 1958 3296 
Q 2701 3296 3181 2822 
Q 3661 2349 3661 1594 
Q 3661 851 3181 377 
Q 2701 -96 1958 -96 
Q 1235 -96 755 387 
Q 275 870 275 1594 
z
M 787 1600 
Q 787 1082 1123 736 
Q 1459 390 1958 390 
Q 2490 390 2819 723 
Q 3149 1056 3149 1600 
Q 3149 2144 2819 2480 
Q 2490 2816 1958 2816 
Q 1453 2816 1120 2470 
Q 787 2125 787 1600 
z
" transform="scale(0.015625)"/>
       <path id="Actay-Regular-43b" d="M 986 1338 
L 1235 3200 
L 3942 3200 
L 3942 0 
L 3430 0 
L 3430 2720 
L 1683 2720 
L 1498 1299 
Q 1414 538 1132 221 
Q 851 -96 275 -96 
L 275 371 
Q 602 371 758 588 
Q 915 806 986 1338 
z
" transform="scale(0.015625)"/>
       <path id="Actay-Regular-438" d="M 3680 0 
L 3168 0 
L 3168 2413 
L 922 0 
L 493 0 
L 493 3200 
L 1005 3200 
L 1005 800 
L 3258 3200 
L 3680 3200 
L 3680 0 
z
" transform="scale(0.015625)"/>
       <path id="Actay-Regular-447" d="M 2970 2432 
L 2970 3200 
L 3482 3200 
L 3482 0 
L 2970 0 
L 2970 1408 
Q 2586 749 1869 749 
Q 1254 749 873 1209 
Q 493 1670 493 2432 
L 493 3200 
L 1005 3200 
L 1005 2432 
Q 1005 1894 1277 1561 
Q 1549 1229 1990 1229 
Q 2419 1229 2694 1565 
Q 2970 1901 2970 2432 
z
" transform="scale(0.015625)"/>
       <path id="Actay-Regular-435" d="M 3565 1453 
L 794 1453 
Q 838 954 1148 634 
Q 1459 314 1914 314 
Q 2592 314 2938 909 
L 3462 909 
Q 3264 442 2854 173 
Q 2445 -96 1914 -96 
Q 1210 -96 742 387 
Q 275 870 275 1594 
Q 275 2330 739 2813 
Q 1203 3296 1914 3296 
Q 2643 3296 3107 2822 
Q 3571 2349 3571 1594 
Q 3571 1574 3568 1526 
Q 3565 1478 3565 1453 
z
M 794 1747 
L 3053 1747 
Q 3008 2253 2697 2563 
Q 2387 2874 1914 2874 
Q 1459 2874 1148 2560 
Q 838 2246 794 1747 
z
" transform="scale(0.015625)"/>
       <path id="Actay-Regular-441" d="M 1116 2483 
Q 787 2131 787 1600 
Q 787 1069 1116 720 
Q 1446 371 1952 371 
Q 2349 371 2646 576 
Q 2944 781 3072 1126 
L 3603 1126 
Q 3443 570 3001 237 
Q 2560 -96 1952 -96 
Q 1235 -96 755 387 
Q 275 870 275 1594 
Q 275 2330 752 2813 
Q 1229 3296 1952 3296 
Q 2554 3296 2995 2966 
Q 3437 2637 3597 2080 
L 3066 2080 
Q 2931 2419 2633 2627 
Q 2336 2835 1952 2835 
Q 1446 2835 1116 2483 
z
" transform="scale(0.015625)"/>
       <path id="Actay-Regular-442" d="M 1485 0 
L 1485 2720 
L 166 2720 
L 166 3200 
L 3322 3200 
L 3322 2720 
L 1997 2720 
L 1997 0 
L 1485 0 
z
" transform="scale(0.015625)"/>
       <path id="Actay-Regular-432" d="M 493 0 
L 493 3200 
L 2016 3200 
Q 2554 3200 2883 2973 
Q 3213 2746 3213 2381 
Q 3213 2131 3037 1932 
Q 2861 1734 2566 1632 
Q 2938 1549 3149 1350 
Q 3360 1152 3360 864 
Q 3360 480 2989 240 
Q 2618 0 2016 0 
L 493 0 
z
M 2752 2323 
Q 2752 2560 2550 2697 
Q 2349 2835 2016 2835 
L 966 2835 
L 966 1792 
L 2016 1792 
Q 2323 1792 2537 1945 
Q 2752 2099 2752 2323 
z
M 2886 902 
Q 2886 1152 2652 1299 
Q 2419 1446 2016 1446 
L 966 1446 
L 966 371 
L 2016 371 
Q 2413 371 2649 515 
Q 2886 659 2886 902 
z
" transform="scale(0.015625)"/>
       <path id="Actay-Regular-20" transform="scale(0.015625)"/>
      </defs>
      <use xlink:href="#Actay-Regular-41a"/>
      <use xlink:href="#Actay-Regular-43e" x="64.199997"/>
      <use xlink:href="#Actay-Regular-43b" x="125.299988"/>
      <use xlink:href="#Actay-Regular-438" x="194.699982"/>
      <use xlink:href="#Actay-Regular-447" x="259.799973"/>
      <use xlink:href="#Actay-Regular-435" x="321.999969"/>
      <use xlink:href="#Actay-Regular-441" x="382.09996"/>
      <use xlink:href="#Actay-Regular-442" x="442.399948"/>
      <use xlink:href="#Actay-Regular-432" x="496.799942"/>
      <use xlink:href="#Actay-Regular-43e" x="553.499939"/>
      <use xlink:href="#Actay-Regular-20" x="614.59993"/>
      <use xlink:href="#Actay-Regular-43e" x="639.599915"/>
      <use xlink:href="#Actay-Regular-442" x="700.699905"/>
      <use xlink:href="#Actay-Regular-432" x="755.099899"/>
      <use xlink:href="#Actay-Regular-435" x="811.799896"/>
      <use xlink:href="#Actay-Regular-442" x="871.899887"/>
      <use xlink:href="#Actay-Regular-43e" x="926.299881"/>
      <use xlink:href="#Actay-Regular-432" x="987.399872"/>
     </g>
     <!--  -->
     <g style="fill: #262626" transform="translate(580.5 177.632438) scale(0.18 -0.18)"/>
     <!--  -->
     <g style="fill: #262626" transform="translate(580.5 196.352438) scale(0.18 -0.18)"/>
    </g>
   </g>
   <g id="matplotlib.axis_2">
    <g id="ytick_1">
     <g id="line2d_8">
      <defs>
       <path id="m4dbeb44f12" d="M 0 0 
L -9 0 
" style="stroke: #262626; stroke-width: 1.875"/>
      </defs>
      <g>
       <use xlink:href="#m4dbeb44f12" x="28.44" y="96.813656" style="fill: #262626; stroke: #262626; stroke-width: 1.875"/>
      </g>
     </g>
    </g>
   </g>
   <g id="patch_3">
    <path d="M 28.44 82.294631 
L 1132.56 82.294631 
L 1132.56 111.332681 
L 28.44 111.332681 
z
" clip-path="url(#p5ac987f33b)" style="fill: #252629; stroke: #ffffff; stroke-width: 1.5; stroke-linejoin: miter"/>
   </g>
   <g id="patch_4">
    <path d="M 28.44 96.813656 
L 28.44 96.813656 
L 28.44 96.813656 
L 28.44 96.813656 
z
" clip-path="url(#p5ac987f33b)" style="fill: #252629; stroke: #ffffff; stroke-width: 1.5; stroke-linejoin: miter"/>
   </g>
   <g id="patch_5">
    <path d="M 28.44 82.294631 
L 862.453679 82.294631 
L 862.453679 111.332681 
L 28.44 111.332681 
z
" clip-path="url(#p5ac987f33b)" style="fill: #5875a4; stroke: #ffffff; stroke-width: 1.5; stroke-linejoin: miter"/>
   </g>
   <g id="patch_6">
    <path d="M 28.44 96.813656 
L 28.44 96.813656 
L 28.44 96.813656 
L 28.44 96.813656 
z
" clip-path="url(#p5ac987f33b)" style="fill: #5875a4; stroke: #ffffff; stroke-width: 1.5; stroke-linejoin: miter"/>
   </g>
   <g id="line2d_9">
    <path clip-path="url(#p5ac987f33b)" style="fill: none; stroke: #424242; stroke-width: 3.375; stroke-linecap: round"/>
   </g>
   <g id="line2d_10">
    <path clip-path="url(#p5ac987f33b)" style="fill: none; stroke: #424242; stroke-width: 3.375; stroke-linecap: round"/>
   </g>
   <g id="patch_7">
    <path d="M 28.44 114.962438 
L 28.44 78.664875 
" style="fill: none; stroke: #262626; stroke-width: 1.875; stroke-linejoin: miter; stroke-linecap: square"/>
   </g>
   <g id="patch_8">
    <path d="M 1132.56 114.962438 
L 1132.56 78.664875 
" style="fill: none; stroke: #262626; stroke-width: 1.875; stroke-linejoin: miter; stroke-linecap: square"/>
   </g>
   <g id="patch_9">
    <path d="M 28.44 114.962438 
L 1132.56 114.962438 
" style="fill: none; stroke: #262626; stroke-width: 1.875; stroke-linejoin: miter; stroke-linecap: square"/>
   </g>
   <g id="patch_10">
    <path d="M 28.44 78.664875 
L 1132.56 78.664875 
" style="fill: none; stroke: #262626; stroke-width: 1.875; stroke-linejoin: miter; stroke-linecap: square"/>
   </g>
   <g id="text_9">
    <!-- Оплата отпуска по беременности, родам, по уходу за ребенком -->
    <g style="fill: #262626" transform="translate(286.955156 72.664875) scale(0.18 -0.18)">
     <defs>
      <path id="Actay-Regular-41e" d="M 275 2234 
Q 275 3245 899 3910 
Q 1523 4576 2464 4576 
Q 3430 4576 4048 3920 
Q 4666 3264 4666 2234 
Q 4666 1210 4045 557 
Q 3424 -96 2464 -96 
Q 1530 -96 902 569 
Q 275 1235 275 2234 
z
M 1260 3565 
Q 787 3040 787 2240 
Q 787 1440 1264 915 
Q 1741 390 2464 390 
Q 3213 390 3683 905 
Q 4154 1421 4154 2240 
Q 4154 3059 3686 3574 
Q 3219 4090 2464 4090 
Q 1734 4090 1260 3565 
z
" transform="scale(0.015625)"/>
      <path id="Actay-Regular-43f" d="M 493 3200 
L 3603 3200 
L 3603 0 
L 3091 0 
L 3091 2720 
L 1005 2720 
L 1005 0 
L 493 0 
L 493 3200 
z
" transform="scale(0.015625)"/>
      <path id="Actay-Regular-430" d="M 3578 0 
L 3136 0 
L 3072 659 
Q 2880 301 2547 102 
Q 2214 -96 1811 -96 
Q 1152 -96 710 387 
Q 269 870 269 1594 
Q 269 2323 710 2809 
Q 1152 3296 1811 3296 
Q 2214 3296 2544 3097 
Q 2874 2899 3066 2541 
L 3136 3200 
L 3578 3200 
L 3578 0 
z
M 781 1600 
Q 781 1069 1110 720 
Q 1440 371 1946 371 
Q 2438 371 2752 713 
Q 3066 1056 3066 1600 
Q 3066 2144 2752 2489 
Q 2438 2835 1946 2835 
Q 1434 2835 1107 2489 
Q 781 2144 781 1600 
z
" transform="scale(0.015625)"/>
      <path id="Actay-Regular-443" d="M 2016 -1261 
L 1478 -1261 
L 1914 0 
L 1088 0 
L 0 3200 
L 525 3200 
L 1440 531 
L 2093 531 
L 3008 3200 
L 3526 3200 
L 2016 -1261 
z
" transform="scale(0.015625)"/>
      <path id="Actay-Regular-43a" d="M 1005 1357 
L 1005 0 
L 493 0 
L 493 3200 
L 1005 3200 
L 1005 1830 
L 1574 1830 
L 2618 3200 
L 3194 3200 
L 1958 1600 
L 3347 0 
L 2746 0 
L 1587 1357 
L 1005 1357 
z
" transform="scale(0.015625)"/>
      <path id="Actay-Regular-431" d="M 275 1555 
Q 275 2528 400 3033 
Q 525 3539 826 3866 
Q 1030 4090 1308 4198 
Q 1587 4307 1836 4323 
Q 2086 4339 2409 4444 
Q 2733 4550 2995 4762 
L 3226 4397 
Q 2950 4166 2643 4054 
Q 2336 3942 2115 3929 
Q 1894 3917 1651 3830 
Q 1408 3744 1242 3558 
Q 902 3174 826 2394 
Q 1018 2694 1328 2873 
Q 1638 3053 2010 3053 
Q 2650 3053 3075 2617 
Q 3501 2182 3501 1555 
Q 3501 813 3065 358 
Q 2630 -96 1882 -96 
Q 1152 -96 713 374 
Q 275 845 275 1555 
z
M 1882 390 
Q 2406 390 2697 716 
Q 2989 1043 2989 1555 
Q 2989 2003 2675 2316 
Q 2362 2630 1882 2630 
Q 1408 2630 1097 2310 
Q 787 1990 787 1555 
Q 787 1043 1075 716 
Q 1363 390 1882 390 
z
" transform="scale(0.015625)"/>
      <path id="Actay-Regular-440" d="M 499 3200 
L 941 3200 
L 1005 2566 
Q 1210 2912 1539 3104 
Q 1869 3296 2266 3296 
Q 2918 3296 3353 2813 
Q 3789 2330 3789 1606 
Q 3789 870 3357 387 
Q 2925 -96 2266 -96 
Q 1869 -96 1539 96 
Q 1210 288 1011 634 
L 1011 -1280 
L 499 -1280 
L 499 3200 
z
M 2950 716 
Q 3277 1062 3277 1600 
Q 3277 2138 2950 2486 
Q 2624 2835 2131 2835 
Q 1632 2835 1321 2492 
Q 1011 2150 1011 1600 
Q 1011 1056 1324 713 
Q 1638 371 2131 371 
Q 2624 371 2950 716 
z
" transform="scale(0.015625)"/>
      <path id="Actay-Regular-43c" d="M 966 2432 
L 966 0 
L 493 0 
L 493 3200 
L 1024 3200 
L 2246 704 
L 3475 3200 
L 4000 3200 
L 4000 0 
L 3526 0 
L 3526 2406 
L 2394 0 
L 2099 0 
L 966 2432 
z
" transform="scale(0.015625)"/>
      <path id="Actay-Regular-43d" d="M 493 0 
L 493 3200 
L 1005 3200 
L 1005 1850 
L 3206 1850 
L 3206 3200 
L 3718 3200 
L 3718 0 
L 3206 0 
L 3206 1357 
L 1005 1357 
L 1005 0 
L 493 0 
z
" transform="scale(0.015625)"/>
      <path id="Actay-Regular-2c" d="M 320 -915 
L 474 486 
L 1043 486 
L 755 -915 
L 320 -915 
z
" transform="scale(0.015625)"/>
      <path id="Actay-Regular-434" d="M 275 448 
L 755 448 
Q 1120 1139 1120 1997 
L 1120 3200 
L 3603 3200 
L 3603 448 
L 4205 448 
L 4205 -832 
L 3718 -832 
L 3718 0 
L 749 0 
L 749 -832 
L 275 -832 
L 275 448 
z
M 1254 448 
L 3123 448 
L 3123 2758 
L 1600 2758 
L 1600 1997 
Q 1600 1133 1254 448 
z
" transform="scale(0.015625)"/>
      <path id="Actay-Regular-445" d="M 1894 1619 
L 3181 0 
L 2573 0 
L 1594 1235 
L 614 0 
L 0 0 
L 1286 1619 
L 26 3200 
L 640 3200 
L 1594 2003 
L 2541 3200 
L 3149 3200 
L 1894 1619 
z
" transform="scale(0.015625)"/>
      <path id="Actay-Regular-437" d="M 1830 -96 
Q 1229 -96 829 230 
Q 429 557 429 1075 
L 902 1075 
Q 902 723 1168 508 
Q 1434 294 1830 294 
Q 2240 294 2493 457 
Q 2746 621 2746 889 
Q 2746 1158 2483 1321 
Q 2221 1485 1786 1485 
L 1453 1485 
L 1453 1805 
L 1786 1805 
Q 2234 1805 2445 1936 
Q 2656 2067 2656 2355 
Q 2656 2611 2432 2755 
Q 2208 2899 1818 2899 
Q 1466 2899 1229 2697 
Q 992 2496 992 2202 
L 518 2202 
Q 518 2656 892 2966 
Q 1267 3277 1811 3277 
Q 2419 3277 2784 3037 
Q 3149 2797 3149 2406 
Q 3149 1843 2579 1651 
Q 3238 1421 3238 838 
Q 3238 422 2848 163 
Q 2458 -96 1830 -96 
z
" transform="scale(0.015625)"/>
     </defs>
     <use xlink:href="#Actay-Regular-41e"/>
     <use xlink:href="#Actay-Regular-43f" x="76.799988"/>
     <use xlink:href="#Actay-Regular-43b" x="139.299973"/>
     <use xlink:href="#Actay-Regular-430" x="208.699966"/>
     <use xlink:href="#Actay-Regular-442" x="272.199951"/>
     <use xlink:href="#Actay-Regular-430" x="326.599945"/>
     <use xlink:href="#Actay-Regular-20" x="390.09993"/>
     <use xlink:href="#Actay-Regular-43e" x="415.099915"/>
     <use xlink:href="#Actay-Regular-442" x="476.199905"/>
     <use xlink:href="#Actay-Regular-43f" x="530.599899"/>
     <use xlink:href="#Actay-Regular-443" x="593.099884"/>
     <use xlink:href="#Actay-Regular-441" x="648.399872"/>
     <use xlink:href="#Actay-Regular-43a" x="708.69986"/>
     <use xlink:href="#Actay-Regular-430" x="760.999847"/>
     <use xlink:href="#Actay-Regular-20" x="824.499832"/>
     <use xlink:href="#Actay-Regular-43f" x="849.499817"/>
     <use xlink:href="#Actay-Regular-43e" x="911.999802"/>
     <use xlink:href="#Actay-Regular-20" x="973.099792"/>
     <use xlink:href="#Actay-Regular-431" x="998.099777"/>
     <use xlink:href="#Actay-Regular-435" x="1056.899765"/>
     <use xlink:href="#Actay-Regular-440" x="1116.999756"/>
     <use xlink:href="#Actay-Regular-435" x="1180.499741"/>
     <use xlink:href="#Actay-Regular-43c" x="1240.599731"/>
     <use xlink:href="#Actay-Regular-435" x="1310.899719"/>
     <use xlink:href="#Actay-Regular-43d" x="1370.99971"/>
     <use xlink:href="#Actay-Regular-43d" x="1436.599701"/>
     <use xlink:href="#Actay-Regular-43e" x="1502.199692"/>
     <use xlink:href="#Actay-Regular-441" x="1563.299683"/>
     <use xlink:href="#Actay-Regular-442" x="1623.59967"/>
     <use xlink:href="#Actay-Regular-438" x="1677.999664"/>
     <use xlink:href="#Actay-Regular-2c" x="1743.099655"/>
     <use xlink:href="#Actay-Regular-20" x="1762.799652"/>
     <use xlink:href="#Actay-Regular-440" x="1787.799637"/>
     <use xlink:href="#Actay-Regular-43e" x="1851.299622"/>
     <use xlink:href="#Actay-Regular-434" x="1912.399612"/>
     <use xlink:href="#Actay-Regular-430" x="1982.299606"/>
     <use xlink:href="#Actay-Regular-43c" x="2045.799591"/>
     <use xlink:href="#Actay-Regular-2c" x="2116.099579"/>
     <use xlink:href="#Actay-Regular-20" x="2135.799576"/>
     <use xlink:href="#Actay-Regular-43f" x="2160.799561"/>
     <use xlink:href="#Actay-Regular-43e" x="2223.299545"/>
     <use xlink:href="#Actay-Regular-20" x="2284.399536"/>
     <use xlink:href="#Actay-Regular-443" x="2309.399521"/>
     <use xlink:href="#Actay-Regular-445" x="2364.699509"/>
     <use xlink:href="#Actay-Regular-43e" x="2414.399506"/>
     <use xlink:href="#Actay-Regular-434" x="2475.499496"/>
     <use xlink:href="#Actay-Regular-443" x="2545.39949"/>
     <use xlink:href="#Actay-Regular-20" x="2600.699478"/>
     <use xlink:href="#Actay-Regular-437" x="2625.699463"/>
     <use xlink:href="#Actay-Regular-430" x="2681.39946"/>
     <use xlink:href="#Actay-Regular-20" x="2744.899445"/>
     <use xlink:href="#Actay-Regular-440" x="2769.899429"/>
     <use xlink:href="#Actay-Regular-435" x="2833.399414"/>
     <use xlink:href="#Actay-Regular-431" x="2893.499405"/>
     <use xlink:href="#Actay-Regular-435" x="2952.299393"/>
     <use xlink:href="#Actay-Regular-43d" x="3012.399384"/>
     <use xlink:href="#Actay-Regular-43a" x="3077.999374"/>
     <use xlink:href="#Actay-Regular-43e" x="3130.299362"/>
     <use xlink:href="#Actay-Regular-43c" x="3191.399353"/>
    </g>
   </g>
  </g>
  <g id="axes_2">
   <g id="patch_11">
    <path d="M 28.44 274.29 
L 1132.56 274.29 
L 1132.56 237.992438 
L 28.44 237.992438 
z
" style="fill: #ffffff"/>
   </g>
   <g id="matplotlib.axis_3">
    <g id="xtick_8">
     <g id="line2d_11">
      <g>
       <use xlink:href="#me4986d9197" x="28.44" y="274.29" style="fill: #262626; stroke: #262626; stroke-width: 1.875"/>
      </g>
     </g>
     <g id="text_10">
      <!-- 0 -->
      <g style="fill: #262626" transform="translate(22.9125 298.34) scale(0.165 -0.165)">
       <use xlink:href="#Actay-Regular-30"/>
      </g>
     </g>
    </g>
    <g id="xtick_9">
     <g id="line2d_12">
      <g>
       <use xlink:href="#me4986d9197" x="190.457961" y="274.29" style="fill: #262626; stroke: #262626; stroke-width: 1.875"/>
      </g>
     </g>
     <g id="text_11">
      <!-- 5000 -->
      <g style="fill: #262626" transform="translate(168.644445 298.34) scale(0.165 -0.165)">
       <use xlink:href="#Actay-Regular-35"/>
       <use xlink:href="#Actay-Regular-30" x="63.399994"/>
       <use xlink:href="#Actay-Regular-30" x="130.399979"/>
       <use xlink:href="#Actay-Regular-30" x="197.399963"/>
      </g>
     </g>
    </g>
    <g id="xtick_10">
     <g id="line2d_13">
      <g>
       <use xlink:href="#me4986d9197" x="352.475922" y="274.29" style="fill: #262626; stroke: #262626; stroke-width: 1.875"/>
      </g>
     </g>
     <g id="text_12">
      <!-- 10000 -->
      <g style="fill: #262626" transform="translate(327.255414 298.34) scale(0.165 -0.165)">
       <use xlink:href="#Actay-Regular-31"/>
       <use xlink:href="#Actay-Regular-30" x="37.699997"/>
       <use xlink:href="#Actay-Regular-30" x="104.699982"/>
       <use xlink:href="#Actay-Regular-30" x="171.699966"/>
       <use xlink:href="#Actay-Regular-30" x="238.699951"/>
      </g>
     </g>
    </g>
    <g id="xtick_11">
     <g id="line2d_14">
      <g>
       <use xlink:href="#me4986d9197" x="514.493883" y="274.29" style="fill: #262626; stroke: #262626; stroke-width: 1.875"/>
      </g>
     </g>
     <g id="text_13">
      <!-- 15000 -->
      <g style="fill: #262626" transform="translate(489.569859 298.34) scale(0.165 -0.165)">
       <use xlink:href="#Actay-Regular-31"/>
       <use xlink:href="#Actay-Regular-35" x="37.699997"/>
       <use xlink:href="#Actay-Regular-30" x="101.099991"/>
       <use xlink:href="#Actay-Regular-30" x="168.099976"/>
       <use xlink:href="#Actay-Regular-30" x="235.09996"/>
      </g>
     </g>
    </g>
    <g id="xtick_12">
     <g id="line2d_15">
      <g>
       <use xlink:href="#me4986d9197" x="676.511844" y="274.29" style="fill: #262626; stroke: #262626; stroke-width: 1.875"/>
      </g>
     </g>
     <g id="text_14">
      <!-- 20000 -->
      <g style="fill: #262626" transform="translate(649.344851 298.34) scale(0.165 -0.165)">
       <use xlink:href="#Actay-Regular-32"/>
       <use xlink:href="#Actay-Regular-30" x="61.299988"/>
       <use xlink:href="#Actay-Regular-30" x="128.299973"/>
       <use xlink:href="#Actay-Regular-30" x="195.299957"/>
       <use xlink:href="#Actay-Regular-30" x="262.299942"/>
      </g>
     </g>
    </g>
    <g id="xtick_13">
     <g id="line2d_16">
      <g>
       <use xlink:href="#me4986d9197" x="838.529805" y="274.29" style="fill: #262626; stroke: #262626; stroke-width: 1.875"/>
      </g>
     </g>
     <g id="text_15">
      <!-- 25000 -->
      <g style="fill: #262626" transform="translate(811.659297 298.34) scale(0.165 -0.165)">
       <use xlink:href="#Actay-Regular-32"/>
       <use xlink:href="#Actay-Regular-35" x="61.299988"/>
       <use xlink:href="#Actay-Regular-30" x="124.699982"/>
       <use xlink:href="#Actay-Regular-30" x="191.699966"/>
       <use xlink:href="#Actay-Regular-30" x="258.699951"/>
      </g>
     </g>
    </g>
    <g id="xtick_14">
     <g id="line2d_17">
      <g>
       <use xlink:href="#me4986d9197" x="1000.547765" y="274.29" style="fill: #262626; stroke: #262626; stroke-width: 1.875"/>
      </g>
     </g>
     <g id="text_16">
      <!-- 30000 -->
      <g style="fill: #262626" transform="translate(973.273781 298.34) scale(0.165 -0.165)">
       <use xlink:href="#Actay-Regular-33"/>
       <use xlink:href="#Actay-Regular-30" x="62.599991"/>
       <use xlink:href="#Actay-Regular-30" x="129.599976"/>
       <use xlink:href="#Actay-Regular-30" x="196.59996"/>
       <use xlink:href="#Actay-Regular-30" x="263.599945"/>
      </g>
     </g>
    </g>
    <g id="text_17">
     <!-- Количество ответов -->
     <g style="fill: #262626" transform="translate(486.531563 318.24) scale(0.18 -0.18)">
      <use xlink:href="#Actay-Regular-41a"/>
      <use xlink:href="#Actay-Regular-43e" x="64.199997"/>
      <use xlink:href="#Actay-Regular-43b" x="125.299988"/>
      <use xlink:href="#Actay-Regular-438" x="194.699982"/>
      <use xlink:href="#Actay-Regular-447" x="259.799973"/>
      <use xlink:href="#Actay-Regular-435" x="321.999969"/>
      <use xlink:href="#Actay-Regular-441" x="382.09996"/>
      <use xlink:href="#Actay-Regular-442" x="442.399948"/>
      <use xlink:href="#Actay-Regular-432" x="496.799942"/>
      <use xlink:href="#Actay-Regular-43e" x="553.499939"/>
      <use xlink:href="#Actay-Regular-20" x="614.59993"/>
      <use xlink:href="#Actay-Regular-43e" x="639.599915"/>
      <use xlink:href="#Actay-Regular-442" x="700.699905"/>
      <use xlink:href="#Actay-Regular-432" x="755.099899"/>
      <use xlink:href="#Actay-Regular-435" x="811.799896"/>
      <use xlink:href="#Actay-Regular-442" x="871.899887"/>
      <use xlink:href="#Actay-Regular-43e" x="926.299881"/>
      <use xlink:href="#Actay-Regular-432" x="987.399872"/>
     </g>
     <!--  -->
     <g style="fill: #262626" transform="translate(580.5 336.96) scale(0.18 -0.18)"/>
    </g>
   </g>
   <g id="matplotlib.axis_4">
    <g id="ytick_2">
     <g id="line2d_18">
      <g>
       <use xlink:href="#m4dbeb44f12" x="28.44" y="256.141219" style="fill: #262626; stroke: #262626; stroke-width: 1.875"/>
      </g>
     </g>
    </g>
   </g>
   <g id="patch_12">
    <path d="M 28.44 241.622194 
L 1132.56 241.622194 
L 1132.56 270.660244 
L 28.44 270.660244 
z
" clip-path="url(#p03edc26a40)" style="fill: #252629; stroke: #ffffff; stroke-width: 1.5; stroke-linejoin: miter"/>
   </g>
   <g id="patch_13">
    <path d="M 28.44 256.141219 
L 28.44 256.141219 
L 28.44 256.141219 
L 28.44 256.141219 
z
" clip-path="url(#p03edc26a40)" style="fill: #252629; stroke: #ffffff; stroke-width: 1.5; stroke-linejoin: miter"/>
   </g>
   <g id="patch_14">
    <path d="M 28.44 241.622194 
L 59.612256 241.622194 
L 59.612256 270.660244 
L 28.44 270.660244 
z
" clip-path="url(#p03edc26a40)" style="fill: #5875a4; stroke: #ffffff; stroke-width: 1.5; stroke-linejoin: miter"/>
   </g>
   <g id="patch_15">
    <path d="M 28.44 256.141219 
L 28.44 256.141219 
L 28.44 256.141219 
L 28.44 256.141219 
z
" clip-path="url(#p03edc26a40)" style="fill: #5875a4; stroke: #ffffff; stroke-width: 1.5; stroke-linejoin: miter"/>
   </g>
   <g id="line2d_19">
    <path clip-path="url(#p03edc26a40)" style="fill: none; stroke: #424242; stroke-width: 3.375; stroke-linecap: round"/>
   </g>
   <g id="line2d_20">
    <path clip-path="url(#p03edc26a40)" style="fill: none; stroke: #424242; stroke-width: 3.375; stroke-linecap: round"/>
   </g>
   <g id="patch_16">
    <path d="M 28.44 274.29 
L 28.44 237.992437 
" style="fill: none; stroke: #262626; stroke-width: 1.875; stroke-linejoin: miter; stroke-linecap: square"/>
   </g>
   <g id="patch_17">
    <path d="M 1132.56 274.29 
L 1132.56 237.992437 
" style="fill: none; stroke: #262626; stroke-width: 1.875; stroke-linejoin: miter; stroke-linecap: square"/>
   </g>
   <g id="patch_18">
    <path d="M 28.44 274.29 
L 1132.56 274.29 
" style="fill: none; stroke: #262626; stroke-width: 1.875; stroke-linejoin: miter; stroke-linecap: square"/>
   </g>
   <g id="patch_19">
    <path d="M 28.44 237.992438 
L 1132.56 237.992438 
" style="fill: none; stroke: #262626; stroke-width: 1.875; stroke-linejoin: miter; stroke-linecap: square"/>
   </g>
   <g id="text_18">
    <!-- Бесплатное содержание детей в дошкольных учреждениях или его частичная оплата -->
    <g style="fill: #262626" transform="translate(173.690156 231.992437) scale(0.18 -0.18)">
     <defs>
      <path id="Actay-Regular-411" d="M 493 4480 
L 3616 4480 
L 3616 4019 
L 1005 4019 
L 1005 2835 
L 2374 2835 
Q 3066 2835 3552 2425 
Q 4038 2016 4038 1414 
Q 4038 781 3568 390 
Q 3098 0 2374 0 
L 493 0 
L 493 4480 
z
M 3526 1414 
Q 3526 1818 3196 2096 
Q 2867 2374 2374 2374 
L 1005 2374 
L 1005 467 
L 2374 467 
Q 2893 467 3209 729 
Q 3526 992 3526 1414 
z
" transform="scale(0.015625)"/>
      <path id="Actay-Regular-436" d="M 3808 1600 
L 5190 0 
L 4589 0 
L 3430 1357 
L 2848 1357 
L 2848 0 
L 2336 0 
L 2336 1357 
L 1760 1357 
L 595 0 
L 0 0 
L 1382 1600 
L 147 3200 
L 730 3200 
L 1766 1830 
L 2336 1830 
L 2336 3200 
L 2848 3200 
L 2848 1830 
L 3418 1830 
L 4461 3200 
L 5050 3200 
L 3808 1600 
z
" transform="scale(0.015625)"/>
      <path id="Actay-Regular-439" d="M 2099 3590 
Q 1658 3590 1331 3840 
Q 1005 4090 1005 4480 
L 1414 4480 
Q 1414 4256 1612 4093 
Q 1811 3930 2099 3930 
Q 2387 3930 2585 4090 
Q 2784 4250 2784 4480 
L 3187 4480 
Q 3187 4109 2876 3849 
Q 2566 3590 2099 3590 
z
M 3680 0 
L 3168 0 
L 3168 2413 
L 922 0 
L 493 0 
L 493 3200 
L 1005 3200 
L 1005 800 
L 3258 3200 
L 3680 3200 
L 3680 0 
z
" transform="scale(0.015625)"/>
      <path id="Actay-Regular-448" d="M 493 0 
L 493 3200 
L 1005 3200 
L 1005 486 
L 2893 486 
L 2893 3200 
L 3405 3200 
L 3405 486 
L 5306 486 
L 5306 3200 
L 5818 3200 
L 5818 0 
L 493 0 
z
" transform="scale(0.015625)"/>
      <path id="Actay-Regular-44c" d="M 493 3200 
L 1005 3200 
L 1005 2342 
L 2074 2342 
Q 2797 2342 3219 2025 
Q 3642 1709 3642 1171 
Q 3642 608 3235 304 
Q 2829 0 2074 0 
L 493 0 
L 493 3200 
z
M 3130 1171 
Q 3130 1523 2845 1724 
Q 2560 1926 2074 1926 
L 1005 1926 
L 1005 410 
L 2074 410 
Q 2579 410 2854 608 
Q 3130 806 3130 1171 
z
" transform="scale(0.015625)"/>
      <path id="Actay-Regular-44b" d="M 493 3200 
L 1005 3200 
L 1005 2342 
L 2074 2342 
Q 2797 2342 3219 2025 
Q 3642 1709 3642 1171 
Q 3642 608 3235 304 
Q 2829 0 2074 0 
L 493 0 
L 493 3200 
z
M 4326 3200 
L 4838 3200 
L 4838 0 
L 4326 0 
L 4326 3200 
z
M 3130 1171 
Q 3130 1523 2845 1724 
Q 2560 1926 2074 1926 
L 1005 1926 
L 1005 410 
L 2074 410 
Q 2579 410 2854 608 
Q 3130 806 3130 1171 
z
" transform="scale(0.015625)"/>
      <path id="Actay-Regular-44f" d="M 589 0 
L 0 0 
L 928 1062 
Q 550 1190 332 1456 
Q 115 1722 115 2086 
Q 115 2592 528 2896 
Q 941 3200 1594 3200 
L 2957 3200 
L 2957 0 
L 2483 0 
L 2483 960 
L 1594 960 
Q 1517 960 1376 973 
L 589 0 
z
M 608 2086 
Q 608 1754 870 1565 
Q 1133 1376 1594 1376 
L 2483 1376 
L 2483 2778 
L 1594 2778 
Q 1139 2778 873 2592 
Q 608 2406 608 2086 
z
" transform="scale(0.015625)"/>
      <path id="Actay-Regular-433" d="M 493 3200 
L 2938 3200 
L 2938 2739 
L 1005 2739 
L 1005 0 
L 493 0 
L 493 3200 
z
" transform="scale(0.015625)"/>
     </defs>
     <use xlink:href="#Actay-Regular-411"/>
     <use xlink:href="#Actay-Regular-435" x="67.199997"/>
     <use xlink:href="#Actay-Regular-441" x="127.299988"/>
     <use xlink:href="#Actay-Regular-43f" x="187.599976"/>
     <use xlink:href="#Actay-Regular-43b" x="250.09996"/>
     <use xlink:href="#Actay-Regular-430" x="319.499954"/>
     <use xlink:href="#Actay-Regular-442" x="382.999939"/>
     <use xlink:href="#Actay-Regular-43d" x="437.399933"/>
     <use xlink:href="#Actay-Regular-43e" x="502.999924"/>
     <use xlink:href="#Actay-Regular-435" x="564.099915"/>
     <use xlink:href="#Actay-Regular-20" x="624.199905"/>
     <use xlink:href="#Actay-Regular-441" x="649.19989"/>
     <use xlink:href="#Actay-Regular-43e" x="709.499878"/>
     <use xlink:href="#Actay-Regular-434" x="770.599869"/>
     <use xlink:href="#Actay-Regular-435" x="840.499863"/>
     <use xlink:href="#Actay-Regular-440" x="900.599854"/>
     <use xlink:href="#Actay-Regular-436" x="964.099838"/>
     <use xlink:href="#Actay-Regular-430" x="1045.199829"/>
     <use xlink:href="#Actay-Regular-43d" x="1108.699814"/>
     <use xlink:href="#Actay-Regular-438" x="1174.299805"/>
     <use xlink:href="#Actay-Regular-435" x="1239.399796"/>
     <use xlink:href="#Actay-Regular-20" x="1299.499786"/>
     <use xlink:href="#Actay-Regular-434" x="1324.499771"/>
     <use xlink:href="#Actay-Regular-435" x="1394.399765"/>
     <use xlink:href="#Actay-Regular-442" x="1454.499756"/>
     <use xlink:href="#Actay-Regular-435" x="1508.89975"/>
     <use xlink:href="#Actay-Regular-439" x="1568.999741"/>
     <use xlink:href="#Actay-Regular-20" x="1634.099731"/>
     <use xlink:href="#Actay-Regular-432" x="1659.099716"/>
     <use xlink:href="#Actay-Regular-20" x="1715.799713"/>
     <use xlink:href="#Actay-Regular-434" x="1740.799698"/>
     <use xlink:href="#Actay-Regular-43e" x="1810.699692"/>
     <use xlink:href="#Actay-Regular-448" x="1871.799683"/>
     <use xlink:href="#Actay-Regular-43a" x="1970.199677"/>
     <use xlink:href="#Actay-Regular-43e" x="2022.499664"/>
     <use xlink:href="#Actay-Regular-43b" x="2083.599655"/>
     <use xlink:href="#Actay-Regular-44c" x="2152.999649"/>
     <use xlink:href="#Actay-Regular-43d" x="2213.999634"/>
     <use xlink:href="#Actay-Regular-44b" x="2279.599625"/>
     <use xlink:href="#Actay-Regular-445" x="2362.899612"/>
     <use xlink:href="#Actay-Regular-20" x="2412.599609"/>
     <use xlink:href="#Actay-Regular-443" x="2437.599594"/>
     <use xlink:href="#Actay-Regular-447" x="2492.899582"/>
     <use xlink:href="#Actay-Regular-440" x="2555.099579"/>
     <use xlink:href="#Actay-Regular-435" x="2618.599564"/>
     <use xlink:href="#Actay-Regular-436" x="2678.699554"/>
     <use xlink:href="#Actay-Regular-434" x="2759.799545"/>
     <use xlink:href="#Actay-Regular-435" x="2829.699539"/>
     <use xlink:href="#Actay-Regular-43d" x="2889.79953"/>
     <use xlink:href="#Actay-Regular-438" x="2955.399521"/>
     <use xlink:href="#Actay-Regular-44f" x="3020.499512"/>
     <use xlink:href="#Actay-Regular-445" x="3074.499496"/>
     <use xlink:href="#Actay-Regular-20" x="3124.199493"/>
     <use xlink:href="#Actay-Regular-438" x="3149.199478"/>
     <use xlink:href="#Actay-Regular-43b" x="3214.299469"/>
     <use xlink:href="#Actay-Regular-438" x="3283.699463"/>
     <use xlink:href="#Actay-Regular-20" x="3348.799454"/>
     <use xlink:href="#Actay-Regular-435" x="3373.799438"/>
     <use xlink:href="#Actay-Regular-433" x="3433.899429"/>
     <use xlink:href="#Actay-Regular-43e" x="3483.899414"/>
     <use xlink:href="#Actay-Regular-20" x="3544.999405"/>
     <use xlink:href="#Actay-Regular-447" x="3569.99939"/>
     <use xlink:href="#Actay-Regular-430" x="3632.199387"/>
     <use xlink:href="#Actay-Regular-441" x="3695.699371"/>
     <use xlink:href="#Actay-Regular-442" x="3755.999359"/>
     <use xlink:href="#Actay-Regular-438" x="3810.399353"/>
     <use xlink:href="#Actay-Regular-447" x="3875.499344"/>
     <use xlink:href="#Actay-Regular-43d" x="3937.699341"/>
     <use xlink:href="#Actay-Regular-430" x="4003.299332"/>
     <use xlink:href="#Actay-Regular-44f" x="4066.799316"/>
     <use xlink:href="#Actay-Regular-20" x="4120.799301"/>
     <use xlink:href="#Actay-Regular-43e" x="4145.799286"/>
     <use xlink:href="#Actay-Regular-43f" x="4206.899277"/>
     <use xlink:href="#Actay-Regular-43b" x="4269.399261"/>
     <use xlink:href="#Actay-Regular-430" x="4338.799255"/>
     <use xlink:href="#Actay-Regular-442" x="4402.29924"/>
     <use xlink:href="#Actay-Regular-430" x="4456.699234"/>
    </g>
   </g>
  </g>
  <g id="text_19">
   <!-- Социальные льготы, предоставляемые работодателем -->
   <g style="fill: #262626" transform="translate(261.723375 23.27175) scale(0.216 -0.216)">
    <defs>
     <path id="Actay-Regular-421" d="M 1257 3565 
Q 787 3040 787 2240 
Q 787 1440 1260 915 
Q 1734 390 2451 390 
Q 2982 390 3395 675 
Q 3808 960 4006 1453 
L 4557 1453 
Q 4314 736 3760 320 
Q 3206 -96 2464 -96 
Q 1523 -96 899 569 
Q 275 1235 275 2234 
Q 275 3245 896 3910 
Q 1517 4576 2464 4576 
Q 3200 4576 3757 4160 
Q 4314 3744 4557 3027 
L 4000 3027 
Q 3808 3520 3395 3805 
Q 2982 4090 2451 4090 
Q 1728 4090 1257 3565 
z
" transform="scale(0.015625)"/>
     <path id="Actay-Regular-446" d="M 493 0 
L 493 3200 
L 1005 3200 
L 1005 486 
L 3258 486 
L 3258 3200 
L 3770 3200 
L 3770 486 
L 4378 486 
L 4378 -1062 
L 3904 -1062 
L 3904 0 
L 493 0 
z
" transform="scale(0.015625)"/>
    </defs>
    <use xlink:href="#Actay-Regular-421"/>
    <use xlink:href="#Actay-Regular-43e" x="75.199982"/>
    <use xlink:href="#Actay-Regular-446" x="136.299973"/>
    <use xlink:href="#Actay-Regular-438" x="208.799957"/>
    <use xlink:href="#Actay-Regular-430" x="273.899948"/>
    <use xlink:href="#Actay-Regular-43b" x="337.399933"/>
    <use xlink:href="#Actay-Regular-44c" x="406.799927"/>
    <use xlink:href="#Actay-Regular-43d" x="467.799911"/>
    <use xlink:href="#Actay-Regular-44b" x="533.399902"/>
    <use xlink:href="#Actay-Regular-435" x="616.69989"/>
    <use xlink:href="#Actay-Regular-20" x="676.799881"/>
    <use xlink:href="#Actay-Regular-43b" x="701.799866"/>
    <use xlink:href="#Actay-Regular-44c" x="771.19986"/>
    <use xlink:href="#Actay-Regular-433" x="832.199844"/>
    <use xlink:href="#Actay-Regular-43e" x="882.199829"/>
    <use xlink:href="#Actay-Regular-442" x="943.29982"/>
    <use xlink:href="#Actay-Regular-44b" x="997.699814"/>
    <use xlink:href="#Actay-Regular-2c" x="1080.999802"/>
    <use xlink:href="#Actay-Regular-20" x="1100.699799"/>
    <use xlink:href="#Actay-Regular-43f" x="1125.699783"/>
    <use xlink:href="#Actay-Regular-440" x="1188.199768"/>
    <use xlink:href="#Actay-Regular-435" x="1251.699753"/>
    <use xlink:href="#Actay-Regular-434" x="1311.799744"/>
    <use xlink:href="#Actay-Regular-43e" x="1381.699738"/>
    <use xlink:href="#Actay-Regular-441" x="1442.799728"/>
    <use xlink:href="#Actay-Regular-442" x="1503.099716"/>
    <use xlink:href="#Actay-Regular-430" x="1557.49971"/>
    <use xlink:href="#Actay-Regular-432" x="1620.999695"/>
    <use xlink:href="#Actay-Regular-43b" x="1677.699692"/>
    <use xlink:href="#Actay-Regular-44f" x="1747.099686"/>
    <use xlink:href="#Actay-Regular-435" x="1801.09967"/>
    <use xlink:href="#Actay-Regular-43c" x="1861.199661"/>
    <use xlink:href="#Actay-Regular-44b" x="1931.499649"/>
    <use xlink:href="#Actay-Regular-435" x="2014.799637"/>
    <use xlink:href="#Actay-Regular-20" x="2074.899628"/>
    <use xlink:href="#Actay-Regular-440" x="2099.899612"/>
    <use xlink:href="#Actay-Regular-430" x="2163.399597"/>
    <use xlink:href="#Actay-Regular-431" x="2226.899582"/>
    <use xlink:href="#Actay-Regular-43e" x="2285.69957"/>
    <use xlink:href="#Actay-Regular-442" x="2346.799561"/>
    <use xlink:href="#Actay-Regular-43e" x="2401.199554"/>
    <use xlink:href="#Actay-Regular-434" x="2462.299545"/>
    <use xlink:href="#Actay-Regular-430" x="2532.199539"/>
    <use xlink:href="#Actay-Regular-442" x="2595.699524"/>
    <use xlink:href="#Actay-Regular-435" x="2650.099518"/>
    <use xlink:href="#Actay-Regular-43b" x="2710.199509"/>
    <use xlink:href="#Actay-Regular-435" x="2779.599503"/>
    <use xlink:href="#Actay-Regular-43c" x="2839.699493"/>
   </g>
  </g>
  <g id="legend_1">
   <g id="patch_20">
    <path d="M 954.840469 60.75 
L 1140.45 60.75 
Q 1143.75 60.75 1143.75 57.45 
L 1143.75 11.55 
Q 1143.75 8.25 1140.45 8.25 
L 954.840469 8.25 
Q 951.540469 8.25 951.540469 11.55 
L 951.540469 57.45 
Q 951.540469 60.75 954.840469 60.75 
z
" style="fill: #ffffff; opacity: 0.8; stroke: #cccccc; stroke-width: 1.5; stroke-linejoin: miter"/>
   </g>
   <g id="text_20">
    <!-- Ответ -->
    <g style="fill: #262626" transform="translate(1020.428672 27.45) scale(0.18 -0.18)">
     <use xlink:href="#Actay-Regular-41e"/>
     <use xlink:href="#Actay-Regular-442" x="76.799988"/>
     <use xlink:href="#Actay-Regular-432" x="131.199982"/>
     <use xlink:href="#Actay-Regular-435" x="187.899979"/>
     <use xlink:href="#Actay-Regular-442" x="247.999969"/>
    </g>
   </g>
   <g id="patch_21">
    <path d="M 958.140469 50.85 
L 991.140469 50.85 
L 991.140469 39.3 
L 958.140469 39.3 
z
" style="fill: #5875a4; stroke: #ffffff; stroke-width: 1.5; stroke-linejoin: miter"/>
   </g>
   <g id="text_21">
    <!-- Да -->
    <g style="fill: #262626" transform="translate(1004.340469 50.85) scale(0.165 -0.165)">
     <defs>
      <path id="Actay-Regular-414" d="M 166 486 
L 678 486 
Q 1267 1536 1267 2758 
L 1267 4480 
L 3974 4480 
L 3974 486 
L 4570 486 
L 4570 -1062 
L 4058 -1062 
L 4058 0 
L 678 0 
L 678 -1062 
L 166 -1062 
L 166 486 
z
M 1203 486 
L 3462 486 
L 3462 4000 
L 1779 4000 
L 1779 2758 
Q 1779 1498 1203 486 
z
" transform="scale(0.015625)"/>
     </defs>
     <use xlink:href="#Actay-Regular-414"/>
     <use xlink:href="#Actay-Regular-430" x="73.899994"/>
    </g>
   </g>
   <g id="patch_22">
    <path d="M 1060.0125 50.85 
L 1093.0125 50.85 
L 1093.0125 39.3 
L 1060.0125 39.3 
z
" style="fill: #252629; stroke: #ffffff; stroke-width: 1.5; stroke-linejoin: miter"/>
   </g>
   <g id="text_22">
    <!-- Нет -->
    <g style="fill: #262626" transform="translate(1106.2125 50.85) scale(0.165 -0.165)">
     <defs>
      <path id="Actay-Regular-41d" d="M 493 0 
L 493 4480 
L 1005 4480 
L 1005 2490 
L 3661 2490 
L 3661 4480 
L 4173 4480 
L 4173 0 
L 3661 0 
L 3661 1997 
L 1005 1997 
L 1005 0 
L 493 0 
z
" transform="scale(0.015625)"/>
     </defs>
     <use xlink:href="#Actay-Regular-41d"/>
     <use xlink:href="#Actay-Regular-435" x="72.999985"/>
     <use xlink:href="#Actay-Regular-442" x="133.099976"/>
    </g>
   </g>
  </g>
 </g>
 <defs>
  <clipPath id="p5ac987f33b">
   <rect x="28.44" y="78.664875" width="1104.12" height="36.297563"/>
  </clipPath>
  <clipPath id="p03edc26a40">
   <rect x="28.44" y="237.992437" width="1104.12" height="36.297563"/>
  </clipPath>
 </defs>
</svg>
