<?xml version="1.0" encoding="utf-8" standalone="no"?>
<!DOCTYPE svg PUBLIC "-//W3C//DTD SVG 1.1//EN"
  "http://www.w3.org/Graphics/SVG/1.1/DTD/svg11.dtd">
<svg xmlns:xlink="http://www.w3.org/1999/xlink" width="1152pt" height="648pt" viewBox="0 0 1152 648" xmlns="http://www.w3.org/2000/svg" version="1.1">
 <metadata>
  <rdf:RDF xmlns:dc="http://purl.org/dc/elements/1.1/" xmlns:cc="http://creativecommons.org/ns#" xmlns:rdf="http://www.w3.org/1999/02/22-rdf-syntax-ns#">
   <cc:Work>
    <dc:type rdf:resource="http://purl.org/dc/dcmitype/StillImage"/>
    <dc:date>2024-05-04T16:40:53.672750</dc:date>
    <dc:format>image/svg+xml</dc:format>
    <dc:creator>
     <cc:Agent>
      <dc:title>Matplotlib v3.8.1, https://matplotlib.org/</dc:title>
     </cc:Agent>
    </dc:creator>
   </cc:Work>
  </rdf:RDF>
 </metadata>
 <defs>
  <style type="text/css">*{stroke-linejoin: round; stroke-linecap: butt}</style>
 </defs>
 <g id="figure_1">
  <g id="patch_1">
   <path d="M 0 648 
L 1152 648 
L 1152 0 
L 0 0 
z
" style="fill: #ffffff"/>
  </g>
  <g id="axes_1">
   <g id="patch_2">
    <path d="M 122.787969 580.216875 
L 1132.56 580.216875 
L 1132.56 59.27175 
L 122.787969 59.27175 
z
" style="fill: #eaeaf2"/>
   </g>
   <g id="matplotlib.axis_1">
    <g id="xtick_1">
     <g id="line2d_1">
      <path d="M 168.68451 580.216875 
L 168.68451 59.27175 
" clip-path="url(#pedefbff9c9)" style="fill: none; stroke: #ffffff; stroke-width: 1.5; stroke-linecap: round"/>
     </g>
     <g id="text_1">
      <!-- 0 -->
      <g style="fill: #262626" transform="translate(163.15701 604.266875) scale(0.165 -0.165)">
       <defs>
        <path id="Actay-Regular-30" d="M 275 2234 
Q 275 3245 803 3910 
Q 1331 4576 2144 4576 
Q 2963 4576 3494 3923 
Q 4026 3270 4026 2234 
Q 4026 1210 3494 557 
Q 2963 -96 2144 -96 
Q 1338 -96 806 569 
Q 275 1235 275 2234 
z
M 787 2240 
Q 787 1440 1171 915 
Q 1555 390 2150 390 
Q 2746 390 3130 912 
Q 3514 1434 3514 2240 
Q 3514 3053 3133 3571 
Q 2752 4090 2150 4090 
Q 1549 4090 1168 3568 
Q 787 3046 787 2240 
z
" transform="scale(0.015625)"/>
       </defs>
       <use xlink:href="#Actay-Regular-30"/>
      </g>
     </g>
    </g>
    <g id="xtick_2">
     <g id="line2d_2">
      <path d="M 387.458762 580.216875 
L 387.458762 59.27175 
" clip-path="url(#pedefbff9c9)" style="fill: none; stroke: #ffffff; stroke-width: 1.5; stroke-linecap: round"/>
     </g>
     <g id="text_2">
      <!-- 100000 -->
      <g style="fill: #262626" transform="translate(356.710754 604.266875) scale(0.165 -0.165)">
       <defs>
        <path id="Actay-Regular-31" d="M 230 3539 
L 230 4038 
Q 941 4058 1491 4480 
L 1914 4480 
L 1914 0 
L 1402 0 
L 1402 3821 
Q 928 3558 230 3539 
z
" transform="scale(0.015625)"/>
       </defs>
       <use xlink:href="#Actay-Regular-31"/>
       <use xlink:href="#Actay-Regular-30" x="37.699997"/>
       <use xlink:href="#Actay-Regular-30" x="104.699982"/>
       <use xlink:href="#Actay-Regular-30" x="171.699966"/>
       <use xlink:href="#Actay-Regular-30" x="238.699951"/>
       <use xlink:href="#Actay-Regular-30" x="305.699936"/>
      </g>
     </g>
    </g>
    <g id="xtick_3">
     <g id="line2d_3">
      <path d="M 606.233014 580.216875 
L 606.233014 59.27175 
" clip-path="url(#pedefbff9c9)" style="fill: none; stroke: #ffffff; stroke-width: 1.5; stroke-linecap: round"/>
     </g>
     <g id="text_3">
      <!-- 200000 -->
      <g style="fill: #262626" transform="translate(573.538522 604.266875) scale(0.165 -0.165)">
       <defs>
        <path id="Actay-Regular-32" d="M 1971 4576 
Q 2637 4576 3033 4211 
Q 3430 3846 3430 3200 
Q 3430 2867 3299 2633 
Q 3168 2400 2957 2262 
Q 2746 2125 2486 2019 
Q 2227 1914 1968 1802 
Q 1709 1690 1491 1542 
Q 1274 1395 1130 1132 
Q 986 870 973 512 
L 3488 512 
L 3488 0 
L 429 0 
L 429 339 
Q 429 806 566 1145 
Q 704 1485 925 1670 
Q 1146 1856 1411 1990 
Q 1677 2125 1939 2224 
Q 2202 2323 2422 2435 
Q 2643 2547 2780 2745 
Q 2918 2944 2918 3226 
Q 2918 3629 2659 3859 
Q 2400 4090 1971 4090 
Q 1485 4090 1213 3776 
Q 941 3462 941 2874 
L 429 2874 
Q 429 3667 848 4121 
Q 1267 4576 1971 4576 
z
" transform="scale(0.015625)"/>
       </defs>
       <use xlink:href="#Actay-Regular-32"/>
       <use xlink:href="#Actay-Regular-30" x="61.299988"/>
       <use xlink:href="#Actay-Regular-30" x="128.299973"/>
       <use xlink:href="#Actay-Regular-30" x="195.299957"/>
       <use xlink:href="#Actay-Regular-30" x="262.299942"/>
       <use xlink:href="#Actay-Regular-30" x="329.299927"/>
      </g>
     </g>
    </g>
    <g id="xtick_4">
     <g id="line2d_4">
      <path d="M 825.007266 580.216875 
L 825.007266 59.27175 
" clip-path="url(#pedefbff9c9)" style="fill: none; stroke: #ffffff; stroke-width: 1.5; stroke-linecap: round"/>
     </g>
     <g id="text_4">
      <!-- 300000 -->
      <g style="fill: #262626" transform="translate(792.205781 604.266875) scale(0.165 -0.165)">
       <defs>
        <path id="Actay-Regular-33" d="M 2739 3968 
L 672 3968 
L 672 4480 
L 3450 4480 
L 3450 4051 
L 2157 2656 
L 2208 2656 
Q 2822 2656 3228 2317 
Q 3635 1978 3635 1325 
Q 3635 717 3200 310 
Q 2765 -96 2106 -96 
Q 1402 -96 915 413 
Q 429 922 429 1664 
L 941 1664 
Q 941 1120 1270 755 
Q 1600 390 2093 390 
Q 2534 390 2828 656 
Q 3123 922 3123 1318 
Q 3123 1734 2844 1993 
Q 2566 2253 2106 2253 
L 1779 2253 
L 1504 2566 
L 2739 3968 
z
" transform="scale(0.015625)"/>
       </defs>
       <use xlink:href="#Actay-Regular-33"/>
       <use xlink:href="#Actay-Regular-30" x="62.599991"/>
       <use xlink:href="#Actay-Regular-30" x="129.599976"/>
       <use xlink:href="#Actay-Regular-30" x="196.59996"/>
       <use xlink:href="#Actay-Regular-30" x="263.599945"/>
       <use xlink:href="#Actay-Regular-30" x="330.59993"/>
      </g>
     </g>
    </g>
    <g id="xtick_5">
     <g id="line2d_5">
      <path d="M 1043.781518 580.216875 
L 1043.781518 59.27175 
" clip-path="url(#pedefbff9c9)" style="fill: none; stroke: #ffffff; stroke-width: 1.5; stroke-linecap: round"/>
     </g>
     <g id="text_5">
      <!-- 400000 -->
      <g style="fill: #262626" transform="translate(1010.583002 604.266875) scale(0.165 -0.165)">
       <defs>
        <path id="Actay-Regular-34" d="M 429 998 
L 429 1421 
L 2784 4480 
L 2835 4474 
L 2835 4480 
L 3347 4480 
L 3347 1510 
L 3968 1510 
L 3968 998 
L 3347 998 
L 3347 0 
L 2835 0 
L 2835 998 
L 429 998 
z
M 1069 1510 
L 2835 1510 
L 2835 3885 
L 1069 1510 
z
" transform="scale(0.015625)"/>
       </defs>
       <use xlink:href="#Actay-Regular-34"/>
       <use xlink:href="#Actay-Regular-30" x="67.399994"/>
       <use xlink:href="#Actay-Regular-30" x="134.399979"/>
       <use xlink:href="#Actay-Regular-30" x="201.399963"/>
       <use xlink:href="#Actay-Regular-30" x="268.399948"/>
       <use xlink:href="#Actay-Regular-30" x="335.399933"/>
      </g>
     </g>
    </g>
    <g id="text_6">
     <!-- Доход женщины с супругом (если есть) (руб. за последний месяц) -->
     <g style="fill: #262626" transform="translate(318.803828 624.96) scale(0.18 -0.18)">
      <defs>
       <path id="Actay-Regular-414" d="M 166 486 
L 678 486 
Q 1267 1536 1267 2758 
L 1267 4480 
L 3974 4480 
L 3974 486 
L 4570 486 
L 4570 -1062 
L 4058 -1062 
L 4058 0 
L 678 0 
L 678 -1062 
L 166 -1062 
L 166 486 
z
M 1203 486 
L 3462 486 
L 3462 4000 
L 1779 4000 
L 1779 2758 
Q 1779 1498 1203 486 
z
" transform="scale(0.015625)"/>
       <path id="Actay-Regular-43e" d="M 275 1594 
Q 275 2330 755 2813 
Q 1235 3296 1958 3296 
Q 2701 3296 3181 2822 
Q 3661 2349 3661 1594 
Q 3661 851 3181 377 
Q 2701 -96 1958 -96 
Q 1235 -96 755 387 
Q 275 870 275 1594 
z
M 787 1600 
Q 787 1082 1123 736 
Q 1459 390 1958 390 
Q 2490 390 2819 723 
Q 3149 1056 3149 1600 
Q 3149 2144 2819 2480 
Q 2490 2816 1958 2816 
Q 1453 2816 1120 2470 
Q 787 2125 787 1600 
z
" transform="scale(0.015625)"/>
       <path id="Actay-Regular-445" d="M 1894 1619 
L 3181 0 
L 2573 0 
L 1594 1235 
L 614 0 
L 0 0 
L 1286 1619 
L 26 3200 
L 640 3200 
L 1594 2003 
L 2541 3200 
L 3149 3200 
L 1894 1619 
z
" transform="scale(0.015625)"/>
       <path id="Actay-Regular-434" d="M 275 448 
L 755 448 
Q 1120 1139 1120 1997 
L 1120 3200 
L 3603 3200 
L 3603 448 
L 4205 448 
L 4205 -832 
L 3718 -832 
L 3718 0 
L 749 0 
L 749 -832 
L 275 -832 
L 275 448 
z
M 1254 448 
L 3123 448 
L 3123 2758 
L 1600 2758 
L 1600 1997 
Q 1600 1133 1254 448 
z
" transform="scale(0.015625)"/>
       <path id="Actay-Regular-20" transform="scale(0.015625)"/>
       <path id="Actay-Regular-436" d="M 3808 1600 
L 5190 0 
L 4589 0 
L 3430 1357 
L 2848 1357 
L 2848 0 
L 2336 0 
L 2336 1357 
L 1760 1357 
L 595 0 
L 0 0 
L 1382 1600 
L 147 3200 
L 730 3200 
L 1766 1830 
L 2336 1830 
L 2336 3200 
L 2848 3200 
L 2848 1830 
L 3418 1830 
L 4461 3200 
L 5050 3200 
L 3808 1600 
z
" transform="scale(0.015625)"/>
       <path id="Actay-Regular-435" d="M 3565 1453 
L 794 1453 
Q 838 954 1148 634 
Q 1459 314 1914 314 
Q 2592 314 2938 909 
L 3462 909 
Q 3264 442 2854 173 
Q 2445 -96 1914 -96 
Q 1210 -96 742 387 
Q 275 870 275 1594 
Q 275 2330 739 2813 
Q 1203 3296 1914 3296 
Q 2643 3296 3107 2822 
Q 3571 2349 3571 1594 
Q 3571 1574 3568 1526 
Q 3565 1478 3565 1453 
z
M 794 1747 
L 3053 1747 
Q 3008 2253 2697 2563 
Q 2387 2874 1914 2874 
Q 1459 2874 1148 2560 
Q 838 2246 794 1747 
z
" transform="scale(0.015625)"/>
       <path id="Actay-Regular-43d" d="M 493 0 
L 493 3200 
L 1005 3200 
L 1005 1850 
L 3206 1850 
L 3206 3200 
L 3718 3200 
L 3718 0 
L 3206 0 
L 3206 1357 
L 1005 1357 
L 1005 0 
L 493 0 
z
" transform="scale(0.015625)"/>
       <path id="Actay-Regular-449" d="M 493 0 
L 493 3200 
L 1005 3200 
L 1005 486 
L 2893 486 
L 2893 3200 
L 3405 3200 
L 3405 486 
L 5306 486 
L 5306 3200 
L 5818 3200 
L 5818 486 
L 6419 486 
L 6419 -1062 
L 5946 -1062 
L 5946 0 
L 493 0 
z
" transform="scale(0.015625)"/>
       <path id="Actay-Regular-438" d="M 3680 0 
L 3168 0 
L 3168 2413 
L 922 0 
L 493 0 
L 493 3200 
L 1005 3200 
L 1005 800 
L 3258 3200 
L 3680 3200 
L 3680 0 
z
" transform="scale(0.015625)"/>
       <path id="Actay-Regular-44b" d="M 493 3200 
L 1005 3200 
L 1005 2342 
L 2074 2342 
Q 2797 2342 3219 2025 
Q 3642 1709 3642 1171 
Q 3642 608 3235 304 
Q 2829 0 2074 0 
L 493 0 
L 493 3200 
z
M 4326 3200 
L 4838 3200 
L 4838 0 
L 4326 0 
L 4326 3200 
z
M 3130 1171 
Q 3130 1523 2845 1724 
Q 2560 1926 2074 1926 
L 1005 1926 
L 1005 410 
L 2074 410 
Q 2579 410 2854 608 
Q 3130 806 3130 1171 
z
" transform="scale(0.015625)"/>
       <path id="Actay-Regular-441" d="M 1116 2483 
Q 787 2131 787 1600 
Q 787 1069 1116 720 
Q 1446 371 1952 371 
Q 2349 371 2646 576 
Q 2944 781 3072 1126 
L 3603 1126 
Q 3443 570 3001 237 
Q 2560 -96 1952 -96 
Q 1235 -96 755 387 
Q 275 870 275 1594 
Q 275 2330 752 2813 
Q 1229 3296 1952 3296 
Q 2554 3296 2995 2966 
Q 3437 2637 3597 2080 
L 3066 2080 
Q 2931 2419 2633 2627 
Q 2336 2835 1952 2835 
Q 1446 2835 1116 2483 
z
" transform="scale(0.015625)"/>
       <path id="Actay-Regular-443" d="M 2016 -1261 
L 1478 -1261 
L 1914 0 
L 1088 0 
L 0 3200 
L 525 3200 
L 1440 531 
L 2093 531 
L 3008 3200 
L 3526 3200 
L 2016 -1261 
z
" transform="scale(0.015625)"/>
       <path id="Actay-Regular-43f" d="M 493 3200 
L 3603 3200 
L 3603 0 
L 3091 0 
L 3091 2720 
L 1005 2720 
L 1005 0 
L 493 0 
L 493 3200 
z
" transform="scale(0.015625)"/>
       <path id="Actay-Regular-440" d="M 499 3200 
L 941 3200 
L 1005 2566 
Q 1210 2912 1539 3104 
Q 1869 3296 2266 3296 
Q 2918 3296 3353 2813 
Q 3789 2330 3789 1606 
Q 3789 870 3357 387 
Q 2925 -96 2266 -96 
Q 1869 -96 1539 96 
Q 1210 288 1011 634 
L 1011 -1280 
L 499 -1280 
L 499 3200 
z
M 2950 716 
Q 3277 1062 3277 1600 
Q 3277 2138 2950 2486 
Q 2624 2835 2131 2835 
Q 1632 2835 1321 2492 
Q 1011 2150 1011 1600 
Q 1011 1056 1324 713 
Q 1638 371 2131 371 
Q 2624 371 2950 716 
z
" transform="scale(0.015625)"/>
       <path id="Actay-Regular-433" d="M 493 3200 
L 2938 3200 
L 2938 2739 
L 1005 2739 
L 1005 0 
L 493 0 
L 493 3200 
z
" transform="scale(0.015625)"/>
       <path id="Actay-Regular-43c" d="M 966 2432 
L 966 0 
L 493 0 
L 493 3200 
L 1024 3200 
L 2246 704 
L 3475 3200 
L 4000 3200 
L 4000 0 
L 3526 0 
L 3526 2406 
L 2394 0 
L 2099 0 
L 966 2432 
z
" transform="scale(0.015625)"/>
       <path id="Actay-Regular-28" d="M 1171 -1094 
L 986 -666 
Q 429 634 429 1824 
Q 429 2995 986 4288 
L 1171 4717 
L 1670 4717 
L 1491 4288 
Q 922 2950 922 1824 
Q 922 1229 1050 659 
Q 1178 90 1491 -666 
L 1670 -1094 
L 1171 -1094 
z
" transform="scale(0.015625)"/>
       <path id="Actay-Regular-43b" d="M 986 1338 
L 1235 3200 
L 3942 3200 
L 3942 0 
L 3430 0 
L 3430 2720 
L 1683 2720 
L 1498 1299 
Q 1414 538 1132 221 
Q 851 -96 275 -96 
L 275 371 
Q 602 371 758 588 
Q 915 806 986 1338 
z
" transform="scale(0.015625)"/>
       <path id="Actay-Regular-442" d="M 1485 0 
L 1485 2720 
L 166 2720 
L 166 3200 
L 3322 3200 
L 3322 2720 
L 1997 2720 
L 1997 0 
L 1485 0 
z
" transform="scale(0.015625)"/>
       <path id="Actay-Regular-44c" d="M 493 3200 
L 1005 3200 
L 1005 2342 
L 2074 2342 
Q 2797 2342 3219 2025 
Q 3642 1709 3642 1171 
Q 3642 608 3235 304 
Q 2829 0 2074 0 
L 493 0 
L 493 3200 
z
M 3130 1171 
Q 3130 1523 2845 1724 
Q 2560 1926 2074 1926 
L 1005 1926 
L 1005 410 
L 2074 410 
Q 2579 410 2854 608 
Q 3130 806 3130 1171 
z
" transform="scale(0.015625)"/>
       <path id="Actay-Regular-29" d="M 845 -1094 
L 339 -1094 
L 518 -666 
Q 826 96 957 662 
Q 1088 1229 1088 1824 
Q 1088 2931 518 4288 
L 339 4717 
L 845 4717 
L 1024 4288 
Q 1581 3021 1581 1824 
Q 1581 634 1024 -666 
L 845 -1094 
z
" transform="scale(0.015625)"/>
       <path id="Actay-Regular-431" d="M 275 1555 
Q 275 2528 400 3033 
Q 525 3539 826 3866 
Q 1030 4090 1308 4198 
Q 1587 4307 1836 4323 
Q 2086 4339 2409 4444 
Q 2733 4550 2995 4762 
L 3226 4397 
Q 2950 4166 2643 4054 
Q 2336 3942 2115 3929 
Q 1894 3917 1651 3830 
Q 1408 3744 1242 3558 
Q 902 3174 826 2394 
Q 1018 2694 1328 2873 
Q 1638 3053 2010 3053 
Q 2650 3053 3075 2617 
Q 3501 2182 3501 1555 
Q 3501 813 3065 358 
Q 2630 -96 1882 -96 
Q 1152 -96 713 374 
Q 275 845 275 1555 
z
M 1882 390 
Q 2406 390 2697 716 
Q 2989 1043 2989 1555 
Q 2989 2003 2675 2316 
Q 2362 2630 1882 2630 
Q 1408 2630 1097 2310 
Q 787 1990 787 1555 
Q 787 1043 1075 716 
Q 1363 390 1882 390 
z
" transform="scale(0.015625)"/>
       <path id="Actay-Regular-2e" d="M 275 230 
Q 275 371 361 457 
Q 448 544 589 544 
Q 742 544 832 457 
Q 922 371 922 230 
Q 922 77 832 -9 
Q 742 -96 589 -96 
Q 448 -96 361 -9 
Q 275 77 275 230 
z
" transform="scale(0.015625)"/>
       <path id="Actay-Regular-437" d="M 1830 -96 
Q 1229 -96 829 230 
Q 429 557 429 1075 
L 902 1075 
Q 902 723 1168 508 
Q 1434 294 1830 294 
Q 2240 294 2493 457 
Q 2746 621 2746 889 
Q 2746 1158 2483 1321 
Q 2221 1485 1786 1485 
L 1453 1485 
L 1453 1805 
L 1786 1805 
Q 2234 1805 2445 1936 
Q 2656 2067 2656 2355 
Q 2656 2611 2432 2755 
Q 2208 2899 1818 2899 
Q 1466 2899 1229 2697 
Q 992 2496 992 2202 
L 518 2202 
Q 518 2656 892 2966 
Q 1267 3277 1811 3277 
Q 2419 3277 2784 3037 
Q 3149 2797 3149 2406 
Q 3149 1843 2579 1651 
Q 3238 1421 3238 838 
Q 3238 422 2848 163 
Q 2458 -96 1830 -96 
z
" transform="scale(0.015625)"/>
       <path id="Actay-Regular-430" d="M 3578 0 
L 3136 0 
L 3072 659 
Q 2880 301 2547 102 
Q 2214 -96 1811 -96 
Q 1152 -96 710 387 
Q 269 870 269 1594 
Q 269 2323 710 2809 
Q 1152 3296 1811 3296 
Q 2214 3296 2544 3097 
Q 2874 2899 3066 2541 
L 3136 3200 
L 3578 3200 
L 3578 0 
z
M 781 1600 
Q 781 1069 1110 720 
Q 1440 371 1946 371 
Q 2438 371 2752 713 
Q 3066 1056 3066 1600 
Q 3066 2144 2752 2489 
Q 2438 2835 1946 2835 
Q 1434 2835 1107 2489 
Q 781 2144 781 1600 
z
" transform="scale(0.015625)"/>
       <path id="Actay-Regular-439" d="M 2099 3590 
Q 1658 3590 1331 3840 
Q 1005 4090 1005 4480 
L 1414 4480 
Q 1414 4256 1612 4093 
Q 1811 3930 2099 3930 
Q 2387 3930 2585 4090 
Q 2784 4250 2784 4480 
L 3187 4480 
Q 3187 4109 2876 3849 
Q 2566 3590 2099 3590 
z
M 3680 0 
L 3168 0 
L 3168 2413 
L 922 0 
L 493 0 
L 493 3200 
L 1005 3200 
L 1005 800 
L 3258 3200 
L 3680 3200 
L 3680 0 
z
" transform="scale(0.015625)"/>
       <path id="Actay-Regular-44f" d="M 589 0 
L 0 0 
L 928 1062 
Q 550 1190 332 1456 
Q 115 1722 115 2086 
Q 115 2592 528 2896 
Q 941 3200 1594 3200 
L 2957 3200 
L 2957 0 
L 2483 0 
L 2483 960 
L 1594 960 
Q 1517 960 1376 973 
L 589 0 
z
M 608 2086 
Q 608 1754 870 1565 
Q 1133 1376 1594 1376 
L 2483 1376 
L 2483 2778 
L 1594 2778 
Q 1139 2778 873 2592 
Q 608 2406 608 2086 
z
" transform="scale(0.015625)"/>
       <path id="Actay-Regular-446" d="M 493 0 
L 493 3200 
L 1005 3200 
L 1005 486 
L 3258 486 
L 3258 3200 
L 3770 3200 
L 3770 486 
L 4378 486 
L 4378 -1062 
L 3904 -1062 
L 3904 0 
L 493 0 
z
" transform="scale(0.015625)"/>
      </defs>
      <use xlink:href="#Actay-Regular-414"/>
      <use xlink:href="#Actay-Regular-43e" x="73.899994"/>
      <use xlink:href="#Actay-Regular-445" x="134.999985"/>
      <use xlink:href="#Actay-Regular-43e" x="184.699982"/>
      <use xlink:href="#Actay-Regular-434" x="245.799973"/>
      <use xlink:href="#Actay-Regular-20" x="315.699966"/>
      <use xlink:href="#Actay-Regular-436" x="340.699951"/>
      <use xlink:href="#Actay-Regular-435" x="421.799942"/>
      <use xlink:href="#Actay-Regular-43d" x="481.899933"/>
      <use xlink:href="#Actay-Regular-449" x="547.499924"/>
      <use xlink:href="#Actay-Regular-438" x="651.899918"/>
      <use xlink:href="#Actay-Regular-43d" x="716.999908"/>
      <use xlink:href="#Actay-Regular-44b" x="782.599899"/>
      <use xlink:href="#Actay-Regular-20" x="865.899887"/>
      <use xlink:href="#Actay-Regular-441" x="890.899872"/>
      <use xlink:href="#Actay-Regular-20" x="951.19986"/>
      <use xlink:href="#Actay-Regular-441" x="976.199844"/>
      <use xlink:href="#Actay-Regular-443" x="1036.499832"/>
      <use xlink:href="#Actay-Regular-43f" x="1091.79982"/>
      <use xlink:href="#Actay-Regular-440" x="1154.299805"/>
      <use xlink:href="#Actay-Regular-443" x="1217.799789"/>
      <use xlink:href="#Actay-Regular-433" x="1273.099777"/>
      <use xlink:href="#Actay-Regular-43e" x="1323.099762"/>
      <use xlink:href="#Actay-Regular-43c" x="1384.199753"/>
      <use xlink:href="#Actay-Regular-20" x="1454.499741"/>
      <use xlink:href="#Actay-Regular-28" x="1479.499725"/>
      <use xlink:href="#Actay-Regular-435" x="1510.599716"/>
      <use xlink:href="#Actay-Regular-441" x="1570.699707"/>
      <use xlink:href="#Actay-Regular-43b" x="1630.999695"/>
      <use xlink:href="#Actay-Regular-438" x="1700.399689"/>
      <use xlink:href="#Actay-Regular-20" x="1765.49968"/>
      <use xlink:href="#Actay-Regular-435" x="1790.499664"/>
      <use xlink:href="#Actay-Regular-441" x="1850.599655"/>
      <use xlink:href="#Actay-Regular-442" x="1910.899643"/>
      <use xlink:href="#Actay-Regular-44c" x="1965.299637"/>
      <use xlink:href="#Actay-Regular-29" x="2026.299622"/>
      <use xlink:href="#Actay-Regular-20" x="2057.799606"/>
      <use xlink:href="#Actay-Regular-28" x="2082.799591"/>
      <use xlink:href="#Actay-Regular-440" x="2113.899582"/>
      <use xlink:href="#Actay-Regular-443" x="2177.399567"/>
      <use xlink:href="#Actay-Regular-431" x="2232.699554"/>
      <use xlink:href="#Actay-Regular-2e" x="2291.499542"/>
      <use xlink:href="#Actay-Regular-20" x="2309.999527"/>
      <use xlink:href="#Actay-Regular-437" x="2334.999512"/>
      <use xlink:href="#Actay-Regular-430" x="2390.699509"/>
      <use xlink:href="#Actay-Regular-20" x="2454.199493"/>
      <use xlink:href="#Actay-Regular-43f" x="2479.199478"/>
      <use xlink:href="#Actay-Regular-43e" x="2541.699463"/>
      <use xlink:href="#Actay-Regular-441" x="2602.799454"/>
      <use xlink:href="#Actay-Regular-43b" x="2663.099442"/>
      <use xlink:href="#Actay-Regular-435" x="2732.499435"/>
      <use xlink:href="#Actay-Regular-434" x="2792.599426"/>
      <use xlink:href="#Actay-Regular-43d" x="2862.49942"/>
      <use xlink:href="#Actay-Regular-438" x="2928.099411"/>
      <use xlink:href="#Actay-Regular-439" x="2993.199402"/>
      <use xlink:href="#Actay-Regular-20" x="3058.299393"/>
      <use xlink:href="#Actay-Regular-43c" x="3083.299377"/>
      <use xlink:href="#Actay-Regular-435" x="3153.599365"/>
      <use xlink:href="#Actay-Regular-441" x="3213.699356"/>
      <use xlink:href="#Actay-Regular-44f" x="3273.999344"/>
      <use xlink:href="#Actay-Regular-446" x="3327.999329"/>
      <use xlink:href="#Actay-Regular-29" x="3400.499313"/>
     </g>
    </g>
   </g>
   <g id="matplotlib.axis_2">
    <g id="ytick_1">
     <g id="text_7">
      <!-- Не родила -->
      <g style="fill: #262626" transform="translate(19.44 195.283031) scale(0.165 -0.165)">
       <defs>
        <path id="Actay-Regular-41d" d="M 493 0 
L 493 4480 
L 1005 4480 
L 1005 2490 
L 3661 2490 
L 3661 4480 
L 4173 4480 
L 4173 0 
L 3661 0 
L 3661 1997 
L 1005 1997 
L 1005 0 
L 493 0 
z
" transform="scale(0.015625)"/>
       </defs>
       <use xlink:href="#Actay-Regular-41d"/>
       <use xlink:href="#Actay-Regular-435" x="72.999985"/>
       <use xlink:href="#Actay-Regular-20" x="133.099976"/>
       <use xlink:href="#Actay-Regular-440" x="158.09996"/>
       <use xlink:href="#Actay-Regular-43e" x="221.599945"/>
       <use xlink:href="#Actay-Regular-434" x="282.699936"/>
       <use xlink:href="#Actay-Regular-438" x="352.59993"/>
       <use xlink:href="#Actay-Regular-43b" x="417.699921"/>
       <use xlink:href="#Actay-Regular-430" x="487.099915"/>
      </g>
     </g>
    </g>
    <g id="ytick_2">
     <g id="text_8">
      <!-- Родила -->
      <g style="fill: #262626" transform="translate(44.880938 455.755594) scale(0.165 -0.165)">
       <defs>
        <path id="Actay-Regular-420" d="M 493 0 
L 493 4480 
L 2336 4480 
Q 3053 4480 3545 4048 
Q 4038 3616 4038 2957 
Q 4038 2323 3529 1875 
Q 3021 1427 2336 1427 
L 1005 1427 
L 1005 0 
L 493 0 
z
M 3526 2957 
Q 3526 3405 3187 3702 
Q 2848 4000 2336 4000 
L 1005 4000 
L 1005 1907 
L 2336 1907 
Q 2829 1907 3177 2211 
Q 3526 2515 3526 2957 
z
" transform="scale(0.015625)"/>
       </defs>
       <use xlink:href="#Actay-Regular-420"/>
       <use xlink:href="#Actay-Regular-43e" x="67.399994"/>
       <use xlink:href="#Actay-Regular-434" x="128.499985"/>
       <use xlink:href="#Actay-Regular-438" x="198.399979"/>
       <use xlink:href="#Actay-Regular-43b" x="263.499969"/>
       <use xlink:href="#Actay-Regular-430" x="332.899963"/>
      </g>
     </g>
    </g>
   </g>
   <g id="patch_3">
    <path d="M 191.633929 124.389891 
L 191.633929 254.626172 
L 260.482186 254.626172 
L 260.482186 124.389891 
L 191.633929 124.389891 
z
" clip-path="url(#pedefbff9c9)" style="fill: #759bce; stroke: #525252; stroke-linejoin: miter"/>
   </g>
   <g id="line2d_6">
    <path d="M 191.633929 189.508031 
L 168.686697 189.508031 
" clip-path="url(#pedefbff9c9)" style="fill: none; stroke: #525252"/>
   </g>
   <g id="line2d_7">
    <path d="M 260.482186 189.508031 
L 361.45963 189.508031 
" clip-path="url(#pedefbff9c9)" style="fill: none; stroke: #525252"/>
   </g>
   <g id="line2d_8">
    <path d="M 168.686697 156.948961 
L 168.686697 222.067102 
" clip-path="url(#pedefbff9c9)" style="fill: none; stroke: #525252; stroke-linecap: round"/>
   </g>
   <g id="line2d_9">
    <path d="M 361.45963 156.948961 
L 361.45963 222.067102 
" clip-path="url(#pedefbff9c9)" style="fill: none; stroke: #525252; stroke-linecap: round"/>
   </g>
   <g id="line2d_10">
    <defs>
     <path id="ma8ad4b904f" d="M 0 4.5 
C 1.193414 4.5 2.338109 4.025852 3.181981 3.181981 
C 4.025852 2.338109 4.5 1.193414 4.5 0 
C 4.5 -1.193414 4.025852 -2.338109 3.181981 -3.181981 
C 2.338109 -4.025852 1.193414 -4.5 0 -4.5 
C -1.193414 -4.5 -2.338109 -4.025852 -3.181981 -3.181981 
C -4.025852 -2.338109 -4.5 -1.193414 -4.5 0 
C -4.5 1.193414 -4.025852 2.338109 -3.181981 3.181981 
C -2.338109 4.025852 -1.193414 4.5 0 4.5 
z
" style="stroke: #525252"/>
    </defs>
    <g clip-path="url(#pedefbff9c9)">
     <use xlink:href="#ma8ad4b904f" x="381.425624" y="189.508031" style="fill-opacity: 0; stroke: #525252"/>
     <use xlink:href="#ma8ad4b904f" x="398.1787" y="189.508031" style="fill-opacity: 0; stroke: #525252"/>
     <use xlink:href="#ma8ad4b904f" x="398.1787" y="189.508031" style="fill-opacity: 0; stroke: #525252"/>
     <use xlink:href="#ma8ad4b904f" x="673.571729" y="189.508031" style="fill-opacity: 0; stroke: #525252"/>
     <use xlink:href="#ma8ad4b904f" x="366.049513" y="189.508031" style="fill-opacity: 0; stroke: #525252"/>
     <use xlink:href="#ma8ad4b904f" x="444.077538" y="189.508031" style="fill-opacity: 0; stroke: #525252"/>
     <use xlink:href="#ma8ad4b904f" x="421.128119" y="189.508031" style="fill-opacity: 0; stroke: #525252"/>
     <use xlink:href="#ma8ad4b904f" x="581.774052" y="189.508031" style="fill-opacity: 0; stroke: #525252"/>
     <use xlink:href="#ma8ad4b904f" x="421.128119" y="189.508031" style="fill-opacity: 0; stroke: #525252"/>
     <use xlink:href="#ma8ad4b904f" x="398.1787" y="189.508031" style="fill-opacity: 0; stroke: #525252"/>
     <use xlink:href="#ma8ad4b904f" x="406.945378" y="189.508031" style="fill-opacity: 0; stroke: #525252"/>
     <use xlink:href="#ma8ad4b904f" x="489.976376" y="189.508031" style="fill-opacity: 0; stroke: #525252"/>
     <use xlink:href="#ma8ad4b904f" x="398.1787" y="189.508031" style="fill-opacity: 0; stroke: #525252"/>
     <use xlink:href="#ma8ad4b904f" x="421.128119" y="189.508031" style="fill-opacity: 0; stroke: #525252"/>
     <use xlink:href="#ma8ad4b904f" x="375.229281" y="189.508031" style="fill-opacity: 0; stroke: #525252"/>
     <use xlink:href="#ma8ad4b904f" x="398.1787" y="189.508031" style="fill-opacity: 0; stroke: #525252"/>
     <use xlink:href="#ma8ad4b904f" x="366.049513" y="189.508031" style="fill-opacity: 0; stroke: #525252"/>
     <use xlink:href="#ma8ad4b904f" x="512.925795" y="189.508031" style="fill-opacity: 0; stroke: #525252"/>
     <use xlink:href="#ma8ad4b904f" x="423.882049" y="189.508031" style="fill-opacity: 0; stroke: #525252"/>
     <use xlink:href="#ma8ad4b904f" x="627.672891" y="189.508031" style="fill-opacity: 0; stroke: #525252"/>
     <use xlink:href="#ma8ad4b904f" x="375.229281" y="189.508031" style="fill-opacity: 0; stroke: #525252"/>
     <use xlink:href="#ma8ad4b904f" x="398.1787" y="189.508031" style="fill-opacity: 0; stroke: #525252"/>
     <use xlink:href="#ma8ad4b904f" x="398.1787" y="189.508031" style="fill-opacity: 0; stroke: #525252"/>
     <use xlink:href="#ma8ad4b904f" x="376.147258" y="189.508031" style="fill-opacity: 0; stroke: #525252"/>
     <use xlink:href="#ma8ad4b904f" x="444.077538" y="189.508031" style="fill-opacity: 0; stroke: #525252"/>
     <use xlink:href="#ma8ad4b904f" x="398.1787" y="189.508031" style="fill-opacity: 0; stroke: #525252"/>
     <use xlink:href="#ma8ad4b904f" x="489.976376" y="189.508031" style="fill-opacity: 0; stroke: #525252"/>
     <use xlink:href="#ma8ad4b904f" x="398.1787" y="189.508031" style="fill-opacity: 0; stroke: #525252"/>
     <use xlink:href="#ma8ad4b904f" x="398.1787" y="189.508031" style="fill-opacity: 0; stroke: #525252"/>
     <use xlink:href="#ma8ad4b904f" x="627.672891" y="189.508031" style="fill-opacity: 0; stroke: #525252"/>
     <use xlink:href="#ma8ad4b904f" x="375.229281" y="189.508031" style="fill-opacity: 0; stroke: #525252"/>
     <use xlink:href="#ma8ad4b904f" x="370.639397" y="189.508031" style="fill-opacity: 0; stroke: #525252"/>
     <use xlink:href="#ma8ad4b904f" x="398.1787" y="189.508031" style="fill-opacity: 0; stroke: #525252"/>
     <use xlink:href="#ma8ad4b904f" x="444.077538" y="189.508031" style="fill-opacity: 0; stroke: #525252"/>
     <use xlink:href="#ma8ad4b904f" x="398.1787" y="189.508031" style="fill-opacity: 0; stroke: #525252"/>
     <use xlink:href="#ma8ad4b904f" x="627.672891" y="189.508031" style="fill-opacity: 0; stroke: #525252"/>
     <use xlink:href="#ma8ad4b904f" x="398.1787" y="189.508031" style="fill-opacity: 0; stroke: #525252"/>
     <use xlink:href="#ma8ad4b904f" x="430.307887" y="189.508031" style="fill-opacity: 0; stroke: #525252"/>
     <use xlink:href="#ma8ad4b904f" x="375.229281" y="189.508031" style="fill-opacity: 0; stroke: #525252"/>
     <use xlink:href="#ma8ad4b904f" x="375.229281" y="189.508031" style="fill-opacity: 0; stroke: #525252"/>
     <use xlink:href="#ma8ad4b904f" x="719.470567" y="189.508031" style="fill-opacity: 0; stroke: #525252"/>
     <use xlink:href="#ma8ad4b904f" x="476.206725" y="189.508031" style="fill-opacity: 0; stroke: #525252"/>
     <use xlink:href="#ma8ad4b904f" x="398.1787" y="189.508031" style="fill-opacity: 0; stroke: #525252"/>
     <use xlink:href="#ma8ad4b904f" x="398.1787" y="189.508031" style="fill-opacity: 0; stroke: #525252"/>
     <use xlink:href="#ma8ad4b904f" x="467.026957" y="189.508031" style="fill-opacity: 0; stroke: #525252"/>
     <use xlink:href="#ma8ad4b904f" x="627.672891" y="189.508031" style="fill-opacity: 0; stroke: #525252"/>
     <use xlink:href="#ma8ad4b904f" x="384.409049" y="189.508031" style="fill-opacity: 0; stroke: #525252"/>
     <use xlink:href="#ma8ad4b904f" x="421.128119" y="189.508031" style="fill-opacity: 0; stroke: #525252"/>
     <use xlink:href="#ma8ad4b904f" x="375.229281" y="189.508031" style="fill-opacity: 0; stroke: #525252"/>
     <use xlink:href="#ma8ad4b904f" x="489.976376" y="189.508031" style="fill-opacity: 0; stroke: #525252"/>
     <use xlink:href="#ma8ad4b904f" x="444.077538" y="189.508031" style="fill-opacity: 0; stroke: #525252"/>
     <use xlink:href="#ma8ad4b904f" x="444.077538" y="189.508031" style="fill-opacity: 0; stroke: #525252"/>
     <use xlink:href="#ma8ad4b904f" x="581.774052" y="189.508031" style="fill-opacity: 0; stroke: #525252"/>
     <use xlink:href="#ma8ad4b904f" x="398.1787" y="189.508031" style="fill-opacity: 0; stroke: #525252"/>
     <use xlink:href="#ma8ad4b904f" x="627.672891" y="189.508031" style="fill-opacity: 0; stroke: #525252"/>
     <use xlink:href="#ma8ad4b904f" x="366.049513" y="189.508031" style="fill-opacity: 0; stroke: #525252"/>
     <use xlink:href="#ma8ad4b904f" x="375.229281" y="189.508031" style="fill-opacity: 0; stroke: #525252"/>
     <use xlink:href="#ma8ad4b904f" x="375.229281" y="189.508031" style="fill-opacity: 0; stroke: #525252"/>
     <use xlink:href="#ma8ad4b904f" x="381.425624" y="189.508031" style="fill-opacity: 0; stroke: #525252"/>
     <use xlink:href="#ma8ad4b904f" x="398.1787" y="189.508031" style="fill-opacity: 0; stroke: #525252"/>
     <use xlink:href="#ma8ad4b904f" x="398.1787" y="189.508031" style="fill-opacity: 0; stroke: #525252"/>
     <use xlink:href="#ma8ad4b904f" x="673.571729" y="189.508031" style="fill-opacity: 0; stroke: #525252"/>
     <use xlink:href="#ma8ad4b904f" x="444.077538" y="189.508031" style="fill-opacity: 0; stroke: #525252"/>
     <use xlink:href="#ma8ad4b904f" x="421.128119" y="189.508031" style="fill-opacity: 0; stroke: #525252"/>
     <use xlink:href="#ma8ad4b904f" x="581.774052" y="189.508031" style="fill-opacity: 0; stroke: #525252"/>
     <use xlink:href="#ma8ad4b904f" x="421.128119" y="189.508031" style="fill-opacity: 0; stroke: #525252"/>
     <use xlink:href="#ma8ad4b904f" x="398.1787" y="189.508031" style="fill-opacity: 0; stroke: #525252"/>
     <use xlink:href="#ma8ad4b904f" x="406.945378" y="189.508031" style="fill-opacity: 0; stroke: #525252"/>
     <use xlink:href="#ma8ad4b904f" x="489.976376" y="189.508031" style="fill-opacity: 0; stroke: #525252"/>
     <use xlink:href="#ma8ad4b904f" x="512.925795" y="189.508031" style="fill-opacity: 0; stroke: #525252"/>
     <use xlink:href="#ma8ad4b904f" x="384.409049" y="189.508031" style="fill-opacity: 0; stroke: #525252"/>
     <use xlink:href="#ma8ad4b904f" x="857.167081" y="189.508031" style="fill-opacity: 0; stroke: #525252"/>
     <use xlink:href="#ma8ad4b904f" x="375.229281" y="189.508031" style="fill-opacity: 0; stroke: #525252"/>
     <use xlink:href="#ma8ad4b904f" x="444.077538" y="189.508031" style="fill-opacity: 0; stroke: #525252"/>
     <use xlink:href="#ma8ad4b904f" x="398.1787" y="189.508031" style="fill-opacity: 0; stroke: #525252"/>
     <use xlink:href="#ma8ad4b904f" x="421.128119" y="189.508031" style="fill-opacity: 0; stroke: #525252"/>
     <use xlink:href="#ma8ad4b904f" x="375.229281" y="189.508031" style="fill-opacity: 0; stroke: #525252"/>
     <use xlink:href="#ma8ad4b904f" x="375.229281" y="189.508031" style="fill-opacity: 0; stroke: #525252"/>
     <use xlink:href="#ma8ad4b904f" x="434.897771" y="189.508031" style="fill-opacity: 0; stroke: #525252"/>
     <use xlink:href="#ma8ad4b904f" x="535.875214" y="189.508031" style="fill-opacity: 0; stroke: #525252"/>
     <use xlink:href="#ma8ad4b904f" x="398.1787" y="189.508031" style="fill-opacity: 0; stroke: #525252"/>
     <use xlink:href="#ma8ad4b904f" x="398.1787" y="189.508031" style="fill-opacity: 0; stroke: #525252"/>
     <use xlink:href="#ma8ad4b904f" x="366.049513" y="189.508031" style="fill-opacity: 0; stroke: #525252"/>
     <use xlink:href="#ma8ad4b904f" x="627.672891" y="189.508031" style="fill-opacity: 0; stroke: #525252"/>
     <use xlink:href="#ma8ad4b904f" x="423.882049" y="189.508031" style="fill-opacity: 0; stroke: #525252"/>
     <use xlink:href="#ma8ad4b904f" x="627.672891" y="189.508031" style="fill-opacity: 0; stroke: #525252"/>
     <use xlink:href="#ma8ad4b904f" x="366.049513" y="189.508031" style="fill-opacity: 0; stroke: #525252"/>
     <use xlink:href="#ma8ad4b904f" x="375.229281" y="189.508031" style="fill-opacity: 0; stroke: #525252"/>
     <use xlink:href="#ma8ad4b904f" x="398.1787" y="189.508031" style="fill-opacity: 0; stroke: #525252"/>
     <use xlink:href="#ma8ad4b904f" x="375.229281" y="189.508031" style="fill-opacity: 0; stroke: #525252"/>
     <use xlink:href="#ma8ad4b904f" x="444.077538" y="189.508031" style="fill-opacity: 0; stroke: #525252"/>
     <use xlink:href="#ma8ad4b904f" x="411.948352" y="189.508031" style="fill-opacity: 0; stroke: #525252"/>
     <use xlink:href="#ma8ad4b904f" x="444.077538" y="189.508031" style="fill-opacity: 0; stroke: #525252"/>
     <use xlink:href="#ma8ad4b904f" x="376.147258" y="189.508031" style="fill-opacity: 0; stroke: #525252"/>
     <use xlink:href="#ma8ad4b904f" x="398.1787" y="189.508031" style="fill-opacity: 0; stroke: #525252"/>
     <use xlink:href="#ma8ad4b904f" x="444.077538" y="189.508031" style="fill-opacity: 0; stroke: #525252"/>
     <use xlink:href="#ma8ad4b904f" x="820.44801" y="189.508031" style="fill-opacity: 0; stroke: #525252"/>
     <use xlink:href="#ma8ad4b904f" x="398.1787" y="189.508031" style="fill-opacity: 0; stroke: #525252"/>
     <use xlink:href="#ma8ad4b904f" x="489.976376" y="189.508031" style="fill-opacity: 0; stroke: #525252"/>
     <use xlink:href="#ma8ad4b904f" x="696.521148" y="189.508031" style="fill-opacity: 0; stroke: #525252"/>
     <use xlink:href="#ma8ad4b904f" x="398.1787" y="189.508031" style="fill-opacity: 0; stroke: #525252"/>
     <use xlink:href="#ma8ad4b904f" x="398.1787" y="189.508031" style="fill-opacity: 0; stroke: #525252"/>
     <use xlink:href="#ma8ad4b904f" x="375.229281" y="189.508031" style="fill-opacity: 0; stroke: #525252"/>
     <use xlink:href="#ma8ad4b904f" x="375.229281" y="189.508031" style="fill-opacity: 0; stroke: #525252"/>
     <use xlink:href="#ma8ad4b904f" x="370.639397" y="189.508031" style="fill-opacity: 0; stroke: #525252"/>
     <use xlink:href="#ma8ad4b904f" x="489.976376" y="189.508031" style="fill-opacity: 0; stroke: #525252"/>
     <use xlink:href="#ma8ad4b904f" x="444.077538" y="189.508031" style="fill-opacity: 0; stroke: #525252"/>
     <use xlink:href="#ma8ad4b904f" x="398.1787" y="189.508031" style="fill-opacity: 0; stroke: #525252"/>
     <use xlink:href="#ma8ad4b904f" x="371.098386" y="189.508031" style="fill-opacity: 0; stroke: #525252"/>
     <use xlink:href="#ma8ad4b904f" x="398.1787" y="189.508031" style="fill-opacity: 0; stroke: #525252"/>
     <use xlink:href="#ma8ad4b904f" x="444.077538" y="189.508031" style="fill-opacity: 0; stroke: #525252"/>
     <use xlink:href="#ma8ad4b904f" x="398.1787" y="189.508031" style="fill-opacity: 0; stroke: #525252"/>
     <use xlink:href="#ma8ad4b904f" x="398.1787" y="189.508031" style="fill-opacity: 0; stroke: #525252"/>
     <use xlink:href="#ma8ad4b904f" x="398.1787" y="189.508031" style="fill-opacity: 0; stroke: #525252"/>
     <use xlink:href="#ma8ad4b904f" x="467.026957" y="189.508031" style="fill-opacity: 0; stroke: #525252"/>
     <use xlink:href="#ma8ad4b904f" x="627.672891" y="189.508031" style="fill-opacity: 0; stroke: #525252"/>
     <use xlink:href="#ma8ad4b904f" x="384.409049" y="189.508031" style="fill-opacity: 0; stroke: #525252"/>
     <use xlink:href="#ma8ad4b904f" x="421.128119" y="189.508031" style="fill-opacity: 0; stroke: #525252"/>
     <use xlink:href="#ma8ad4b904f" x="375.229281" y="189.508031" style="fill-opacity: 0; stroke: #525252"/>
     <use xlink:href="#ma8ad4b904f" x="444.077538" y="189.508031" style="fill-opacity: 0; stroke: #525252"/>
     <use xlink:href="#ma8ad4b904f" x="627.672891" y="189.508031" style="fill-opacity: 0; stroke: #525252"/>
     <use xlink:href="#ma8ad4b904f" x="398.1787" y="189.508031" style="fill-opacity: 0; stroke: #525252"/>
     <use xlink:href="#ma8ad4b904f" x="627.672891" y="189.508031" style="fill-opacity: 0; stroke: #525252"/>
     <use xlink:href="#ma8ad4b904f" x="366.049513" y="189.508031" style="fill-opacity: 0; stroke: #525252"/>
    </g>
   </g>
   <g id="patch_4">
    <path d="M 182.454161 384.862453 
L 182.454161 515.098734 
L 251.302418 515.098734 
L 251.302418 384.862453 
L 182.454161 384.862453 
z
" clip-path="url(#pedefbff9c9)" style="fill: #6584ad; stroke: #525252; stroke-linejoin: miter"/>
   </g>
   <g id="line2d_11">
    <path d="M 182.454161 449.980594 
L 168.686697 449.980594 
" clip-path="url(#pedefbff9c9)" style="fill: none; stroke: #525252"/>
   </g>
   <g id="line2d_12">
    <path d="M 251.302418 449.980594 
L 352.279862 449.980594 
" clip-path="url(#pedefbff9c9)" style="fill: none; stroke: #525252"/>
   </g>
   <g id="line2d_13">
    <path d="M 168.686697 417.421523 
L 168.686697 482.539664 
" clip-path="url(#pedefbff9c9)" style="fill: none; stroke: #525252; stroke-linecap: round"/>
   </g>
   <g id="line2d_14">
    <path d="M 352.279862 417.421523 
L 352.279862 482.539664 
" clip-path="url(#pedefbff9c9)" style="fill: none; stroke: #525252; stroke-linecap: round"/>
   </g>
   <g id="line2d_15">
    <g clip-path="url(#pedefbff9c9)">
     <use xlink:href="#ma8ad4b904f" x="361.45963" y="449.980594" style="fill-opacity: 0; stroke: #525252"/>
     <use xlink:href="#ma8ad4b904f" x="375.229281" y="449.980594" style="fill-opacity: 0; stroke: #525252"/>
     <use xlink:href="#ma8ad4b904f" x="489.976376" y="449.980594" style="fill-opacity: 0; stroke: #525252"/>
     <use xlink:href="#ma8ad4b904f" x="378.139267" y="449.980594" style="fill-opacity: 0; stroke: #525252"/>
     <use xlink:href="#ma8ad4b904f" x="1086.661271" y="449.980594" style="fill-opacity: 0; stroke: #525252"/>
     <use xlink:href="#ma8ad4b904f" x="581.774052" y="449.980594" style="fill-opacity: 0; stroke: #525252"/>
    </g>
   </g>
   <g id="line2d_16">
    <path d="M 216.87829 124.389891 
L 216.87829 254.626172 
" clip-path="url(#pedefbff9c9)" style="fill: none; stroke: #525252"/>
   </g>
   <g id="line2d_17">
    <path d="M 214.583348 384.862453 
L 214.583348 515.098734 
" clip-path="url(#pedefbff9c9)" style="fill: none; stroke: #525252"/>
   </g>
   <g id="patch_5">
    <path d="M 122.787969 580.216875 
L 122.787969 59.27175 
" style="fill: none; stroke: #ffffff; stroke-width: 1.875; stroke-linejoin: miter; stroke-linecap: square"/>
   </g>
   <g id="patch_6">
    <path d="M 1132.56 580.216875 
L 1132.56 59.27175 
" style="fill: none; stroke: #ffffff; stroke-width: 1.875; stroke-linejoin: miter; stroke-linecap: square"/>
   </g>
   <g id="patch_7">
    <path d="M 122.787969 580.216875 
L 1132.56 580.216875 
" style="fill: none; stroke: #ffffff; stroke-width: 1.875; stroke-linejoin: miter; stroke-linecap: square"/>
   </g>
   <g id="patch_8">
    <path d="M 122.787969 59.27175 
L 1132.56 59.27175 
" style="fill: none; stroke: #ffffff; stroke-width: 1.875; stroke-linejoin: miter; stroke-linecap: square"/>
   </g>
  </g>
  <g id="text_9">
   <!-- Распределение общих доходов женщин в 2020 г. -->
   <g style="fill: #262626" transform="translate(298.456875 29.03175) scale(0.216 -0.216)">
    <defs>
     <path id="Actay-Regular-432" d="M 493 0 
L 493 3200 
L 2016 3200 
Q 2554 3200 2883 2973 
Q 3213 2746 3213 2381 
Q 3213 2131 3037 1932 
Q 2861 1734 2566 1632 
Q 2938 1549 3149 1350 
Q 3360 1152 3360 864 
Q 3360 480 2989 240 
Q 2618 0 2016 0 
L 493 0 
z
M 2752 2323 
Q 2752 2560 2550 2697 
Q 2349 2835 2016 2835 
L 966 2835 
L 966 1792 
L 2016 1792 
Q 2323 1792 2537 1945 
Q 2752 2099 2752 2323 
z
M 2886 902 
Q 2886 1152 2652 1299 
Q 2419 1446 2016 1446 
L 966 1446 
L 966 371 
L 2016 371 
Q 2413 371 2649 515 
Q 2886 659 2886 902 
z
" transform="scale(0.015625)"/>
    </defs>
    <use xlink:href="#Actay-Regular-420"/>
    <use xlink:href="#Actay-Regular-430" x="67.399994"/>
    <use xlink:href="#Actay-Regular-441" x="130.899979"/>
    <use xlink:href="#Actay-Regular-43f" x="191.199966"/>
    <use xlink:href="#Actay-Regular-440" x="253.699951"/>
    <use xlink:href="#Actay-Regular-435" x="317.199936"/>
    <use xlink:href="#Actay-Regular-434" x="377.299927"/>
    <use xlink:href="#Actay-Regular-435" x="447.199921"/>
    <use xlink:href="#Actay-Regular-43b" x="507.299911"/>
    <use xlink:href="#Actay-Regular-435" x="576.699905"/>
    <use xlink:href="#Actay-Regular-43d" x="636.799896"/>
    <use xlink:href="#Actay-Regular-438" x="702.399887"/>
    <use xlink:href="#Actay-Regular-435" x="767.499878"/>
    <use xlink:href="#Actay-Regular-20" x="827.599869"/>
    <use xlink:href="#Actay-Regular-43e" x="852.599854"/>
    <use xlink:href="#Actay-Regular-431" x="913.699844"/>
    <use xlink:href="#Actay-Regular-449" x="972.499832"/>
    <use xlink:href="#Actay-Regular-438" x="1076.899826"/>
    <use xlink:href="#Actay-Regular-445" x="1141.999817"/>
    <use xlink:href="#Actay-Regular-20" x="1191.699814"/>
    <use xlink:href="#Actay-Regular-434" x="1216.699799"/>
    <use xlink:href="#Actay-Regular-43e" x="1286.599792"/>
    <use xlink:href="#Actay-Regular-445" x="1347.699783"/>
    <use xlink:href="#Actay-Regular-43e" x="1397.39978"/>
    <use xlink:href="#Actay-Regular-434" x="1458.499771"/>
    <use xlink:href="#Actay-Regular-43e" x="1528.399765"/>
    <use xlink:href="#Actay-Regular-432" x="1589.499756"/>
    <use xlink:href="#Actay-Regular-20" x="1646.199753"/>
    <use xlink:href="#Actay-Regular-436" x="1671.199738"/>
    <use xlink:href="#Actay-Regular-435" x="1752.299728"/>
    <use xlink:href="#Actay-Regular-43d" x="1812.399719"/>
    <use xlink:href="#Actay-Regular-449" x="1877.99971"/>
    <use xlink:href="#Actay-Regular-438" x="1982.399704"/>
    <use xlink:href="#Actay-Regular-43d" x="2047.499695"/>
    <use xlink:href="#Actay-Regular-20" x="2113.099686"/>
    <use xlink:href="#Actay-Regular-432" x="2138.09967"/>
    <use xlink:href="#Actay-Regular-20" x="2194.799667"/>
    <use xlink:href="#Actay-Regular-32" x="2219.799652"/>
    <use xlink:href="#Actay-Regular-30" x="2281.09964"/>
    <use xlink:href="#Actay-Regular-32" x="2348.099625"/>
    <use xlink:href="#Actay-Regular-30" x="2409.399612"/>
    <use xlink:href="#Actay-Regular-20" x="2476.399597"/>
    <use xlink:href="#Actay-Regular-433" x="2501.399582"/>
    <use xlink:href="#Actay-Regular-2e" x="2551.399567"/>
   </g>
  </g>
 </g>
 <defs>
  <clipPath id="pedefbff9c9">
   <rect x="122.787969" y="59.27175" width="1009.772031" height="520.945125"/>
  </clipPath>
 </defs>
</svg>
